CoelacanthItalicPearlGross.sfdir
StartChar: exclam
Encoding: 33 33 75
Width: 291
Flags: HW
LayerCount: 2
Fore
SplineSet
150.079101562 209 m 17
 177.712890625 339 194.541992188 437 200.947265626 533 c 0
 205.729492186 580 179.576171875 604 192.808593751 654 c 1
 348.155273438 664 434.447265624 696 437.31640625 665 c 1
 397.6640625 629 396.719726562 605.739257812 370.107421876 537 c 0
 317.774414062 413 261.026367188 346 232.543945312 212 c 9
 150.079101562 209 l 17
EndSplineSet
Refer: 48 46 N 1 0 0 1 36.7093 0 2
Substitution2: "pcap-1" exclam.pcap
Substitution2: "smcp-1" exclam.smcp
Position2: "cpsp-1" dx=0 dy=0 dh=50 dv=100
EndChar
StartChar: dollar
Encoding: 36 36 1366
Width: 533
UnlinkRmOvrlpSave: 1
Flags: HW
LayerCount: 2
Back
SplineSet
423.088867188 373.231445312 m 1
 371.956054688 408.29296875 l 1
 373.494386962 410.536547708 376.147471149 414.472454809 376.96875 415.700195312 c 1
 353.133059408 427.565402169 325.407831445 435.889648438 296.860351562 435.889648438 c 0
 208.139383572 435.889648438 169 396.400772516 169 366.01953125 c 0
 169 344.117799495 228.037976441 308.404308129 308.526367188 281.373046875 c 0
 363.668521881 262.854078167 458.3203125 227.62123205 458.3203125 139.870117188 c 0
 458.3203125 60.2704540695 367.786029274 0.6396484375 264.099609375 0.6396484375 c 0
 190.87099395 0.6396484375 125.175448333 38.7948212437 88.828125 85.6259765625 c 0
 72.9609375 106.071289062 l 1
 90.2431640625 125.334960938 l 0
 100.407113101 136.663874858 112.396135158 149.408309216 122.197265625 160.124023438 c 1
 167.947265625 118.280273438 l 1
 163.807898747 113.7548608 160.892428936 110.607873378 155.587890625 104.875976562 c 1
 182.336296568 81.3515969031 223.077006267 62.6396484375 264.099609375 62.6396484375 c 0
 351.708728917 62.6396484375 396.3203125 113.521262225 396.3203125 139.870117188 c 0
 396.3203125 173.477518124 350.331484311 201.930837516 288.788085938 222.599609375 c 0
 222.459936278 244.875294978 107 280.506062115 107 366.01953125 c 0
 107 451.678802628 198.028070157 497.889648438 296.860351562 497.889648438 c 0
 353.816358367 497.889648438 403.50476779 475.275522865 438.265625 451.396484375 c 0
 463.247070312 434.234375 l 1
 446.653320312 408.872070312 l 0
 437.623343705 395.070371747 430.702796739 384.335079095 423.088867188 373.231445312 c 1
EndSplineSet
Fore
SplineSet
459.450195312 432.580078125 m 1
 439.276694901 401.243424025 427.312383342 378.85976835 407 352 c 1
 349.770507812 388.870117188 l 1
 356.190122258 394.261825058 356.400390625 398.55719015 356.400390625 405.459960938 c 3
 356.400390625 414.545076348 326.162166813 433.469726562 293.860351562 433.469726562 c 3
 240.587283217 433.469726562 191.879882812 420.016084959 191.879882812 394.099609375 c 3
 191.879882812 338.15634445 252.912395923 343.85893809 308.259765625 316.309570312 c 0
 397.461886893 273.902916092 455.3203125 233.963156544 455.3203125 139.870117188 c 3
 455.3203125 60.5624999998 364.459960938 0.6396484375 261.099609375 0.6396484375 c 3
 177.831054688 0.6396484375 103.487304688 49.8984375002 71.5595703125 107.110351562 c 1
 89.3255050875 128.173121388 114.530247647 151.72997744 135 176 c 1
 186.559570312 136.650390625 l 1
 185.480127342 132.714843749 182.969726562 124.063533423 182.969726562 118.940429688 c 3
 182.969726562 81.210025408 226.156657003 68.419921875 273.120117188 68.419921875 c 3
 319.965090677 68.419921875 368.969726562 97.519817278 368.969726562 127.469726562 c 3
 368.969726562 161.745747806 340.106753088 182.438707812 288.8203125 200.41015625 c 0
 185.138295096 235.796233392 104 267.479368964 104 366.01953125 c 3
 104 442.24890148 193.41731809 497.889648438 293.860351562 497.889648438 c 3
 365.149872217 497.889648438 425.416104093 462.560589962 459.450195312 432.580078125 c 1
EndSplineSet
Refer: 1961 58113 N 0.0181668 0.693762 -0.968418 0.0253589 256.417 -112.881 2
Substitution2: "case-1" dollar.alt
Substitution2: "lnum-1" dollar.alt
EndChar
StartChar: ampersand
Encoding: 38 38 78
Width: 676
Flags: HW
LayerCount: 2
Fore
SplineSet
192.6232 336.721 m 1
 180.959731856 327.529125 135.0743 290.972895833 135.0743 261 c 3
 135.0743 152.638764707 180.999906537 85.558 274.6884 85.558 c 3
 285.8732061 85.558 327.155325 124.388038 342.7536 149.2138 c 1
 285.638773912 286.777493458 204.628391304 322.701770092 192.6232 336.721 c 1
162 551.4746 m 1
 157.332585897 551.4746 160.3207 542.034895652 160.3207 545 c 3
 160.3207 498.745450697 207.911410976 485.599514487 221.602160938 458.762704688 c 1
 242.050821558 468.463223823 240.1304 472.371111912 240.1304 489.279 c 3
 240.1304 519.767039216 207.859147826 551.4746 162 551.4746 c 1
645.827675 438.064970312 m 1
 630.917777513 432.130110999 554.561078778 407.709092795 550.946810938 396.635134375 c 0
 522.919065556 319.469564087 497.963028194 257.127367308 460.7953 184.6558 c 1
 490.507287687 102.533617902 517.766201602 76.192540625 551.290484375 76.192540625 c 3
 585.175968297 76.192540625 605.071565542 110.794847617 620.8931 131.05345 c 1
 672 108 l 1
 635.267605634 35.0933549088 622.718309859 -11.3978390625 509 -11.3978390625 c 3
 456.427419355 -11.3978390625 412.782258065 21.1223552129 386 62.0978 c 1
 366 68.392472269 336.149758454 -11 199 -11 c 3
 80 -11 17 85 17 172 c 3
 17 278.525383496 77.3272286185 352.67540534 146.15125 387.1395 c 1
 110.614204546 411.283039062 81 452.141335938 81 506 c 3
 81 593 156 626 231 653 c 1
 316 623 351 575 351 498 c 3
 351 482.886254546 316.273042857 432.821972727 283.7627 404.4837 c 1
 330.723108482 386.854141282 392.513119643 327.066942153 422.172325 264.213732812 c 1
 447.963135059 304.390824112 477.431467402 370.573179873 478.09794375 408.978807812 c 0
 482.985133669 448.391715239 448.309110359 477.569943561 430.786267188 483.032973438 c 1
 448.2699 531.39765 l 1
 500.971423636 509.34667069 592.571690909 490.052063793 655.3116 491.43025 c 1
 645.827675 438.064970312 l 1
EndSplineSet
Position2: "cpsp-1" dx=0 dy=0 dh=50 dv=100
Substitution2: "smcp-1" ampersand.smcp
Substitution2: "pcap-1" ampersand.pcap
EndChar
StartChar: quotesingle
Encoding: 39 39 79
Width: 200
Flags: HW
LayerCount: 2
Fore
SplineSet
297.629882812 699.700195312 m 1
 442.198242188 699.700195312 l 1
 425.862304688 630.734375 366.517578124 537.034179688 342.778320312 445.700195312 c 1
 289.070312501 445.700195312 l 1
 303.932617188 536.911132812 284.93359375 630.890625 297.629882812 699.700195312 c 1
EndSplineSet
Position2: "cpsp-1" dx=0 dy=0 dh=7 dv=15
Position2: "Extra space for context kern-1" dx=35 dy=7 dh=70 dv=15
EndChar
StartChar: parenleft
Encoding: 40 40 59
Width: 351
Flags: HW
LayerCount: 2
Fore
SplineSet
305 714 m 1
 339 643 l 1
 203.359090909 576.046321526 136 437.234332425 136 271 c 3
 136 108.394978564 172.441097123 -0.5100419081 337 -102 c 1
 308 -177 l 1
 133 -81.5925925926 37 69.8148148148 37 271 c 3
 37 472.269320843 139 629.964871194 305 714 c 1
EndSplineSet
Position2: "'case' vertical ajustments for all-caps-1" dx=0 dy=125 dh=0 dv=0
Position2: "cpsp-1" dx=0 dy=0 dh=50 dv=100
EndChar
StartChar: comma
Encoding: 44 44 46
Width: 217
Flags: HW
LayerCount: 2
Fore
SplineSet
40.521484375 -134.936523438 m 1
 20.05859375 -78 l 1
 45.7041015625 -62.3359375 71.595703125 -37.8408203125 58.432617187 -29.34375 c 0
 43.336914062 2.455078125 41.158203125 25.58984375 9.6416015625 33.1181640625 c 0
 1.5537109375 35.1484375 -2.05859375 46.1640625 -0.208984375 54.859375 c 0
 1.2978515625 61.9560546875 8.1943359375 67.1611328125 15.5322265625 70.236328125 c 0
 78.1943359375 104.709960938 84.87890625 118.261718749 119.320312499 166.00390625 c 0
 123.835937501 172.734374999 131.1640625 178.649414062 140.6640625 178.649414062 c 3
 148.189453124 178.649414062 152.413085938 171.809570314 155.536132812 166.00390625 c 0
 178.569335938 125.099609375 189.017578125 104.728515625 219.31640625 97.30078125 c 0
 230.767578126 98.2109375 240.225585936 113.220703125 239.596679688 110.267578125 c 0
 230.428710938 67.1318359375 154.625 -75.00390625 40.521484375 -134.936523438 c 1
EndSplineSet
Position2: "cpsp-1" dx=0 dy=0 dh=7 dv=16
Position2: "Extra space for context kern-1" dx=78 dy=34 dh=156 dv=66
EndChar
StartChar: period
Encoding: 46 46 48
Width: 217
Flags: HW
LayerCount: 2
Fore
SplineSet
224.338867188 39.904296875 m 0
 161.065429686 10.4365234375 151.930664064 3.49609375 115.755859375 -48.0947265625 c 0
 112.608398438 -54.46484375 104.935546875 -57.556640625 98.270507812 -57.556640625 c 3
 90.797851563 -57.556640625 82.1318359375 -53.9033203125 80.4423828125 -48.0947265625 c 0
 65.0234375 -8.4345703125 60.6435546875 12.4404296875 10.9638671875 41.44921875 c 0
 4.8671875 43.4326171875 3.13671875 53.90234375 4.7255859375 61.3740234375 c 0
 6.13671875 68.009765625 11.8134765625 73.1826171875 18.2548828125 75.75 c 0
 74.001953125 106.606445312 90.083984375 115.21484375 125.975585938 166.115234375 c 0
 129.473632812 172.318359376 140.602539064 176.759765625 148.077148438 176.759765625 c 3
 154.742187499 176.759765625 160.577148438 172.340820312 161.287109375 166.115234375 c 0
 172.472656251 127.715820312 182.620117188 103.090820312 231.628906249 74.2060546875 c 0
 237.415039062 72.1953125 239.446289062 66.4658203125 238.037109375 59.8291015625 c 0
 236.448242188 52.357421875 231.012695314 42.1826171875 224.338867188 39.904296875 c 0
EndSplineSet
Position2: "cpsp-1" dx=0 dy=0 dh=7 dv=16
Position2: "Extra space for context kern-1" dx=78 dy=34 dh=156 dv=66
EndChar
StartChar: zero
Encoding: 48 48 63
Width: 573
Flags: HW
LayerCount: 2
Fore
SplineSet
351.224609376 409 m 3
 265.228285797 409 230.364509589 315.33638708 220.103515624 268 c 0
 208.6953125 216 229.536144864 96 343.758789062 96 c 3
 395.851848848 96 449.753991011 160.545053888 465.427734376 234 c 0
 489.274051046 345.885245902 397.224609376 409 351.224609376 409 c 3
392.978515625 508 m 3
 563.978515625 508 599.36918284 364.0001986 575.564453125 252 c 0
 551.7578125 140 446.44921875 -12 294.44921875 -12 c 3
 131.44921875 -12 74.8069848564 111.999926832 106.264648438 260 c 0
 122.418945312 336 214.978515625 508 392.978515625 508 c 3
EndSplineSet
Substitution2: "case-1" zero.proportionallining
Substitution2: "tnum-1" zero.tabulartext
Substitution2: "lnum-1" zero.proportionallining
Substitution2: "numr-1" zero.numerator
Substitution2: "dnom-1" zero.denom
Substitution2: "'zero' Slashed Zero lookup 22-1" zero.alt
EndChar
StartChar: two
Encoding: 50 50 65
Width: 623
Flags: W
HStem: -6.54492 15.6328G<99.4619 121.188 487.648 502.273> 0.992188 76.8711<201.317 441.038> 425.687 90.0449<207.098 327.535>
VStem: 350.269 94.7588<284.3 402.511>
LayerCount: 2
Fore
SplineSet
169.52734375 386.836914062 m 1xb0
 215.73828125 431.685546875 302.782226562 515.731445312 399.296875 515.731445312 c 1
 505.260742188 515.731445312 535.618164062 426.194335938 521.02734375 357.551757812 c 0
 491.69921875 219.575195312 248.72265625 117.96484375 217.788085938 77.86328125 c 1
 344.678710938 87.6884765625 418.231445312 75.6181640625 431.717773438 82.6318359375 c 1
 478.07421875 100.915039062 509.908203125 141.532226562 534.50390625 166.438476562 c 1
 583.895507812 121.48828125 l 1
 583.895507812 121.48828125 527.568359375 80.9580078125 491.653320312 -11.912109375 c 1
 480.84765625 -1.2373046875 359.75 0.9921875 334.309570312 0.9921875 c 1x70
 255.163085938 0.9921875 135.40234375 3.7666015625 106.3828125 -6.544921875 c 1
 93.32421875 57.76171875 l 1
 172.543945312 127.662109375 400.908203125 238.240234375 423.529296875 344.666015625 c 0
 436.330078125 404.887695312 398.060546875 425.686523438 359.145507812 425.686523438 c 1
 317.673828125 425.686523438 249.748046875 386.952148438 199.017578125 342.372070312 c 1
 169.52734375 386.836914062 l 1xb0
EndSplineSet
Substitution2: "case-1" two.proportionallining
Substitution2: "lnum-1" two.proportionallining
Substitution2: "tnum-1" two.tabulartext
Substitution2: "numr-1" two.numerator
Substitution2: "dnom-1" two.denom
EndChar
StartChar: six
Encoding: 54 54 69
Width: 603
Flags: HW
LayerCount: 2
Fore
SplineSet
527.880859375 676.493164062 m 1
 527.880859375 676.493164062 537.85553211 614.273049178 542.21875 608.30078125 c 1
 326.69140625 497.56640625 301.61540723 435.966587711 269.125 289.73046875 c 0
 257.688840842 239.153421505 269.532509938 82.49609375 364.880859375 82.49609375 c 3
 394.898131559 82.49609375 440.666237966 114.371116144 452.3203125 162.73828125 c 0
 478.572607684 278.808742846 416.270381588 316.73046875 359.25 316.73046875 c 3
 346.548309834 316.73046875 338.867068819 315.408269658 331.993164062 314.64453125 c 1
 315.185546875 370.030273438 l 1
 341.506835938 395.86328125 379.455078125 420.665039062 430.071289062 420.665039062 c 3
 540.854492188 420.665039062 594.662408332 317.113425279 569.173828125 197.193359375 c 0
 545.021484375 83.56640625 426.095703125 -14.0537109375 303.107421875 -14.0537109375 c 3
 137.024414062 -14.0537109375 118.25958272 148.485182865 138.400390625 243.24609375 c 0
 177.454101562 426.975585938 298.810546875 570.254882812 527.880859375 676.493164062 c 1
EndSplineSet
Substitution2: "case-1" six.proportionallining
Substitution2: "lnum-1" six.proportionallining
Substitution2: "tnum-1" six.tabulartext
Substitution2: "numr-1" six.numerator
Substitution2: "dnom-1" six.denom
EndChar
StartChar: eight
Encoding: 56 56 71
Width: 570
UnlinkRmOvrlpSave: 1
Flags: HW
LayerCount: 2
Fore
SplineSet
381.09375 588.271484376 m 3
 362.771916576 588.271484376 346.089883777 589.98336879 337.16015625 542.537109376 c 0
 306.087344693 382.489331673 574.60114172 380.202287219 530.83984375 175.89453125 c 0
 512.151950283 88.7554545919 437.777938685 -12.5263671875 277.3125 -12.5263671875 c 3
 160.774414062 -12.5263671875 97.5003019394 58.883851278 118.184570312 167.532226562 c 0
 143.94921875 306.6015625 419.98828125 375.357421876 447.134765624 501.869140624 c 0
 459.551206507 559.5296478 402.288483477 588.271484376 381.09375 588.271484376 c 3
415.665039062 660.852539062 m 3
 449.938476562 660.852539062 585.623050023 652.428840332 554.065429688 499 c 0
 523.591796876 351.185546876 281.759765624 361.11328125 250.37109375 206 c 0
 251.99780935 209.150276932 246.875590545 65 361.95703125 65 c 3
 378.437196752 65 393.334919943 92.3732804864 398.06640625 111 c 0
 414.333984376 185.87109375 398.915721839 208.231573433 376.529296876 233 c 0
 281.704083318 330.986567253 195.330272162 391.537837641 211.275390624 471.08203125 c 0
 239.238176291 609.206874112 357.510926637 660.852539062 415.665039062 660.852539062 c 3
EndSplineSet
Substitution2: "case-1" eight.proportionallining
Substitution2: "tnum-1" eight.tabulartext
Substitution2: "lnum-1" eight.proportionallining
Substitution2: "numr-1" eight.numerator
Substitution2: "dnom-1" eight.denom
EndChar
StartChar: greater
Encoding: 62 62 333
Width: 533
Flags: HW
LayerCount: 2
Fore
SplineSet
146.30078125 424 m 1
 234.677734375 517.96875 l 1
 534.690429688 276.116210938 l 1
 116.71484375 41 l 1
 90.81640625 107.6328125 l 1
 349.549804688 252.787109376 l 1
 146.30078125 424 l 1
EndSplineSet
Position2: "'case' vertical ajustments for all-caps-1" dx=0 dy=90 dh=0 dv=0
EndChar
StartChar: question
Encoding: 63 63 74
Width: 394
Flags: HW
LayerCount: 2
Fore
SplineSet
172.319335938 528.322265625 m 1
 178.55859375 545.481445312 182.945312499 558.983398438 185.924804688 572.993164062 c 0
 203.621093749 656.252929686 183.940429688 681.127929688 187.515624999 697.950195312 c 0
 189.26171875 706.159179688 198.968749999 717.86328125 232.234374999 721.326171875 c 1
 250.947265625 689.326171875 276.717773436 689.326171875 315.869140625 689.326171875 c 3
 432.621093749 689.326171875 507.967773438 584.067382812 484.604492188 474.154296875 c 0
 463.942382812 376.940429688 400.178710938 306.881835938 370.241210938 274 c 0
 283.148451831 244.215545652 261.889648438 256.699218749 258.916015625 215 c 1
 258.916015625 215 229.100585938 203.982421875 185.45703125 203.982421875 c 1
 175.077148438 211.708984376 169 240.89453125 175.844726562 273.09375 c 0
 183.512695312 309.170898438 204.931640625 355.770507812 234.496093751 375 c 0
 290.510742188 402.608398438 390.721679686 355.16015625 409.671874999 444.30859375 c 0
 422.111328124 502.83203125 373.379882812 535.364257812 257.678710938 535.364257812 c 3
 230.960937499 535.364257812 202.157226562 532.935546875 172.319335938 528.322265625 c 1
EndSplineSet
Refer: 48 46 N 1 0 0 1 65.5254 0 2
Position2: "cpsp-1" dx=0 dy=0 dh=50 dv=100
Substitution2: "smcp-1" question.smcp
Substitution2: "pcap-1" question.pcap
EndChar
StartChar: at
Encoding: 64 64 874
Width: 838
Flags: W
HStem: -173.741 73.3281<322.189 543.78> 13.8896 82.458<489.908 602.701> 19.8887 86.4619<278.361 377.836> 477.609 20G<566.224 639.459> 620.438 64.5283<341.011 570.455>
VStem: 18.5762 100.028<101.206 358.006> 195.948 110.668<118.538 238.056> 731.096 84.877<256.505 464.304>
LayerCount: 2
Fore
SplineSet
618.203125 427.319335938 m 1xbf
 590.682617188 356.012695312 567.024414062 272.900390625 552.802734375 195.2890625 c 0
 548.50390625 171.827148438 546.122070312 145.194335938 546.122070312 135.321289062 c 3
 546.122070312 107.881835938 553.170898438 96.34765625 565.099609375 96.34765625 c 3
 578.625976562 96.34765625 610.38671875 110.115234375 653.54296875 151.224609375 c 0
 702.526367188 197.884765625 734.456054688 269.311523438 753.145507812 357.23828125 c 4
 789.317382812 527.4140625 679.889648438 620.438476562 530.16796875 620.438476562 c 7
 319.618164062 620.438476562 160.821289062 452.116210938 110.7265625 216.438476562 c 4
 70.2958984375 26.2255859375 194.966796875 -100.413085938 354.651367188 -100.413085938 c 7
 483.88671875 -100.413085938 611.903320312 -38.2001953125 708.459960938 47.7666015625 c 1
 722.8515625 34.9677734375 730.969726562 27.748046875 745.361328125 14.94921875 c 1
 643.865234375 -81.8154296875 480.70703125 -173.741210938 325.958984375 -173.741210938 c 7
 125.0390625 -173.741210938 -40.279296875 -23.3916015625 10.6982421875 216.438476562 c 4
 65.6259765625 474.852539062 314.602539062 684.966796875 565.883789062 684.966796875 c 7
 738.184570312 684.966796875 881.170898438 560.233398438 838.723632812 360.5390625 c 4
 813.713867188 242.875976562 726.400390625 147.876953125 672.383789062 100.206054688 c 0
 625.365234375 58.7109375 569.583007812 13.8896484375 519.184570312 13.8896484375 c 3xdf
 460.630859375 13.8896484375 443.391601562 53.306640625 448.497070312 93.8720703125 c 1
 405.141601562 52.0556640625 347.629882812 19.888671875 313.123046875 19.888671875 c 3
 243.599609375 19.888671875 195.948242188 68.6171875 195.948242188 127.10546875 c 3
 195.948242188 261.28515625 291.228515625 386.209960938 377.918945312 427.131835938 c 0
 418.188476562 446.140625 467.838867188 450.052734375 533.553710938 464.948242188 c 0
 546.93359375 467.981445312 561.129882812 483.615234375 566.223632812 493.659179688 c 1
 643.852539062 497.609375 l 1
 635.065429688 473.868164062 626.836914062 450.647460938 618.203125 427.319335938 c 1xbf
499.8359375 399.030273438 m 1
 493.870117188 401.009765625 477.76171875 402.990234375 472.392578125 402.990234375 c 3
 442.759765625 402.990234375 409.14453125 381.688476562 388.2734375 364.310546875 c 0
 347.942382812 330.73046875 306.616210938 262.802734375 306.616210938 172.883789062 c 3
 306.616210938 137.708007812 323.34375 106.350585938 365.03515625 106.350585938 c 3xbf
 391.770507812 106.350585938 427.993164062 132.44140625 452.141601562 157.565429688 c 1
 463.313476562 203.2734375 477.748046875 255.158203125 490.126953125 305.318359375 c 0
 496.936523438 332.911132812 504.180664062 362.430664062 504.180664062 381.614257812 c 3
 504.180664062 389.778320312 502.923828125 395.943359375 499.8359375 399.030273438 c 1
EndSplineSet
Position2: "'case' vertical ajustments for all-caps-1" dx=0 dy=160 dh=0 dv=0
Position2: "cpsp-1" dx=0 dy=0 dh=50 dv=100
EndChar
StartChar: A
Encoding: 65 65 26
Width: 715
Flags: HMW
HStem: -177 78.1279<-199.919 -98.3319> 0.542969 50.457<-136.281 -117.822>
VStem: -272.816 98.4385<-124.671 -35.1372>
AnchorPoint: "Top" 523.525 679 basechar 0
AnchorPoint: "Ogonek" 446.622 23 basechar 0
AnchorPoint: "Bottom" 276.622 -15 basechar 0
LayerCount: 2
Fore
SplineSet
263.75390625 236 m 1
 292.06640625 234 387.184570312 238 413.690429688 242 c 1
 412.823242188 293.333007812 412.25839044 372.666666667 411.451171876 428 c 1
 376.564653066 380.094117647 303.10546875 290.525390625 263.75390625 236 c 1
378.333984375 -9 m 1
 378.219726562 -9 374.848632812 70.875 374.9375 72 c 1
 397 74 417.413085938 82.92578125 417.1015625 100 c 0
 416.409179688 137.995117188 416.78515625 127.056640625 417 166 c 1
 359.67578125 167.333007812 298.500976562 170.666992188 223 172 c 1
 211.981445312 150.6875 202 129 197.728515625 117 c 0
 188.575195312 91.28515625 205.432617188 75.6875 233.0625 76 c 1
 224.758789062 -8 l 1
 195.321289062 -1 109.997070312 1 74.671875 1 c 3
 37.83203125 1 0.9931640625 0 -30.1787109375 -3 c 1
 -30.64453125 16.125 -31.109375 42 -31.5751953125 69 c 1
 32.451171875 84.7777777778 37.7675634784 94.2346794927 40.0771484375 97 c 0
 206.241210938 295.952148438 333.784704399 461.872418845 439.780273438 599 c 0
 472.998993715 641.975407387 467.256524167 650 481.91015625 689 c 1
 567.91015625 689 l 1
 564.539671906 653 553.652015698 645.314055534 554.993164062 600 c 0
 559.576171875 387 560.710047982 276.245028335 567.463867188 80 c 0
 567.981373749 71.0951769847 603.85858445 68.6666666667 621 66 c 1
 618.258843522 47.0491803279 612.775336165 19.1803278689 610.034179688 -2 c 1
 573.283203125 -1 538.829101562 1 506.671875 1 c 3
 477.979492188 1 407.026367188 0 378.333984375 -9 c 1
EndSplineSet
Position2: "cpsp-1" dx=0 dy=0 dh=50 dv=100
Substitution2: "c2pc-1" a.pcap
Substitution2: "c2sc-1" a.smcp
EndChar
StartChar: B
Encoding: 66 66 27
Width: 640
Flags: HMW
HStem: -4 38<-2.97646 72.9443 168.149 346.524> 349 30<239.024 374.228> 653 41<166.024 213.337 316.608 437.009>
AnchorPoint: "Top" 376.525 679 basechar 0
AnchorPoint: "Bottom" 249.415 -15 basechar 0
LayerCount: 2
Fore
SplineSet
-1.2939453125 82 m 1
 39.7806008443 72 89.0246853961 81.2928382761 88.5556640625 80 c 0
 92.3853368687 88.625 111.022731118 176.691201728 134.467773438 287 c 0
 166.235072989 436.450303289 188.533473009 569.549791998 182.1484375 583 c 0
 178.262863814 590.997763561 185.326713836 597.894942224 174.548828125 599 c 0
 159.394666913 599.428571429 121.858116583 601.142857143 108.037109375 602 c 1
 146.127929688 691 l 1
 177.484938676 685.583333333 186.401269813 678 256.578125 678 c 3
 298.578125 678 333.703125 688 375.703125 688 c 3
 523.703125 688 596.398494947 616 573.868164062 510 c 0
 559.4140625 442 524.723632812 387 453.834960938 364 c 1
 567.008463542 346 606.915899476 275.000232259 588.212890625 187 c 0
 563.130859375 69 433.827148438 -3 283.827148438 -3 c 3
 224.827148438 -3 184.889648438 2 118.889648438 2 c 3
 34.9200808988 2 23.0101785655 -0.4 -12.1728515625 -2 c 1
 -1.2939453125 82 l 1
290.598632812 377 m 3
 363.290489663 377 377.141096818 392.556574627 392.109375 451 c 0
 406.002576652 508.334623005 406.498046876 609 344.498046876 609 c 3
 347.166896757 609 362.063065584 611.139255224 369.973632812 606 c 0
 364.467534999 598.657895402 350.284265248 552.088501792 348.258789062 553 c 0
 320.280614535 482.099261048 309.1875 404.836734694 303.598632812 377 c 1
 293.750147963 377 294.931966145 377 290.598632812 377 c 3
337.482421875 320 m 3
 327.307524863 320 298.545858126 314 289.844726562 315 c 1
 270.638840015 220.734782609 254.29684869 148.982910512 243.95703125 96 c 0
 241.548837869 76.888290097 242.493164062 75 255.493164062 75 c 0
 264.625501719 75 312.777827551 79 345.986328124 79 c 3
 377.838928586 79 399.89609615 100 417.125 185 c 0
 436.301901638 277 326.96484375 320 337.482421875 320 c 3
EndSplineSet
Position2: "cpsp-1" dx=0 dy=0 dh=50 dv=100
Substitution2: "c2pc-1" b.pcap
Substitution2: "c2sc-1" b.smcp
EndChar
StartChar: C
Encoding: 67 67 28
Width: 726
Flags: HW
HStem: -16 75<283.952 490.565> 616 72<372.172 586.699>
VStem: 640.502 71.5645<501.031 572.494>
AnchorPoint: "Top" 502.525 679 basechar 0
AnchorPoint: "Bottom" 341.925 -15 basechar 0
LayerCount: 2
Fore
SplineSet
53.130859375 320 m 0
 92.029296875 503 254.352539062 688 502.352539062 688 c 3
 570.352539062 688 598.595361725 679.562148293 655.038085938 663 c 0
 688.125 654 689.762695312 661 713.100585938 668 c 1
 758 644 l 1
 723.583984375 595 720.649568038 577.207027772 712.067382812 522 c 0
 709.83203125 496 677.4296875 478 636.005859376 464 c 1
 587.413389096 498.516853933 611.009637861 511.772279414 598.83984375 528 c 0
 560.257562808 586.079713456 524.986203284 600 467.095703124 600 c 3
 356.44053189 600 266.884765624 520 233.7890625 353 c 0
 197.339044719 170.648294934 322.30859375 79 395.30859375 79 c 3
 480.247539275 79 553.564453124 112 616.625 200 c 1
 670.6484375 186 l 1
 653.80859375 135 626.15625 99 601.166015625 52 c 1
 527.7265625 17 457.711914062 -16 366.711914062 -16 c 3
 139.711914062 -16 10.8344833674 120.999686362 53.130859375 320 c 0
EndSplineSet
Position2: "cpsp-1" dx=0 dy=0 dh=50 dv=100
Substitution2: "c2pc-1" c.pcap
Substitution2: "c2sc-1" c.smcp
EndChar
StartChar: D
Encoding: 68 68 29
Width: 789
Flags: HW
HStem: -9 69<4.87891 76.5235> -5 73<162.774 445> 613 71<134.02 188.05 306.416 497.293>
VStem: 649.261 110.319<265.571 470.041>
AnchorPoint: "Top" 430.525 679 basechar 0
AnchorPoint: "Bottom" 370.183 -15 basechar 0
LayerCount: 2
Fore
SplineSet
355.16015625 85 m 3
 604.921414774 85 594.521484376 244.014827705 594.521484376 342.625 c 3
 594.521484376 546.582422277 420.20751135 597 335.546875 597 c 3
 319.122538168 597 329.317101377 593.60822934 366.044921876 575 c 0
 353.578446608 561.535599226 348.503573885 557.98523936 347.368164062 553 c 0
 331.324348723 500.941176471 313.0111821 444.980081148 300.202148438 388 c 0
 278.886362639 293.380895911 265.664058063 212.161243332 262.850585938 133 c 0
 262.906225626 123.848305553 258.449043112 126.316926058 272.662109376 118 c 0
 295.209646244 98.2 331.425041936 85 355.16015625 85 c 3
131.08984375 682 m 1
 179.87498698 678 201.758126248 674 250.388671875 674 c 1
 324.922851562 674 366.60546875 684 439.365234375 684 c 3
 571.297851562 684 759.580078125 605.03125 759.580078125 396.599609375 c 3
 759.580078125 90.81640625 475.505859375 -5 293.063476562 -5 c 3
 224.063476562 -5 188.55078125 2 115.55078125 2 c 3
 76.2698634338 2 47.9900493693 -0.181818181818 -5 -10 c 1
 -3.2421875 70 l 1
 59.4391006195 85.4107142857 88.5635397827 100.571068543 93.63671875 125 c 0
 101.150310587 155.430875105 110.207040306 197.8455221 118.926757812 239 c 0
 149.167735476 381.581967213 177.677382024 524.909642919 187.4453125 594 c 0
 188.881070663 599.02927884 145.92095768 594.6 117.5078125 591 c 1
 131.08984375 682 l 1
EndSplineSet
Position2: "cpsp-1" dx=0 dy=0 dh=50 dv=100
Substitution2: "c2pc-1" d.pcap
Substitution2: "c2sc-1" d.smcp
EndChar
StartChar: E
Encoding: 69 69 30
Width: 648
Flags: HW
HStem: -14 65<25.7609 84.9054> 1 76<197.774 476.37> 306 69<256.233 424.226> 612 67<152.125 197.482 303.444 509.41> 667 20G<578.36 597.063>
VStem: 430.32 65.041<262.709 305.992> 524.092 60.0625<531 601.873>
AnchorPoint: "Top" 408.525 679 basechar 0
AnchorPoint: "Ogonek" 451.421 23.6582 basechar 0
AnchorPoint: "Bottom" 265.554 -15 basechar 0
LayerCount: 2
Fore
SplineSet
152.130859375 684 m 1
 215.493164062 681 326.267578125 679 422.267578125 679 c 3
 498.904296875 679 568.961914062 681 587.768554688 687 c 1
 606.368164062 671 612.09495688 659.818476698 608.266601562 647 c 0
 605.94921875 629 593.352539062 593 584.16015625 531 c 1
 520.09765625 525 l 1
 522.974023032 549.459770115 473.907796043 573.653211675 466.401367188 579 c 0
 438.078556465 594.824886793 399.720284988 601 360.654296876 601 c 3
 344.181658208 601 380.184768212 598.263789113 366.228515626 596 c 0
 358.07669462 593.902887797 351.278420663 592.021837402 349.041015626 581 c 0
 332.42366895 509 320.771758106 447 304.23828125 380 c 1
 339.430243766 383.428571429 412.658221292 378.020013886 416.509765625 380 c 0
 422.616210938 381.944444444 426.1953125 400.777777778 440.633789062 431 c 1
 515.237304688 416 l 1
 503.798828125 384 497.576160732 356.999896277 494.3515625 327 c 0
 492.203125 307 492.946289062 288 495.3671875 264 c 1
 418.65234375 249 l 1
 402.931405187 288.018518519 417.278484072 298 408.420898436 298 c 0
 382.135833959 296 328.168435604 294 285.14453125 298 c 1
 269.772724507 223.014285714 255.519812662 167.10239586 248.87109375 117 c 0
 245.682617186 102 252.256835936 100 258.256835936 100 c 0
 314.895831295 100 350.388882371 97 401.21875 97 c 3
 397.628193379 97 392.641569919 102.099695222 391.068359376 103 c 0
 445.704128454 106.651017059 485.143216585 145 528.6015625 166 c 1
 585.712890625 141 l 1
 557.747070312 80 543.858398438 57 519.7421875 0 c 1
 428.104492188 -3 332.955078125 1 241.955078125 1 c 3
 161.955078125 1 89.7421875 0 25.7666015625 -14 c 1
 24.5830078125 59 l 1
 66.6007630835 68.6666666667 89.5677406713 82.3333333333 91.3671875 94 c 1
 98.9366371555 128.335793358 122.363434688 233.45255246 146.287109375 346 c 0
 173.494140625 474 192.875139068 568.938853297 195.701171875 581 c 0
 197.955414749 591.406674472 152.9765625 590 140.614257812 595 c 1
 152.130859375 684 l 1
EndSplineSet
Position2: "cpsp-1" dx=0 dy=0 dh=50 dv=100
Substitution2: "c2pc-1" e.pcap
Substitution2: "c2sc-1" e.smcp
EndChar
StartChar: F
Encoding: 70 70 31
Width: 605
Flags: HW
HStem: -10 74<13.8517 77.0468 191.991 273.113> 299 68<247.257 395.703> 606 70<143.999 188.643 292.42 515.408>
VStem: 399.286 73.8262<244 297.486>
AnchorPoint: "Bottom" 136.011 -15 basechar 0
AnchorPoint: "Top" 383.525 679 basechar 0
LayerCount: 2
Fore
SplineSet
270.903320312 -11 m 1
 222.603515625 -3 181.454101562 1 135.454101562 1 c 3
 93.4541015625 1 52.81640625 -2 11.1162109375 -10 c 1
 13.8447265625 81 l 1
 32.7232036552 79 69.0531316514 85 73.30859375 102 c 1
 77.8834548554 122.909090909 88.0404341409 162.880762081 99.3662109385 217 c 0
 128.12559954 354.087855297 167.975688817 530.065126809 176.251953124 588 c 0
 176.965685122 591.721421873 151.851732015 589.5 113.952148438 598 c 1
 143.9921875 681 l 1
 196.354492188 678 281.9296875 676 366.9296875 676 c 3
 467.9296875 676 567.567382812 679 590.180664062 696 c 1
 617.842773438 685 617.917076634 667.006033938 616.490234375 641 c 0
 613.98828125 601 612.374023438 584 603.74609375 534 c 1
 534.62109375 514 l 1
 486.778044645 507.630136986 481.680940001 561.105217975 456.275390624 569 c 0
 428.819109117 586.865278829 381.133046458 599 341.05078125 591 c 0
 338.05078125 591 334.386729342 584.038830376 332.224609375 573 c 0
 316.746202197 502.968325792 305.808363538 436.574660633 291.25 372 c 1
 333.211090771 374 378.847869674 369 384.82421875 369 c 0
 396.743156481 369 406.181012398 383.814814815 428.302734375 419 c 1
 508.96484375 408 l 1
 493.80078125 379 484.273437501 353 478.747070312 327 c 0
 473.220703125 301 472.694335938 275 473.10546875 244 c 1
 380.279296875 217 l 1
 362.97562164 268.708333333 385.914136279 290.22159741 367.583007812 290 c 0
 349.641390708 291 316.882545192 290 276.795898438 291 c 1
 259.198047087 200.545454545 244.535437334 148.08688238 244.033203125 92 c 0
 244.111354376 81.0827150049 244.866310216 72.64 313.81640625 95 c 1
 270.903320312 -11 l 1
EndSplineSet
Position2: "cpsp-1" dx=0 dy=0 dh=50 dv=100
Substitution2: "c2pc-1" f.pcap
Substitution2: "c2sc-1" f.smcp
EndChar
StartChar: G
Encoding: 71 71 32
Width: 775
Flags: HW
HStem: -12 70<307.754 514.134> 284 70<474.622 542.184> 299 65<687.468 732.93> 617 71<377.052 606.935>
AnchorPoint: "Top" 511.525 679 basechar 0
AnchorPoint: "Bottom" 350.514 -15 basechar 0
LayerCount: 2
Fore
SplineSet
52.3623046875 334 m 0
 96.57421875 542 306.607421875 688 515.607421875 688 c 1
 564.588155494 688 593.176879517 677.252217959 631.162109376 664 c 0
 661.373605918 654.034554512 652.947126065 678.952380952 667.544921875 683 c 1
 736.607421875 688 l 1
 744 544 l 1
 675.921875 516 l 1
 654.375 495 710.979407729 602 470.300781249 602 c 3
 325.51934487 602 273.74810091 518.233463035 248.77734375 395 c 1
 203.804702962 184.718543046 313.547483785 72 471.39453125 72 c 1
 521.779048755 72 473.943300578 74.8684526009 479.07421875 100 c 0
 480.856635809 103.312970839 485.576944563 106.996689656 486.412109375 111 c 0
 493.926475346 147.284023669 509.327192456 194.622320233 518.333984375 257 c 0
 520.373720369 268.39438381 524.993787404 270 540.522460938 272 c 0
 511.734375 274 488.309570312 269 456.734375 270 c 1
 474.614257812 354 l 1
 573.063476562 342 679.826171875 355 740.739257812 364 c 1
 730.922851562 292 l 1
 717.748508704 292.666666667 689.038501932 287.643499758 687.459960938 278 c 0
 668.879882812 200 658.636085882 151.787462973 645.19921875 98 c 0
 643.07421875 88 648.861328125 87 668.735351562 77 c 1
 654.170898438 32 l 1
 569.194335938 18 443.818359375 -12 376.818359375 -12 c 1
 162.818359375 -12 7.72588241338 123.999936982 52.3623046875 334 c 0
EndSplineSet
Position2: "cpsp-1" dx=0 dy=0 dh=50 dv=100
Substitution2: "c2pc-1" g.pcap
Substitution2: "c2sc-1" g.smcp
EndChar
StartChar: H
Encoding: 72 72 33
Width: 795
Flags: HW
HStem: -7 76<-5.11286 73.3043 188.362 225.573 541.478 601.036 712.992 751.423> 0 69<-5.07228 73.3043> 311 68<248.135 651.894> 615 72<136.629 180.21 305.874 366.087 672.524 708.998> 623 70<828.856 890.879>
AnchorPoint: "Top" 494.525 679 basechar 0
AnchorPoint: "Bottom" 347.664 -15 basechar 0
LayerCount: 2
Fore
SplineSet
138.603515625 687 m 1
 180.903320312 679 222.83984375 674 266.83984375 674 c 3
 305.824907959 674 345.78527062 678 391.965820312 684 c 1
 379.086914062 602 l 1
 394.564528757 604.142857143 358.447938092 598.428571429 352.598632812 597 c 1
 341.820012637 561.666666667 313.122288953 470.543859649 291.135742188 385 c 1
 564.135742188 385 l 1
 576.22831143 446.368421053 591.869375631 585.305939753 601.598632812 597 c 0
 601.179079604 601.490596852 568.371947921 609.933333333 579.724609375 603 c 1
 605.390625 686 l 1
 641.588442185 681 671.612673318 677 701.477539062 677 c 3
 738.616767246 677 776.633498353 681 831.87890625 693 c 1
 832 611 l 1
 831.518083105 607.5 785.263196348 610.501680381 781.024414062 600 c 0
 747.257501444 492.074081804 714.020769091 356.198084301 687.890625 232 c 0
 675.129094784 171.192301615 667.012247128 117.243459641 666.58203125 99 c 0
 666.605338835 90.7734611374 709.276790916 86 721.668945312 95 c 1
 721.668945312 95 687.401070327 -5.69230769231 687.088867188 -7 c 1
 647.15234375 -2 608.577148438 0 569.577148438 0 c 3
 537.095250659 0 503.070674205 -2 464.876953125 -8 c 1
 466.340820312 17.5405405405 467.8671875 49.1621621622 470.60546875 82 c 1
 464.950612922 77 492.101945646 85.1220805301 497.219726562 99 c 0
 522.729042533 176.737991266 532.589083216 229.165938865 547.89453125 306 c 1
 278.682617188 305 l 1
 263.550635264 233.000005579 240.11353032 148.134344499 236.793945312 98 c 0
 233.319040109 72.2386468815 306.137943128 79.3767065794 266.03125 91 c 1
 266.03125 91 231.977170444 -7.7012987013 231.6640625 -9 c 1
 184.926220515 -3 146.058048222 0 107.577148438 0 c 3
 67.6198700095 0 28.2674136672 -2 -14.9111328125 -7 c 1
 -14.9111328125 -7 -10.2838973246 85.5 -9.7568359375 88 c 1
 -12.9759551143 81 59.834428847 81.5161699226 61.5185546875 89 c 0
 94.4845761479 200.746358083 124.222809056 344.138034071 148.991210938 463 c 0
 162.443562991 527.748201439 166.613635302 576.35251012 165.072265624 588 c 0
 164.488305892 598.615384615 117.557120175 607.615384615 109.299804688 597 c 1
 138.603515625 687 l 1
EndSplineSet
Position2: "cpsp-1" dx=0 dy=0 dh=50 dv=100
Substitution2: "c2pc-1" h.pcap
Substitution2: "c2sc-1" h.smcp
EndChar
StartChar: I
Encoding: 73 73 34
Width: 468
Flags: HW
HStem: -8 72<21.1543 135.108 251.546 328.766> 0 65<21.1543 136.117> 616 76<164.387 246.087 370.84 467.21>
AnchorPoint: "Top" 320.525 679 basechar 0
AnchorPoint: "Ogonek" 173.623 23 basechar 0
AnchorPoint: "Bottom" 156.282 -15 basechar 0
LayerCount: 2
Fore
SplineSet
166.427734375 692 m 1
 216.876953125 680 265.814453125 675 316.814453125 675 c 3
 371.569616798 675 429.841340271 681.428571429 491.790039062 690 c 1
 470.209960938 592 l 1
 496.60669989 605.5 403.370634089 598.718526812 404.78515625 605 c 0
 369.773289702 530.920245399 342.540103736 427.177363135 312.4921875 283 c 0
 299.014507435 218.222748815 289.62127273 156.652538861 281.642578125 82 c 0
 281.488179848 81.3310845798 313.333048326 70 358.942382812 81 c 1
 327.637695312 -8 l 1
 278.125976562 -1 225.337890625 0 174.337890625 0 c 3
 116.268133536 0 58.7948309475 -2.36363636364 6 -13 c 1
 22.154296875 84 l 1
 22.734375 67 102.820252347 72.3882925965 107.280273438 85 c 0
 128.67243756 161.889369841 152.363167233 259.905010332 173.284179688 362 c 0
 193.783543044 462.051069311 206.82313898 544.501316676 213.360351562 601 c 0
 212.896587628 598.4737472 111.12109375 611 134.2734375 593 c 1
 166.427734375 692 l 1
EndSplineSet
Position2: "cpsp-1" dx=0 dy=0 dh=50 dv=100
Substitution2: "c2pc-1" i.pcap
Substitution2: "c2sc-1" i.smcp
EndChar
StartChar: K
Encoding: 75 75 36
Width: 742
Flags: HW
HStem: -9 60<414.205 452.517 589.551 644.272> -8 65<9.5443 74.8976 185.485 228.015> 618 68<149.336 189.979 304.897 364.725 529.326 549.67>
AnchorPoint: "Top" 445.525 679 basechar 0
AnchorPoint: "Bottom" 291.319 -15 basechar 0
LayerCount: 2
Fore
SplineSet
531.116210938 681 m 1
 549.265625 677 566.840820312 675 584.840820312 675 c 3
 626.840820312 675 671.116210938 681 718.454101562 692 c 1
 719 612 l 1
 687.875 607 638.236113802 590.468285324 621.7734375 578 c 0
 542.74383601 514.742468581 449.626023344 446.304025424 372.046875 370 c 1
 598.345703125 99 l 1
 646.90993074 73.7916666667 665.047502917 56.625 665.142578125 49 c 1
 641.665039062 -8 l 1
 609.514648438 -4 579.577148438 1 543.577148438 1 c 3
 489.577148438 1 459.514648438 -4 411.452148438 -9 c 1
 414.205078125 54 l 1
 415.223750867 55.2222222222 444.843282831 62.5555555556 432.118164062 65 c 1
 421.382126875 76.0041493776 312.386247754 211.721991701 252.689453124 286 c 1
 239.592121388 219.445945946 225.365491268 131.167207297 219.157226562 89 c 0
 218.168356149 83.1081058054 230.459524833 62 259.48046875 67 c 1
 225.665039062 -8 l 1
 185.940429688 -2 149.577148438 1 106.577148438 1 c 3
 75.5771484375 1 42.15234375 -1 1.08984375 -6 c 1
 10.5439453125 71 l 1
 45.3314518428 68 59.2109972505 64.0655547894 58.96875 64 c 0
 85.241068234 168.909328966 112.121623408 275.371699081 134.836914062 388 c 0
 149.295645473 460.155424204 163.342862793 516.734997838 169.624023438 584 c 0
 171.824088287 613.200598104 166.877657431 616 121 614 c 1
 152.178710938 686 l 1
 187.69140625 679 222.053710938 676 257.053710938 676 c 3
 295.053710938 676 331.903320312 680 371.178710938 686 c 1
 363.724609375 608 l 1
 349.372498611 608.857142857 345.375182295 604.071428571 344.749023438 597 c 1
 321.945883933 519 288.245480332 441 272.59765625 362 c 1
 347.580555451 432.34562212 437.411224006 505.587017098 517.922851562 577 c 0
 535.583033593 593.894603476 543.174804688 597 548.024414062 601 c 0
 548.024414062 601 526.875 605 511.724609375 609 c 1
 531.116210938 681 l 1
EndSplineSet
Position2: "cpsp-1" dx=0 dy=0 dh=50 dv=100
Substitution2: "c2pc-1" k.pcap
Substitution2: "c2sc-1" k.smcp
EndChar
StartChar: M
Encoding: 77 77 38
Width: 897
Flags: HW
HStem: -13 74<587.152 658.478> -11 74<-20.4225 48.6417 134.281 171.631 767.102 814.602> -3 21G<342.548 418.437> 610 72<856.357 938.846> 614 79<132.848 170.627>
AnchorPoint: "Top" 549.525 679 basechar 0
AnchorPoint: "Bottom" 375.285 -15 basechar 0
LayerCount: 2
Fore
SplineSet
818.84765625 -12 m 1
 781.651068228 -3.27272727273 742.281154788 0 701.185546875 0 c 3
 657.697716938 0 612.285027129 -3.46153846154 560.422851562 -15 c 1
 569.151367188 74 l 1
 590.481863296 85.4333333333 631.967255148 97.800414188 637.528320312 111 c 0
 681.196330582 241.84904434 699.159862362 389.465753425 714.627929688 507 c 1
 632.872102771 376.406483791 545.554786116 256.34972351 464.393554688 128 c 0
 439.873969718 90.3832187307 430.451614486 51 399.547851562 -3 c 1
 320.547851562 -3 l 1
 328.475585937 39 320.768896112 72.8233918073 313.48046875 119 c 0
 292.191001501 276.591240876 229.358416206 507.313868613 243.681640624 500 c 1
 203.307319938 388.841346154 175.959402037 252.157104803 157.631835938 133 c 0
 147.485841005 76.5974441295 143.618164063 100 212.4296875 85 c 1
 169.272460938 -9 l 1
 139.760742188 -2 105.185546875 0 67.185546875 0 c 3
 37.185546875 0 4.9736328125 -1 -28.15234375 -11 c 1
 -20.4228515625 77 l 1
 32.7914953906 82.9084249084 57.7614777126 120.618131868 55.8662109375 126 c 1
 56.2619084395 127.803571429 160.302216997 526.392857143 161.091796875 530 c 1
 164.9609375 537 165.0390625 570 153.932617188 581 c 0
 145.785719759 588.260929036 140.123178501 602.538461538 89.6953125 588 c 1
 135.487304688 693 l 1
 208.669801615 681.266666667 291.666781685 674.866666667 367.298828125 677 c 1
 398.51171875 678 398.388779262 653.22814959 397.34765625 649 c 0
 386.050850398 506.358490566 418.693307076 366.358490566 461.958007812 229 c 1
 416.881168208 167 758.859659921 692.433142171 731.473632812 660 c 0
 740.172760984 675.003699476 756.67186405 685.131964544 773.149414062 682 c 0
 843.787297134 671.5 899.593494344 680.5 967 688 c 1
 958.845703125 592 l 1
 907.247522986 589.570135747 878.821611109 606.280315079 873.08203125 581 c 0
 830.87537421 424.704089254 821.206638202 278.717577026 787.465820312 106 c 0
 783.134997651 88.3663562194 800.901230579 82.0454545455 845.639648438 91 c 1
 818.84765625 -12 l 1
EndSplineSet
Position2: "cpsp-1" dx=0 dy=0 dh=50 dv=100
Substitution2: "c2pc-1" m.pcap
Substitution2: "c2sc-1" m.smcp
EndChar
StartChar: N
Encoding: 78 78 39
Width: 804
Flags: HW
HStem: -13 81<-14.0226 52.1468 142.606 221.01> 0 74<-14.0226 53.8555> 610 68<117.638 153.19 800.19 867.121> 615 76<643.808 711.053>
VStem: 599.06 74.4639<6 47.7811>
AnchorPoint: "Top" 508.525 679 basechar 0
AnchorPoint: "Bottom" 364.689 -15 basechar 0
LayerCount: 2
Fore
SplineSet
117.637695312 684 m 1
 148.333982881 684 209.583335324 674 250.51171875 674 c 0
 275.51171875 674 278.565038148 660.860479184 282.685546875 656 c 0
 375.153467016 507.206521739 470.282209709 399.891304348 638.8203125 271 c 1
 656.877426194 341.471910112 671.799242674 382.350379088 687.662109375 463 c 0
 691.359512575 481.951645269 693.698956182 500.595025105 697.2421875 518 c 0
 719.912631254 634.121621622 633.165291114 595.662162162 594.970703125 593 c 1
 633.125 692 l 1
 695.695379777 681.230769231 750.143561735 678 806.362304688 678 c 3
 827.362304688 678 849.57421875 679 873 681 c 1
 867.12109375 597 l 1
 849.326555463 592.5 817.69283891 606.548613727 817.908203125 607 c 0
 756.327697125 432.504052572 722.690173892 288.523495199 681.016601562 93 c 0
 675.27734375 66 675.413085938 29 676.524414062 6 c 1
 581.060546875 -20 l 1
 571.815756066 29.9834710744 540.713667682 67.4518345882 510.779296875 106 c 0
 419.504101248 215.346938776 329.573572909 304.530612245 228.203125 410 c 1
 227.089741618 404.583569405 177.422994358 167.114046955 175.138671876 171 c 1
 144.813028138 58.4025974026 210.186616328 84 275.702148438 92 c 1
 225.485351562 -13 l 1
 185.001662966 -4 144.451541303 0 107.249023438 0 c 3
 65.2490234375 0 24.185546875 -5 -22.08984375 -11 c 1
 -14.0224609375 101 l 1
 31.552734375 90.9090909091 44.4772491709 78.3030159733 52.31640625 107 c 0
 85.9873346396 212.34218338 108.202914533 320.307059348 128.691406249 430 c 0
 136.20354388 468.985806875 139.963574924 489 146.458984376 523 c 1
 146.985351563 527 125.637695313 599 85.5751953125 580 c 1
 117.637695312 684 l 1
EndSplineSet
Position2: "cpsp-1" dx=0 dy=0 dh=50 dv=100
Substitution2: "c2pc-1" n.pcap
Substitution2: "c2sc-1" n.smcp
EndChar
StartChar: O
Encoding: 79 79 40
Width: 792
Flags: HW
HStem: -16 72<298.355 470.896> 616 73<363.638 534.949>
AnchorPoint: "Top" 488.525 679 basechar 0
AnchorPoint: "Horn" 650.274 595 basechar 0
AnchorPoint: "Middle" 413.009 358 basechar 0
AnchorPoint: "Ogonek" 392.009 10 basechar 0
AnchorPoint: "Bottom" 345.837 -15 basechar 0
LayerCount: 2
Fore
SplineSet
408.3671875 600 m 3
 327.87466915 600 284.530953849 568.875825392 257.466796876 440 c 0
 226.790039064 293.812418629 258.34249662 72 418.3046875 72 c 3
 518.341375464 72 569.075714775 152.242984816 585.7578125 254 c 0
 614.563343363 411.203761755 540.414170704 600 408.3671875 600 c 3
488.200195312 689 m 3
 677.200195312 689 819.527800976 540.000317963 774.680664062 329 c 0
 732.59375 131 534.348632812 -16 347.348632812 -16 c 3
 175.348632812 -16 4.00497069674 99.99998132 53.10546875 331 c 0
 96.0419921875 533 298.200195312 689 488.200195312 689 c 3
EndSplineSet
Position2: "cpsp-1" dx=0 dy=0 dh=50 dv=100
Substitution2: "c2pc-1" o.pcap
Substitution2: "c2sc-1" o.smcp
EndChar
StartChar: P
Encoding: 80 80 41
Width: 640
Flags: HW
HStem: -15 69<10.5919 70.0803> -11 73<188.42 252.447> 198 68<222.074 387.602> 205 67<221.441 257.048> 609 72<130.403 174.095> 618 68<287.061 456.836>
AnchorPoint: "Top" 396.525 679 basechar 0
AnchorPoint: "Bottom" 143.699 -15 basechar 0
LayerCount: 2
Fore
SplineSet
301.793945312 278 m 1
 388.608110064 278 460.927734376 353 472.73828125 427 c 1
 481.794921876 471 459.198198626 550.794360068 434.056640624 578 c 0
 412.07170113 595.294133903 364.216060935 603.487329201 329.982421876 605 c 0
 326.530379366 605.857142857 322.423020667 594.620049808 322.015625 593 c 0
 309.929127411 526.286144578 286.049374317 388.990963855 259.447265625 272 c 1
 276.014586929 269 270.195233778 278 301.793945312 278 c 1
132.3828125 681 m 1
 161.532226562 677 177.107421875 675 218.107421875 675 c 1
 293.107421875 675 325.4453125 686 398.4453125 686 c 1
 563.4453125 686 656.213867188 572 629.431640625 446 c 1
 607.963867188 345 495.717773438 198 257.717773438 198 c 1
 254.684195855 198 249.280635786 197.571428571 247.206054688 196 c 1
 239.361684344 149.333333333 234.451906485 102.91833283 235.1484375 84 c 0
 235.150448294 72.6363636364 289.4453125 78 283.62109375 82 c 1
 250.293945312 -11 l 1
 205.418945312 -1 170.631835938 0 135.631835938 0 c 3
 101.631835938 0 66.84375 1 11.443359375 -15 c 1
 0.109375 66 l 1
 56.8515787957 90 54.1384472217 72.1511561337 56.935546875 84 c 0
 63.4382492989 112.411214953 70.0093302801 140.84405068 78.6796875 179 c 0
 113.28717861 332.920187793 150.385276149 526.82208821 157.228515625 594 c 0
 158.184945048 597.334130986 142.642472694 604 102.078125 592 c 1
 132.3828125 681 l 1
EndSplineSet
Position2: "cpsp-1" dx=0 dy=0 dh=50 dv=100
Substitution2: "c2pc-1" p.pcap
Substitution2: "c2sc-1" p.smcp
EndChar
StartChar: Q
Encoding: 81 81 42
Width: 786
Flags: HW
HStem: -171 74<614.642 752.132> -12 82<299.69 376.925> 619 73<356.095 535.886>
AnchorPoint: "Top" 480.525 679 basechar 0
AnchorPoint: "Middle" 402.727 347.853 basechar 0
AnchorPoint: "Bottom" 258.553 -15 basechar 0
LayerCount: 2
Fore
SplineSet
376.462890624 602 m 3
 340.614054665 602 254.600344422 516.843620311 227.658203124 387 c 0
 191.251122539 213.01048951 338.099730633 96 417.076171876 96 c 3
 573.008025239 96 596.712890624 230 601.779296876 276 c 0
 641.784387771 479.39429854 533.44870694 602 376.462890624 602 c 3
535.796875 44 m 1
 591.107864094 -38.3306451613 678.906681105 -79 747.08203125 -79 c 3
 748.887533976 -79 750.441430023 -91 751.25390625 -96 c 1
 757.775390625 -150 l 1
 732.660426401 -159 686.18240811 -171 632.3125 -171 c 3
 502.509357377 -171 400.169652115 -110.169811321 321.216796876 -15 c 1
 124.216796876 7 20.4362732192 149.501240916 59.228515625 332 c 0
 103.65234375 541 287.748046875 692 482.748046875 692 c 3
 678.748046875 692 804.397688383 548.834087684 767.541992188 357 c 0
 749.595060476 253.683139535 659.77734375 93 535.796875 44 c 1
EndSplineSet
Position2: "cpsp-1" dx=0 dy=0 dh=50 dv=100
Substitution2: "salt-1" Q.alt
Substitution2: "c2pc-1" q.pcap
Substitution2: "c2sc-1" q.smcp
EndChar
StartChar: R
Encoding: 82 82 43
Width: 707
Flags: HMW
AnchorPoint: "Top" 381.525 679 basechar 0
AnchorPoint: "Bottom" 340.125 -15 basechar 0
LayerCount: 2
Fore
SplineSet
255.017578125 369 m 1
 280.298702318 368.333333333 308.311187414 367 335.760742186 367 c 3
 347.952776349 367 420.140625 410 433 478 c 0
 441.17368914 524.098825339 436.544600291 606 373.495117188 606 c 3
 271.990234376 606 300.767930628 603.996775362 300.393554688 591 c 0
 299.228208685 572.862717337 269.971305993 439.253164557 255.017578125 369 c 1
108.97265625 675 m 1
 154.972602945 674 182.695405464 673 223.547851562 673 c 3
 283.547851562 673 313.586914062 692 383.586914062 692 c 3
 508.586914062 692 613.536842663 626.680734822 590.201171875 502 c 0
 572.840252961 407.790322581 496.441839558 357.648320585 450.330078124 325 c 1
 546.588068883 117.945652174 590.252351955 58.9239130435 704 56 c 1
 665.333007812 -29 l 1
 475.619529354 -25.0248447205 321.511703428 159.819875776 272.552734376 291 c 1
 270.743304068 292 268.772331555 291 266.3515625 291 c 3
 255.472333883 291 247.505476893 293 238.989257812 294 c 1
 227.711825935 235.121495327 209.141133279 146.765502826 198.501953125 94 c 0
 197.882134341 90.076753093 228.217557151 66 241.827148438 89 c 1
 198.521484375 -14 l 1
 165.647460938 -4 129.497070312 0 92.4970703125 0 c 3
 55.3124373374 0 16.1049500754 -4 -24.265625 -13 c 1
 -17.8984375 85 l 1
 30.947371704 68.5833333333 38.2620431192 97.8333333333 39.6513671875 90 c 1
 68.9501905676 194.144486692 87.9354439 265.831817176 103.553710938 339 c 0
 120.429539882 418.06374502 133.199118123 482.486055777 152.90625 584 c 1
 154.09375 593.375 127.694877131 590.75 90.306640625 594 c 1
 108.97265625 675 l 1
EndSplineSet
Position2: "cpsp-1" dx=0 dy=0 dh=50 dv=100
Substitution2: "salt-1" R.alt
Substitution2: "c2pc-1" r.pcap
Substitution2: "c2sc-1" r.smcp
EndChar
StartChar: S
Encoding: 83 83 44
Width: 563
Flags: HW
HStem: -14 77<171.634 343.191> -1 21G<3.28672 68.9244> 613 74<279.446 459.37>
VStem: 3.28672 62.1494<2.54947 24.1148> 20.9723 69.125<145.497 185>
AnchorPoint: "Top" 385.525 679 basechar 0
AnchorPoint: "Bottom" 229.862 -15 basechar 0
LayerCount: 2
Fore
SplineSet
20.97265625 185 m 1
 104.1953125 198 l 1
 143.592842532 167.052631579 161.397004302 159.712211868 175.88671875 149 c 0
 190.984375 108 244.212866914 84 287.08203125 84 c 3
 339.43911811 84 354.791449713 119.779973717 366.568359376 178 c 0
 382.7265625 258 175.165923867 308 171.510742188 315 c 0
 168.96046928 316.078929455 93.4168548434 363.320415506 113.705078124 476 c 0
 133.680659621 579.789189189 245.193760907 687 386.67578125 687 c 3
 449.67578125 687 486.49004936 676.355525792 509.211914062 666 c 0
 521.149414062 661 513.57421875 663 526.400390625 681 c 1
 584 665 l 1
 564.985351562 632 561.803062963 614.958679477 559.333007812 596 c 0
 550.717957239 512 555.603515624 490 468.71484375 499 c 1
 453.182063132 541.159090909 447.73828125 562 433.833007812 569 c 0
 415.118210066 579.400651284 386.359374999 595 329.359374999 595 c 3
 301.360032213 595 268.973709854 573.175243314 264.484375 538 c 0
 257.397813304 487.738853503 263.793710459 479.86348073 460.291015624 381 c 0
 515.730820521 348.130909413 514.855874133 252.468060143 506.8203125 215 c 0
 486.065191416 117.614054953 405.415317028 -14 221.673828125 -14 c 3
 181.699022631 -14 133.525371754 -2.51282051282 92.927734375 18 c 1
 91.8904468345 12.1538461538 81.7573899969 17.2307692308 71.4365234375 -1 c 1
 3.287109375 3 l 1
 21.37890625 74 18.228515625 78 20.97265625 185 c 1
EndSplineSet
Position2: "cpsp-1" dx=0 dy=0 dh=50 dv=100
Substitution2: "c2pc-1" s.pcap
Substitution2: "c2sc-1" s.smcp
EndChar
StartChar: T
Encoding: 84 84 45
Width: 684
Flags: HMW
AnchorPoint: "Top" 425.525 679 basechar 0
AnchorPoint: "Bottom" 294.49 -15 basechar 0
LayerCount: 2
Fore
SplineSet
198.380859375 680 m 0
 328.380859375 680 463.956054688 678 597.956054688 678 c 3
 631.956054688 678 665.956054688 678 698.956054688 678 c 0
 719.956054688 678 730.931640625 692 742.26953125 703 c 1
 784.467773438 671 l 1
 758.965820312 631 727.975585938 584 718.7734375 536 c 1
 628.323242188 550 l 1
 620.184009257 522.007532119 660.413194716 605.676895438 649.029296876 583 c 1
 629.201038666 583 544.434936919 591 498.077148438 593 c 1
 465.043945312 451.760869565 423.269495113 292.723136663 394.30078125 148 c 0
 391.240762082 132.680851064 387.634610679 113.487026993 385.310546875 103 c 0
 380.921496203 89.7719298246 365.542194989 77.7400318979 474.59375 93 c 1
 438.9296875 -8 l 1
 405.222989058 1.81818181818 359.059858596 4 310.267578125 4 c 3
 241.962654816 4 170.229769885 2.9375 119.8671875 -13 c 1
 122.923828126 81 l 1
 158.959428119 69.7272727273 216.119725286 95.8843254227 216.119140624 96 c 0
 234.394950741 177.706970856 283.239539275 396.328089355 309.647460938 526 c 0
 315.49068567 555.096385542 320.332170904 579.204819277 324.290039062 595 c 1
 293.838754849 592 251.124097796 592 215.864257812 590 c 0
 171.082729427 590 168.686255585 595.970588235 124.822265624 532 c 1
 44 570 l 1
 75.927734375 612 121.231445312 684 149.095703125 721 c 1
 167.26953125 703 184.380859375 680 198.380859375 680 c 0
EndSplineSet
Position2: "cpsp-1" dx=0 dy=0 dh=50 dv=100
Substitution2: "c2pc-1" t.pcap
Substitution2: "c2sc-1" t.smcp
EndChar
StartChar: U
Encoding: 85 85 53
Width: 775
Flags: HW
HStem: -13 88<245.48 475.722> 613 73<110.941 151.465 264.927 332.912 637.351 677.891 760.428 827.637>
AnchorPoint: "Top" 485.525 679 basechar 0
AnchorPoint: "Ogonek" 354.291 10 basechar 0
AnchorPoint: "Bottom" 305.076 -15 basechar 0
LayerCount: 2
Fore
SplineSet
106.696289064 686 m 1
 133.719726562 681 178.330078126 679 224.330078126 679 c 3
 263.330078126 679 302.719726562 681 333.500976562 685 c 1
 327.039062501 604 l 1
 345.267578124 601.390377453 319.067975154 607.387897975 314.306640626 592 c 0
 309.524724044 576.428719705 256.583845404 360.220295557 251.631835938 250 c 0
 249.117019417 208.784938554 243.514761899 176.291746392 269.213867186 153 c 0
 298.300663231 125.727272727 333.896228466 107 468.013671875 107 c 3
 475.288997328 107 497.908340969 116.44813305 521.38671875 137 c 0
 552.363038976 160.544 565.736160241 194.897830007 580.851562499 246 c 0
 608.60546875 337 632.444246835 503.392188296 652.112304688 601 c 0
 653.325612193 605.421161476 620.1171875 607.077665841 608.54296875 594 c 1
 632.696289064 686 l 1
 658.719726562 681 705.745117188 676 746.745117188 676 c 3
 782.745117188 676 816.330078126 679 832.890625 687 c 1
 817.868164062 593 l 1
 793.303338587 608 752.562810484 593.232497309 752.698242188 593 c 0
 750.084600101 579.430167598 733.611178873 460.81849759 686.851562499 246 c 0
 670.438476562 167 635.790211177 104.433665162 581.952148438 62 c 0
 520.002929688 11 434.3203125 -13 339.3203125 -13 c 3
 223.3203125 -13 148.974772369 14.3207087411 107.756835938 61 c 0
 73.5615234375 101 71.7089227687 160.922965909 80.5341796875 229 c 0
 85.5910215714 265.495912807 169.206574977 663 146.136718749 591 c 0
 138.263252083 578.411764706 116.530191193 598.411764706 81.4541015625 593 c 1
 106.696289064 686 l 1
EndSplineSet
Position2: "cpsp-1" dx=0 dy=0 dh=50 dv=100
Substitution2: "c2pc-1" u.pcap
Substitution2: "c2sc-1" u.smcp
EndChar
StartChar: W
Encoding: 87 87 55
Width: 992
Flags: HW
HStem: -8 20G<127.129 195.739 506.044 573.835> 616 74<264.846 316.631 474.862 503.127 640.172 686.517 854.215 921.854> 672 20G<81.8567 98.1987>
VStem: 136.854 114.949<151 590.799> 509.258 120.608<175 349.212> 516.425 119.325<178.621 378 431.275 598.489>
AnchorPoint: "Top" 587.525 679 basechar 0
AnchorPoint: "Bottom" 360.866 -15 basechar 0
LayerCount: 2
Fore
SplineSet
1106.94238281 690 m 1
 1103.91308594 613 l 1
 1044.71692814 570.84375 1056.67495793 600.03125 963.77734375 490 c 1
 760.826686546 244.551136364 697.238182588 175.302060597 609.549804688 44 c 0
 592.306387898 18.282745812 591.66796875 17.5849609375 573.834960938 -6 c 1
 479.775390625 -9 l 1
 482.311523438 11 482.389814803 31.6955921481 484.2578125 66 c 0
 489.767299886 151 490.302040177 237.634615385 494.424804688 321 c 1
 348.443299623 171.5 218.7252289 29.0619334692 212.666015625 22 c 0
 201.685546875 7.681640625 201.348632812 4.9541015625 190.12890625 -8 c 1
 110.12890625 -8 l 1
 113.279296875 31 113.701788343 36.9367375252 119.853515625 113 c 0
 128.903291979 225 129.976121754 461.727425409 121.86328125 541 c 0
 120.830129867 549.04963719 115.127323859 564.063751184 101.752929688 577 c 0
 77.009242706 600.287023766 81.059892749 597.5 65 592 c 1
 86.3671875 692 l 1
 110.029296875 681 152.966796875 676 197.966796875 676 c 3
 241.966796875 676 287.87890625 685 315.942382812 690 c 1
 323.212890625 596 l 1
 316.048553812 595.508172352 321.862056509 580.263754431 306.634765625 571 c 0
 301.129686617 567.848250948 297.379832459 559.000244141 297.513671875 548 c 1
 298.310083119 497.891412777 296.903654752 246.108587224 293.802734375 196 c 1
 304.705083032 206.470383048 479.965616276 367.22477268 485.6953125 374 c 1
 492.081571745 501.393387516 485.696184027 564.351609703 475.025390624 580 c 0
 465.107421874 591.944335938 468.940429688 590.25 462.212890625 590 c 1
 476.091796875 686 l 1
 499.81640625 680 540.966796875 676 577.966796875 676 c 3
 615.966796875 676 655.81640625 680 686.516601562 688 c 1
 688 598 l 1
 691.600431318 597.666666667 697.402116337 598.407357506 702.724609375 597 c 0
 684.197461572 591.204981279 674.987304688 580.586206897 676.75 569 c 1
 677.931677905 509.653226412 671.215542336 272.512610803 668.732421876 235 c 1
 751.319264674 332.766446314 816.781961548 413.230958512 874.138671876 506 c 0
 923.279597813 581.130035711 854.839276344 601.457627119 831.063476562 595 c 1
 855.87890625 685 l 1
 883.81640625 680 923.178710938 677 967.178710938 677 c 3
 1010.17871094 677 1059.02929688 681 1106.94238281 690 c 1
EndSplineSet
Position2: "cpsp-1" dx=0 dy=0 dh=50 dv=100
Substitution2: "c2pc-1" w.pcap
Substitution2: "c2sc-1" w.smcp
EndChar
StartChar: bracketleft
Encoding: 91 91 85
Width: 246
Flags: HW
LayerCount: 2
Fore
SplineSet
131.158203124 607.1015625 m 1
 131.158203124 -67.1015625 l 1
 219 -92.162109376 l 1
 219 -177 l 1
 37 -177 l 1
 37 717 l 1
 219 717 l 1
 219 634.162109376 l 1
 131.158203124 607.1015625 l 1
EndSplineSet
Position2: "cpsp-1" dx=0 dy=0 dh=50 dv=100
Position2: "'case' vertical ajustments for all-caps-1" dx=0 dy=90 dh=0 dv=0
EndChar
StartChar: a
Encoding: 97 97 0
Width: 491
VWidth: 1159
Flags: HMW
AnchorPoint: "Bottom" 223.181 -15 basechar 0
AnchorPoint: "Top" 326.66 537 basechar 0
LayerCount: 2
Fore
SplineSet
265.036660156 355.240878908 m 1
 256.759082032 356.694785158 242.738535158 358.1503125 235.353554688 358.1503125 c 3
 229.795996094 358.1503125 221 357 216 353 c 0
 190.993396863 332.994717491 145.580039062 285.000835227 145.580039062 179.42 c 3
 145.580039062 144.482011719 157.738867188 113.4 190.580039062 113.4 c 3
 208.511875 113.4 221.88671875 134.754882812 234 172 c 4
 246.949187683 211.815307083 249.735948571 226.593156121 251.520039062 231.88 c 0
 268.832128906 283.181386719 272.016347655 344.963242187 265.036660156 355.240878908 c 1
363.178554688 174.03125 m 0
 362.737421874 167.904765624 362.274648437 163.925449219 362.647871094 160.263359374 c 0
 364.244238282 129.790996094 375.848085938 120.7 392.499882812 120.7 c 3
 409.442460936 120.7 428.656425781 131.980214843 438.520039062 137.62 c 1
 476.32 83.2978515625 l 1
 438.830742188 47.2744140625 382.210507812 -11 320.35328125 -11 c 3
 281.710039062 -11 262.761777342 23.4359570312 262.761777342 49.52421875 c 3
 262.761777342 56.9016210937 263.122480469 65.5704492187 263.980039062 75.08 c 1
 222.51826172 26.9908398438 162.157382812 -10 129.152070312 -10 c 3
 67.6485546875 -10 19.9186328125 48.7734375 19.9186328125 119.466796875 c 3
 19.9186328125 198.615234375 65.7955468751 282.701328124 102.664726562 333.094726562 c 0
 135.417070314 377.8984375 184.664488769 412.547498541 211.513222656 428.67578125 c 0
 254.836035155 454.700195312 310.08033203 480.814492187 326.040039062 486 c 0
 340.244209915 490.615112219 348.971406248 493.842382812 360.280742188 500.881015625 c 1
 463.395195312 505 l 1
 435.460039062 436.18 390.863535158 324.534550781 363.178554688 174.03125 c 0
EndSplineSet
Substitution2: "pcap-1" a.pcap
Substitution2: "smcp-1" a.smcp
EndChar
StartChar: b
Encoding: 98 98 1
Width: 486
VWidth: 1159
Flags: HMW
AnchorPoint: "Bottom" 143.181 -15 basechar 0
LayerCount: 2
Fore
SplineSet
195.848535155 323.28 m 1
 183.128359376 263.388300781 169.651093749 217.756347655 165.008554687 168.32 c 1
 165.726914061 150.69 169.388164063 141.947753908 171.136621095 133.06 c 0
 175.079570313 115.495 195.590644532 100.12 209.116542968 100.12 c 3
 293.978124999 100.12 357.48216797 175.958730468 356.273730469 298.376289062 c 0
 355.831523437 344.609531248 327.974140626 378.56 271.453710937 378.56 c 3
 232.867773438 378.56 213.455429688 347.417226562 195.848535155 323.28 c 1
97.666171875 674.58 m 1
 123.338476562 704.903789063 184.670781251 729.45189453 246.00470703 754 c 1
 302.204785155 723.216992187 333.610488282 683.19908203 362.986230469 644.72 c 1
 307.573457031 632.438339842 270.305996095 559.793964842 220.372792969 425.92 c 1
 239.313964844 442.965039062 319.268984374 491 364.252792969 491 c 3
 425.48033203 491 470.270097656 434.74935547 473.087753906 367.098632812 c 0
 480.534667968 185.670898438 290.184843752 -9 143.746621092 -9 c 3
 92.5716796875 -9 88.9676171874 5.4158203124 64.517890625 10.36 c 0
 44.6637695312 14.6422460938 20.7748242187 20.32 12.6977148438 18 c 1
 -4.30326171875 32 l 1
 41.6010351563 163.1015625 106.394648438 459.951171875 122.550898438 539 c 0
 130.588984374 578.329101562 125.899140625 600.372753905 120.265820313 627.46 c 0
 114.437871095 638.846425782 107.270605469 661.637871094 97.666171875 674.58 c 1
EndSplineSet
Substitution2: "pcap-1" b.pcap
Substitution2: "smcp-1" b.smcp
EndChar
StartChar: c
Encoding: 99 99 2
Width: 417
VWidth: 1159
Flags: HMW
AnchorPoint: "Top" 298.66 537 basechar 0
AnchorPoint: "Bottom" 171.181 -15 basechar 0
LayerCount: 2
Fore
SplineSet
330.425859374 350.84 m 1
 301.774356587 355.719628906 265.834274427 392.9 229.78046875 392.9 c 3
 165.459419822 392.9 160.70530111 345.293934691 169.025722658 189.439277342 c 0
 171.342508989 150.55907241 196.88640625 108.76 240.665859376 108.76 c 3
 265.714376214 108.76 284.465927341 114.78216239 297.265859374 119.3 c 1
 333.065664953 68.3556856017 l 1
 304.708793474 38.8680438513 238.83851888 -7 176.000272542 -7 c 3
 119.976090238 -7 36.7495078797 30.8234359951 31.5647181693 154.107659256 c 0
 23.969966929 334.712770434 171.234055624 507 299.843454574 507 c 3
 354.057041039 507 400.480202116 472.643497869 414.105989588 434.005656482 c 1
 405.965422589 406.756443204 384.523992211 370.843337457 330.425859374 350.84 c 1
EndSplineSet
Substitution2: "pcap-1" c.pcap
Substitution2: "smcp-1" c.smcp
EndChar
StartChar: d
Encoding: 100 100 3
Width: 531
VWidth: 1159
Flags: HMW
AnchorPoint: "Bottom" 225.181 -15 basechar 0
LayerCount: 2
Back
SplineSet
276.825546875 365.92 m 7
 233.548769531 365.92 136.142421875 341.428710938 144.417421875 200.171796875 c 4
 147.442695313 150.864179689 163.598242189 110.08 192.945546875 110.08 c 7
 222.56986328 110.08 275.393378905 142.637988282 305.985546875 240.18 c 4
 321.195507812 288.675117188 335.103632812 338.031230469 336.409003905 367.675917968 c 4
 337.093261719 379.478281252 294.1903125 365.92 276.825546875 365.92 c 7
EndSplineSet
Fore
SplineSet
300.219277345 93.96 m 1
 251.342539062 44.3025390625 168.270117188 -9 132.764960938 -9 c 3
 64.0475195312 -9 20.57453125 49.6953125 16.7063671875 132.672851562 c 0
 10.00421875 276.461914062 190.294648438 485 366.465546875 485 c 3
 371.945039062 485 373.925312498 483.250898438 370.005546875 486.9 c 1
 376.418320312 507.450703125 373.046914062 521.917949218 372.825546875 536.12 c 0
 370.766621094 591.460351562 345.937148438 607.420800782 323.576816405 607.420800782 c 3
 321.234824218 607.420800782 292.963417968 604.792753906 300.812792969 605.720800782 c 1
 297.875292969 676.142246094 l 1
 370.227187502 688.932753906 467.853984375 728.466054687 530.369726562 768 c 1
 549.9 750 l 1
 546.56919922 706.823378906 486.501855468 406.551445313 426.416171876 211.735195313 c 0
 414.406464845 173.053222658 410.703984374 171.207675781 412.394062501 147.042460938 c 0
 413.463378906 131.428789062 420.885488281 118.72 439.361503905 118.72 c 3
 457.332148437 118.72 474.398945312 128.28 486.725546875 128.6 c 1
 521.9775 69 l 1
 477.40826172 27 389.370039063 -11 352.774726562 -11 c 3
 316.416816406 -11 301.761171874 9.27287109374 298.59046875 40.1328125 c 0
 296.956269532 56.8947460938 297.735664062 75.07234375 300.219277345 93.96 c 1
308 373 m 3
 238.819077774 373 135.752027174 341.405299736 144.417421875 200.171796875 c 0
 147.442695313 150.864179689 163.598242189 110.08 192.945546875 110.08 c 3
 222.56986328 110.08 275.392638891 142.638220376 305.985546875 240.18 c 0
 321.195507812 288.675117188 332.282226562 324.375976562 334 354 c 0
 334.684570312 365.802734375 325.365234375 373 308 373 c 3
EndSplineSet
Substitution2: "pcap-1" d.pcap
Substitution2: "smcp-1" d.smcp
EndChar
StartChar: e
Encoding: 101 101 4
Width: 437
VWidth: 1159
Flags: HMW
AnchorPoint: "Bottom" 179.181 -15 basechar 0
AnchorPoint: "Top" 269.66 537 basechar 0
LayerCount: 2
Fore
SplineSet
262.053046875 505 m 3
 324.7659375 505 394.326875002 434.940585938 395.9925 363.469570312 c 0
 396.300117188 357.115996095 398.68 348.492636718 404.68 346.222851562 c 1
 400.700507812 281.556640625 l 1
 345.171191406 263.162949218 256.511855468 233.624179688 172.117480468 208.332617188 c 1
 172.036425781 203.273046874 171.637499999 198.648691405 171.960253906 190.674414063 c 0
 174.490292969 127.55734375 205.899218748 92.48 235.956484376 92.48 c 3
 268.549648437 92.48 296.539492186 108.507539063 319.88390625 132.3 c 1
 369.18390625 86 l 1
 326.862617188 38.640625 261.159492188 -10 177.46515625 -10 c 3
 88.037421875 -10 38.3238867187 62.21484375 34.5813671875 154.005859375 c 0
 26.16828125 360.290039062 189.227851562 505 262.053046875 505 c 3
226 392 m 3
 205.354492188 392 177.610449218 359.906953124 169.151972658 281.560527342 c 1
 190.387519532 286.424882812 255.93798828 303.630976562 267.723964842 308.756308592 c 0
 277.289589844 312.795371094 278.846738282 324.155585937 277.88283203 334.88720703 c 1
 271.228242188 380.678339844 252 392 226 392 c 3
EndSplineSet
Substitution2: "pcap-1" e.pcap
Substitution2: "smcp-1" e.smcp
EndChar
StartChar: f
Encoding: 102 102 5
Width: 385
VWidth: 1159
UnlinkRmOvrlpSave: 1
Flags: HMW
LayerCount: 2
Back
SplineSet
478.822314453 754 m 7
 517.406767578 754 600.182451172 728.460361328 625.168525391 706.85 c 5
 619.693945312 673.068466797 609.838857422 664.310703126 552.899550782 631.78 c 5
 510.027880859 649.680058594 464.774443359 680.57 420.711484375 680.57 c 7
 329.118535157 680.57 293.866621094 603.122275391 255.152031249 499.02 c 4
 252.263486329 490.790341797 234.734570312 434.960566407 225.453447266 397 c 5
 252.215166016 397.963642578 365.079423829 409.526357422 391.841142579 410.49 c 5
 384.376845703 342.87 l 5
 358.625458984 343.331611328 239.230302734 335.388388672 213.477939453 336.02 c 5
 191.257597657 235.346523437 151.437060547 21.5851464844 126.415087891 -53 c 4
 108.487646485 -102.897255859 81.3137402344 -138.10421875 51.1856738281 -171 c 5
 37.432734375 -170.17 38.8078808594 -169.34 -18.9551464844 -169.34 c 7
 -38.5529199219 -169.34 -68.4164648437 -173.068066406 -79.6160058594 -174 c 5
 -85.4333886719 -112.36 l 5
 -39.1988867187 -105.904169922 -11.5720996094 -92.7835839844 10.5496582031 -60 c 4
 55.123125 9.5469921875 91.9274707032 199.517656249 119.654228516 330.53 c 5
 96.9406542969 329.49 75.2136230469 326.03 52.5000488281 322.21 c 5
 47.4874316406 389.66 l 5
 75.0779003906 388.585 103.869267578 394.16 131.459736329 393.17 c 5
 139.128681641 431.154375 149.448291015 483.846621094 151.057392579 493.17 c 4
 175.708388672 627.608466796 232.493447266 669.784960938 315.012236329 713.68 c 4
 357.980410156 736.187207031 409.65875 754 478.822314453 754 c 7
EndSplineSet
Fore
SplineSet
67.00390625 459.580078124 m 1
 293.852310704 462.204273544 208.228931148 456.551828958 440.407226562 481.240234376 c 1
 427.133789064 402 l 1
 205.624234924 388.774788212 285.182530149 412.379130426 72.8466796875 379.6796875 c 1
 67.00390625 459.580078124 l 1
519.422851562 754 m 3
 545.733398438 754 627.706054688 726.211914064 650 702.69921875 c 1
 640.262695312 658.086914062 622.733398438 646.520507812 521.462890624 603.560546876 c 1
 483.39453125 621.947265625 443.2109375 663.140625 404.0859375 663.140625 c 3
 366.037109374 663.140625 356 653 289.966796876 494.0390625 c 0
 234.359890519 360.177224094 175.461914062 7 167.015625 -53 c 0
 154.771129075 -102.792492012 133.858398438 -130.634765626 111.708007812 -171 c 1
 88.1904296875 -169.33984375 90.5419921875 -167.6796875 -8.234375 -167.6796875 c 3
 -38.826171875 -167.6796875 -85.4423828125 -172.736328125 -102.923828125 -174 c 1
 -108.741210938 -105.720703124 l 1
 -56.2568359375 -96.493164062 -6.5173489472 -75.7442832864 1.3505859375 -60 c 0
 74.3832706017 62.2757108876 141.639648438 480.7734375 142.688476562 492.33984375 c 0
 173.772359362 656.709167426 236.656787738 664.884804426 329.883789062 710.359375 c 0
 379.600585938 734.720703125 439.396484375 754 519.422851562 754 c 3
EndSplineSet
Substitution2: "smcp-1" f.smcp
Substitution2: "pcap-1" f.pcap
Substitution2: "salt-1" f.alt
EndChar
StartChar: g
Encoding: 103 103 6
Width: 503
VWidth: 1159
UnlinkRmOvrlpSave: 1
Flags: HMW
AnchorPoint: "Top" 302.66 537 basechar 0
LayerCount: 2
Back
SplineSet
131 114 m 1
 137.538085938 102.666992188 150.615234375 80 216 80 c 3
 252.701171875 80 288.290039062 92 335 92 c 3
 420.647460938 92 463 34.0810546875 463 -22 c 3
 463 -128.624023438 267 -177 183 -177 c 3
 72 -177 22 -111 22 -59 c 3
 22 6.8603515625 72.392578125 47.1826171875 100 66 c 1
 70.638671875 87.767578125 59.8720703125 113.720703125 54 138 c 1
 88.056640625 151.713867188 96.1591796875 163.857421875 165 170 c 1
 84.54296875 193.67578125 37 249.549804688 37 313 c 3
 37 435 154 514 230 514 c 3
 272.482421875 514 313.875 504 352 486 c 1
 375.450195312 488 394.712890625 487 419 487 c 3
 447.983398438 487 453.466796875 486 466 486 c 1
 465.454101562 480.76171875 462 431 462 431 c 1
 445 431 430.331054688 428.278320312 414 431 c 0
 408 432 404 431 399 431 c 1
 420 404.103515625 434 357.389648438 434 322 c 3
 434 225.979492188 339.548828125 167.819335938 264 142 c 0
 212.301757812 124.33203125 145.77734375 117.818359375 131 114 c 1
231 458 m 3
 178.216796875 458 93 396.286132812 93 314 c 3
 93 242.352539062 212 194 251 198 c 1
 304.622070312 217.155273438 378 252 378 321 c 3
 378 366.341796875 343.982421875 458 231 458 c 3
78 -58 m 3
 78 -86.25 109.993164062 -121 184 -121 c 3
 279.171875 -121 407 -68.23046875 407 -25 c 3
 407 18.3779296875 377.5 36 336 36 c 3
 291.25390625 36 277.559570312 24 216 24 c 3
 193.456054688 24 159.102539062 32 143 34 c 1
 93.7578125 4.1962890625 78 -32 78 -58 c 3
EndSplineSet
Fore
SplineSet
409.522187499 454.686523438 m 1
 441.863984374 464.502929688 474.779999999 469 501.810273436 469 c 3
 519.946015624 469 544.126035155 467 550.172578124 463 c 1
 507.622187501 339.28 l 1
 478.987773437 357.608398438 448.677285158 374.122929688 410.011445313 374.122929688 c 0
 420.989550781 374.122929688 432.238867188 376.233671876 443.782187499 380.668027342 c 1
 442.11908203 380.731757812 408.251796874 454.314882812 409.522187499 454.686523438 c 1
446.173554686 354.936523438 m 1
 425.340351562 249.7 303.431640625 197.959960938 275.940429688 181.780273438 c 0
 254.401367188 169.146484375 231.64453125 153.958007812 210.08203125 144.83984375 c 1
 207.40234375 145.16015625 214.7421875 157.586914062 217.7421875 157.540039062 c 1
 226.118164062 152.379882812 214.051757812 147.8203125 247.801757812 147.8203125 c 3
 275.923828125 147.8203125 310.52734375 151.599609375 338.522460938 151.599609375 c 3
 420.990234375 151.599609375 447.7109375 81.6279296875 440.522460938 28 c 1
 411.502929688 -108 223.920957032 -174 109.979218751 -174 c 3
 -15.8763476563 -174 -59.1392382813 -114.356445312 -51.273671875 -63.083984375 c 1
 -42.668203125 2.27548828126 27.791015625 55.009765625 81.28125 75.8330078125 c 1
 82.5244140625 76.390625 130.233398438 51.1376953125 129.022460938 50.66015625 c 1
 98.8740234375 41.33984375 83.4134375001 7.5557031249 75.3821875 -0.28 c 0
 50.3908398438 -58.5975976562 152.544921875 -64.22 203.869199219 -64.22 c 3
 245.220917969 -64.22 335.81640625 -47.423828125 336.72265625 -23.0400390625 c 1
 343.9609375 6.634765625 331.598632812 24.919921875 294.702148438 24.919921875 c 3
 270.094726562 24.919921875 248.779296875 18.7802734375 218.583984375 18.7802734375 c 3
 164.091796875 18.7802734375 34.8662109375 66.9794921875 47.1630859375 145.599609375 c 1
 81.49609375 175.123046875 130.215820312 192.352539062 183.521484375 213.573242188 c 0
 270 248 302.229492188 286.147460938 317 360 c 0
 325 400 306.573906252 439.04 272.982187501 439.04 c 3
 224.24845703 439.04 197.307461202 409.39327746 180 338 c 0
 164 272 205.123300782 219.911054688 269.096015626 198.66 c 1
 272.296347655 197.950722658 149.972910156 155.499472656 144.922187501 156.06 c 1
 77.1997070316 180.160488281 24.198828125 225.859042968 38.12765625 307.892578125 c 1
 58.4329296875 431.333984375 199.299492188 505 303.363984374 505 c 3
 377.299531249 505 461.300507812 441 446.173554686 354.936523438 c 1
EndSplineSet
Substitution2: "smcp-1" g.smcp
Substitution2: "pcap-1" g.pcap
EndChar
StartChar: h
Encoding: 104 104 7
Width: 496
VWidth: 1159
Flags: HMW
AnchorPoint: "Bottom" 179.181 -15 basechar 0
LayerCount: 2
Fore
SplineSet
168.793320312 246.54 m 0
 154.713027345 185.217675782 125.875624999 79.4002148438 120.872929688 -4 c 1
 -10.8407421875 -4 l 1
 24.6744140626 137.5234375 101.997539062 496.690371094 117.824921875 590 c 0
 120.569550782 608.095214842 120.010058594 619.335234376 119.877773438 624.12 c 0
 119.7615625 628.386601562 118.962734375 632.12 113.039882812 632.12 c 3
 108.570156252 632.12 88.101914062 635.386347658 80.0736328128 636.04 c 1
 87.2069335938 647.642109376 92.9655078122 687.417890624 92.4021484372 699.02 c 1
 157.862636719 711.135410156 235.966835936 723.249199219 320.970273438 764 c 1
 350.935117188 728 l 1
 335.390566406 714 318.213300782 689.951054686 310.088867188 681 c 0
 273.974882812 638.682070312 234.361074219 537.279296876 193.853320312 382.38 c 1
 215.038027345 406.362734376 296.275917968 486 370.453320312 486 c 3
 450.150996095 486 503.78 424.758828125 503.78 364.152382812 c 3
 503.78 195.207949219 404.370820312 52.372421875 341.433320312 -23 c 1
 250.323398437 0.94240234374 239.272460938 28.3077929687 241.124511718 106.98 c 1
 296.636621094 113.776757812 406.542695312 196.505312498 406.542695312 285.6 c 3
 406.542695312 343.760527342 368.629199218 383.52 326.313320312 383.52 c 3
 269.17439453 383.52 193.944140625 356.479199219 168.793320312 246.54 c 0
EndSplineSet
Substitution2: "pcap-1" h.pcap
Substitution2: "smcp-1" h.smcp
EndChar
StartChar: k
Encoding: 107 107 10
Width: 477
VWidth: 1159
UnlinkRmOvrlpSave: 1
Flags: HMW
AnchorPoint: "Bottom" 183.181 -15 basechar 0
LayerCount: 2
Fore
SplineSet
78.049453125 -5 m 1
 65.755703125 -5 14.5295898437 -5 0.1869921875 -5 c 0
 -8.2398632813 -5 -36.2539257812 -6 -44.68078125 -6 c 1
 -55.0234179687 45.59109375 20.1096484374 198.319921875 40.0037109375 273 c 0
 95.377832031 480.24279297 70.28861328 535.78173828 69.14 572.08 c 0
 68.520976563 591.772910155 58.540898438 606.3 37.25935547 606.3 c 3
 34.68109375 606.3 -6.0213476566 614.119804687 10.66 618.78 c 1
 3.935390625 680.76 l 1
 71.1284570316 693.580175782 157.58390625 734.372675782 215.36 774 c 1
 245.36 750 l 1
 240.36 590 109.929335938 203.19921875 78.049453125 -5 c 1
96.66 254.96 m 1
 189.502753905 268.831035156 335.208554687 341.174062502 331.147734376 407.299609376 c 0
 330.457014224 416.182791178 327.158425408 422.46 323.56 422.46 c 3
 253.28880232 422.46 163.009765006 330.441210938 112.36 168 c 1
 74.6226953125 211 l 1
 162.6786158 471.36 316.954179534 510 381 510 c 3
 428.899940576 510 460.32430477 473.625585938 462.36 435 c 0
 470.675839845 298.698671876 318.256132812 239.263691408 216.88 212.3 c 1
 255.932734376 128.256464842 314.230664062 86.48 488.36 -26 c 1
 488.36 -66.3925390625 459.924082031 -74.2107031251 364.66 -87.24 c 1
 284.891191406 -52.8603710937 144.999746095 101.077578126 96.66 254.96 c 1
EndSplineSet
Substitution2: "smcp-1" k.smcp
Substitution2: "pcap-1" k.pcap
EndChar
StartChar: l
Encoding: 108 108 11
Width: 262
VWidth: 1159
Flags: HMW
AnchorPoint: "Bottom" 73.1807 -15 basechar 0
LayerCount: 2
Back
SplineSet
194.203125 413 m 0
 168.874023438 320.94140625 131.728515625 171.416992188 130.569335938 100 c 0
 130.46484375 93.5673828125 130.80078125 86.3779296875 137.706054688 86 c 1
 146.290039062 86 181.776367188 100.625 199.706054688 112 c 1
 241.706054688 70 l 1
 193.932617188 22 138.71484375 -10 86.01953125 -10 c 3
 42.7060546875 -10 23.90625 11.3916015625 19.6201171875 37 c 0
 17.0986328125 52.0634765625 19.90234375 69.880859375 24.251953125 96 c 0
 36.57421875 170 76.6572265625 309.90234375 96.1630859375 401 c 0
 136.297851562 588.435546875 140.087890625 624.796875 140.087890625 663 c 7
 140.087890625 673.250976562 136.88671875 688.598632812 126.815429688 694 c 5
 124.974609375 700.612304688 122.892578125 707.0078125 120.801757812 713 c 1
 147.486328125 732.125 213.19140625 748.517578125 276.947265625 764 c 1
 288.51171875 757.142578125 292.955078125 748.571289062 299 740 c 1
 287.092773438 712.8984375 267.051757812 657.459960938 258.564453125 630 c 0
 240.635742188 572 225.231445312 525.776367188 194.203125 413 c 0
EndSplineSet
Fore
SplineSet
206.549121094 413 m 0
 179.640273438 331.498828126 149.8368693 219.97530707 147.911093752 133 c 1
 147.73763672 123.534863281 148.2134375 113.027363281 157.118046876 112.4 c 1
 145.025468748 112.4 179.746093752 113.28875 188.952050782 113.98 c 1
 233.592050782 70 l 1
 183.793496095 22 126.234785156 -10 71.305527344 -10 c 3
 26.3691210938 -10 4.8127744635 11.2879597006 0.2861132812 37 c 0
 -2.3636328125 52.0428515625 0.1782800523 69.9413576968 4.9179492187 96 c 0
 18.3713671874 170 64.1797460938 308.733808594 83.4290820312 401 c 0
 110.346997766 532.340055106 114.211894532 530.430433564 114.211894532 584.44 c 1
 114.211894532 601.456621092 108.89794922 626.933730468 92.179609376 635.9 c 1
 85.979179688 654.003794204 80.441171875 671.51402138 74.276914062 687.92 c 1
 111.507386825 716.45 203.180052773 740.903730468 292.133261718 764 c 1
 313.975926234 745.38220703 322.36842988 722.110781249 333.785996094 698.84 c 1
 317.216230469 681.879618964 288.76654646 648.058054146 281.470449218 630 c 0
 259.925917969 572 248.951880396 557.308305904 206.549121094 413 c 0
EndSplineSet
Substitution2: "pcap-1" l.pcap
Substitution2: "smcp-1" l.smcp
EndChar
StartChar: m
Encoding: 109 109 12
Width: 789
VWidth: 1159
Flags: HMW
AnchorPoint: "Bottom" 349.181 -15 basechar 0
AnchorPoint: "Top" 435.66 537 basechar 0
LayerCount: 2
Fore
SplineSet
716.449882813 123.04 m 3
 710.849013045 123.04 741.928989439 156.268836526 743.524882813 155.486328125 c 1
 787.329882813 126 l 1
 759.107903471 75 700.062764659 -10 627.381835938 -10 c 3
 583.640840103 -10 564.244609374 38.3345844125 564.244609374 72.0380859375 c 3
 564.244609374 125.167767732 622.016679688 248.11909478 622.016679688 346.419648438 c 3
 622.016679688 371.199679117 611.97240462 379.6 595.681406251 379.6 c 3
 575.193755034 379.6 500.738224357 352.632472302 448.029882813 116.88 c 0
 444.006427006 95.280563793 440.092331178 52.4562969398 436.332421874 33.474609375 c 0
 433.766514284 20.5223705515 433.374330147 9.4196057581 428.245507813 1 c 1
 418.32157487 9.2148511044e-17 350.489929274 -2 335.337890624 -2 c 1
 329.415423054 -2 298.325368674 -2 295.261796874 -1 c 1
 286.826507735 2.05978271484 289.674744464 33.4845201009 291.024453124 37.400390625 c 0
 304.021036732 82.2565752725 326.555589578 159.845958482 336.843515624 204 c 0
 345.785639976 241.199913936 349.612762807 257.334175064 360.754374999 309.755351562 c 0
 373.376084147 366.041781644 366.882311234 397.24 350.001406249 397.24 c 3
 307.846919574 397.24 224.825770174 315.624926435 181.429882813 134.52 c 0
 170.520498996 95.105247684 168.198666067 71.0534827742 162.963203124 37.0341796875 c 0
 160.668622368 23.9540432177 156.735478743 9.4078248698 154.990546874 1 c 1
 152.916726528 -1 80.3647520575 0 68.3013491573 0 c 1
 62.2648376947 0 45.0222838657 2 40.858193674 4 c 1
 37.8078751536 6.4045328324 38.1011810802 32.8866956251 38.6727423771 36.4599041747 c 0
 50.7050305675 108.384012844 67.3173339206 166.472798071 82.0379687504 246.590820312 c 0
 85.266418131 268.820173815 91.420961076 287.882337402 94.159238281 298.520332032 c 0
 97.710941258 322.780290652 87.985533165 346.4 78.841406251 346.4 c 3
 69.370027978 346.4 79.2793739981 349.969381404 72.4515234374 355 c 1
 42.3715234376 384 l 1
 57.2551389291 416.83974722 114.913837874 494.863838872 155.527773438 502 c 1
 166.810518172 504.297089842 211.87541225 517.239153206 225.515625002 490 c 0
 226.024491016 484.488066408 231.205746012 473.211548086 233.141718752 455.75609375 c 0
 235.358051304 431.448388483 232.968053504 403.176249706 226.349882813 373.1 c 1
 240.959776678 400.34430296 355.101567444 513 416.929882813 513 c 3
 482.873093469 513 515.012920357 468.507231719 510.408593752 416.32453125 c 0
 509.571312704 407.065546261 510.338918601 397.710458628 507.911523438 388.34 c 1
 534.544596456 421.796919784 608.66832319 501.34 667.714726563 501.34 c 3
 755.76711227 501.34 771.173887518 435.823306902 752.326562502 354.822265625 c 0
 731.772580166 267.371872562 698.169882813 190.430996094 698.169882813 142.4 c 3
 698.169882813 124.407680113 703.875977135 123.04 716.449882813 123.04 c 3
EndSplineSet
Substitution2: "pcap-1" m.pcap
Substitution2: "smcp-1" m.smcp
EndChar
StartChar: n
Encoding: 110 110 13
Width: 522
VWidth: 1159
Flags: HMW
AnchorPoint: "Bottom" 214.181 -15 basechar 0
AnchorPoint: "Top" 341.66 537 basechar 0
LayerCount: 2
Back
SplineSet
769 190 m 3
 769 139 772 92 774 68 c 1
 774 65 775 64 779 63 c 1
 786 62 810 60 818 59 c 1
 816 -8 l 1
 781 -3 761 0 721 0 c 3
 690 0 667 -5 643 -10 c 1
 635 53 l 1
 645 54 658 55 666 57 c 1
 670 58 672 63 676 89 c 1
 678 108 682 155 682 170 c 3
 682 218 678 303 676 319 c 1
 667 377 651 413 588 413 c 3
 559 413 510 383 478 351 c 1
 478 347 478 345 478 344 c 1
 478 321 478 257 478 224 c 3
 478 163 479 95 482 73 c 1
 483 64 488 59 494 57 c 1
 499 56 519 53 527 52 c 1
 520 -9 l 1
 480 -3 470 0 423 0 c 3
 393 0 367 -5 344 -9 c 1
 336 54 l 1
 345 55 359 57 365 58 c 1
 371 58 378 61 380 88 c 1
 382 111 384 168 384 186 c 3
 384 234 380 335 376 354 c 1
 369 389 350 421 303 421 c 3
 262 421 205 381 174 354 c 1
 176 265 170 123 176 85 c 1
 179 67 188 62 195 60 c 1
 200 59 214 55 220 55 c 1
 210 -7 l 1
 173 -4 159 0 118 0 c 3
 87 0 54 -4 23 -7 c 1
 19 54 l 1
 29 55 34 55 44 58 c 0
 64 64 68 67 74 89 c 1
 82 119 85 194 85 232 c 3
 85 251 84 359 76 377 c 0
 66 406 67 411 46 411 c 1
 40 411 34 411 27 411 c 1
 22 470 l 1
 75 477 90 471 142 517 c 1
 186 485 l 1
 183 470 181 458 180 439 c 1
 219 470 283 512 342 512 c 3
 404 512 455 472 467 432 c 1
 511 463 562 500 634 500 c 3
 753 500 765 404 767 350 c 1
 769 309 769 233 769 190 c 3
EndSplineSet
Fore
SplineSet
98.101367187 312.82 m 1
 100.928002886 329.90979581 92.794263296 356.66 84.932246095 356.66 c 3
 73.84963444 356.66 78.4182432291 355.351917115 74.9013671874 354 c 1
 32.7822265624 382 l 1
 56.9561328126 440 147.614941408 504 180.301718748 504 c 3
 189.395624999 504 222.010737516 493.822879692 224.660429687 482 c 0
 226.572812499 474.458437502 231.858065236 460.005645274 232.606718748 440.49609375 c 0
 233.075136718 428.981093751 231.24513672 402.890039062 227.781367187 381.38 c 1
 257.338749998 425.013457031 338.676035156 504 395.101367187 504 c 3
 470.581113282 504 478.328275158 443.666134242 466.203945313 381.9 c 0
 444.273496095 270.358398438 434.839882037 232.674734984 422.941718748 154.02 c 0
 420.538007814 137.967558593 417.012343748 113.08 419.886367187 113.08 c 3
 425.523242188 113.08 425.74252562 107.978104194 434.491308595 118.46 c 0
 439.920468751 124.074277344 446.045273437 132.571230469 448.842226562 134 c 1
 496.961367187 118 l 1
 482.658632812 88.033203125 463.910842557 57.732156385 436.254335937 31 c 0
 415.562929687 11 374.715195312 -9 352.431210937 -9 c 3
 306.035976562 -9 288.557089844 44.1188867187 288.557089844 74.0007226562 c 3
 288.557089844 129.387734376 349.62470703 315.203710936 349.62470703 370.00046875 c 3
 349.62470703 372.792753908 340.329218748 393.22 323.967558595 393.22 c 3
 276.543066406 393.22 206.959637354 278.451414809 193.478339845 224.8 c 0
 173.250039062 145.766914063 166.770503673 110.63394519 156.384726562 34.68 c 0
 154.772402342 23.0704296875 156.794335938 2.2965234375 148.902304687 0 c 1
 139.640449219 0 84.0676953126 0 80.3623046874 0 c 1
 76.4906445312 0 30.0339648438 0 26.1623046874 0 c 1
 16.9088867188 4.68 22.857275093 31.3883705644 24.4747656251 39 c 0
 40.6787890626 115.429746094 69.9941064119 222.005055058 94.594472655 294.32 c 0
 98.13966797 299.461289063 97.184707032 306.83466797 98.101367187 312.82 c 1
EndSplineSet
Substitution2: "pcap-1" n.pcap
Substitution2: "smcp-1" n.smcp
EndChar
StartChar: o
Encoding: 111 111 14
Width: 490
VWidth: 1159
Flags: HW
AnchorPoint: "Bottom" 188.181 -15 basechar 0
AnchorPoint: "Top" 315.66 537 basechar 0
LayerCount: 2
Fore
SplineSet
309.495117188 507 m 3
 403.1328125 507 459 427.673828125 459 321.42578125 c 0
 459 139.922851562 320.752929688 -10 188.133789062 -10 c 3
 94.0673828125 -10 31.095703125 60.2529296875 31.095703125 180.220703125 c 0
 31.095703125 387.733398438 210.171875 507 309.495117188 507 c 3
257.162070312 421.78 m 3
 211.319092221 421.78 175.262070312 338.703127791 175.262070312 215.2 c 3
 175.262070312 136.821632653 198.074243032 61.6 230.782070312 61.6 c 3
 259.155828643 61.6 315.302070312 155.532672194 315.302070312 286.8 c 3
 315.302070312 387.702688703 290.302690429 421.78 257.162070312 421.78 c 3
EndSplineSet
Substitution2: "pcap-1" o.pcap
Substitution2: "smcp-1" o.smcp
EndChar
StartChar: p
Encoding: 112 112 15
Width: 504
VWidth: 1159
Flags: HMW
AnchorPoint: "Top" 346.66 537 basechar 0
LayerCount: 2
Fore
SplineSet
44.6652929687 64.947265625 m 0
 73.5084570313 183.542226563 97.458066406 298.987636719 102.688535156 339.650039064 c 0
 105.058945314 354.317402345 97.924531252 360.725312499 89.023613282 364.822968749 c 1
 75.8308593754 363.545703124 46.7494921875 343.109746094 37.8693945313 340.555859374 c 1
 34.7150976563 417.704375001 l 1
 113.028183594 439.357636718 126.67529297 437.410039062 165.791816408 538 c 1
 267.852246092 547.195292968 294.226171876 558.59529297 261.38544922 465.91484375 c 1
 300.751933595 481.3990625 355.606894531 505.080078125 405.804082031 505.080078125 c 3
 481.915410158 505.080078125 544.440429688 419.703964844 525.231816408 303 c 0
 498.964121094 143.947636718 369.765683592 68.1256054687 240.935878908 30.4062109375 c 1
 216.65142578 24.4262109375 183.582578124 20.2334179687 163.508808595 19.8062109375 c 1
 156.924882812 -16.9951171876 145.033398438 -70.2939453125 146.608144531 -88.06 c 1
 147.353183594 -92.1024414062 192.956191406 -92.3997460934 217.008457031 -93.72 c 0
 232.347050782 -95.351640624 257.931132812 -98.205 272.253691408 -99.7 c 1
 265.19998047 -157.36 l 1
 211.25076172 -156.36 189.39138672 -156.36 148.588652344 -156.36 c 3
 108.747226563 -156.36 -6.5448828125 -170.100214844 -45.7281835938 -174 c 1
 -45.3502539063 -129.28 l 1
 -41.1989453126 -125.743769531 -37.4220703124 -123.433691406 -34.6097851563 -116.90140625 c 0
 -25.5167773437 -105.534589845 -16.3515625 -90.35296875 -5.18603515624 -66.705078125 c 0
 7.1826171875 -41.6279296875 31.3534960937 9.7899609374 44.6652929687 64.947265625 c 0
304.336953126 424.1 m 3
 253.895898437 424.1 254.167128906 412.139394532 243.587773438 387.821816408 c 1
 179.571816408 121.92 l 1
 199.057031248 107.317929688 222.149999998 96.3662109375 253.32263672 96.3662109375 c 3
 358.961894532 96.3662109375 375.836328126 157.1925 392.897597658 237.28 c 0
 415.797441408 343.987597656 379.361660155 424.1 304.336953126 424.1 c 3
EndSplineSet
Substitution2: "pcap-1" p.pcap
Substitution2: "smcp-1" p.smcp
EndChar
StartChar: q
Encoding: 113 113 16
Width: 487
VWidth: 1159
Flags: HMW
AnchorPoint: "Top" 350.66 537 basechar 0
LayerCount: 2
Fore
SplineSet
303.344375 136.626621092 m 1
 328.208593752 216.208046874 343.484667968 289.049160158 353.608398438 352.938359376 c 1
 353.608398438 362.883595575 351.100482626 374.710694751 336.81375 393.808984375 c 0
 319.316875002 415.729648438 287.02189453 419.78 264.99125 419.78 c 3
 216.288476562 419.78 157.783066405 342.32859375 155.7375 252.340214842 c 0
 151.727441408 167.881835937 163.822207031 119.84 212.393300782 119.84 c 3
 255.233574218 119.84 299.645410156 164.50078125 303.344375 136.626621092 c 1
282.660371092 66.549375 m 1
 217.318164063 35.3282421875 195.445898438 24.69140625 132.886015625 24.69140625 c 3
 38.694609375 24.69140625 9.0100390625 94.6201171875 9.0100390625 147.142578125 c 3
 9.0100390625 290.353515625 169.966796875 504 345.033554688 504 c 3
 404.216171875 504 414.670117188 479 433.13125 479 c 3
 448.479101562 479 471.225703125 507.477539062 476.96984375 514.122070312 c 1
 532.84 497 l 1
 531.049960938 491.533203125 524.532324218 477.132753905 521.206210938 468.755859375 c 0
 513.441640624 449.202148438 507.945078124 413.870468752 480.1678125 344.91796875 c 0
 469.348359375 316.633417969 438.708632812 209.281523438 426.526523438 158.9375 c 0
 394.733867188 27.8603124999 390.710078124 -32.0165625001 388.987832032 -59.3972070312 c 0
 387.054902344 -84.463847656 445.830058595 -90.3140429684 463.769140625 -96.689570312 c 0
 471.743378906 -101.469453125 496.118632812 -108.68 501.364921875 -108.68 c 1
 493.641289062 -168 l 1
 459.476230468 -167 405.122304688 -164 344.55796875 -164 c 3
 313.646835938 -164 218.948242188 -170.599609375 186.893554688 -175 c 1
 193.18359375 -110.36 l 1
 193.416308592 -111.344707032 190.273671874 -112.456445312 193.648710938 -107.676328124 c 0
 209.003183592 -96.015527345 224.313828124 -85.7408593754 237.093867188 -60.1775976562 c 0
 245.508085938 -47.6845898437 267.933710938 14.2802148438 282.660371092 66.549375 c 1
EndSplineSet
Substitution2: "pcap-1" q.pcap
Substitution2: "smcp-1" q.smcp
EndChar
StartChar: r
Encoding: 114 114 17
Width: 426
VWidth: 1159
Flags: HMW
AnchorPoint: "Bottom" 110.181 -15 basechar 0
AnchorPoint: "Top" 277.66 537 basechar 0
LayerCount: 2
Fore
SplineSet
112.490371092 311.810253908 m 1
 112.42185547 345.544863282 108.446523438 362.163398438 101.751484374 362.163398438 c 3
 99.157070312 362.163398438 81.9266992188 327.595332031 80.208984375 309.78 c 1
 37.9423828125 335.529023438 l 1
 63.3355664063 426.363378905 142.280546874 477.056738282 195.467460938 514.337890625 c 1
 234.486113281 507.28515625 251.356035155 469.979492188 251.6203125 419.352539062 c 0
 251.685742188 407.02265625 251.54609375 392.444531252 251.009960938 376.7 c 1
 296.361523438 439.100605469 378.830273438 502.601523436 402.49140625 508.896484375 c 1
 440.502148438 501.80859375 483.775585938 466.3671875 475.852734375 429.508789062 c 1
 455.177265625 342.349902344 409.864960938 300.789921876 346.501875 279.688417968 c 1
 339.943437499 306.842714844 328.777695312 339.427675782 308.053125 339.427675782 c 3
 278.768847658 339.427675782 238.142382812 311.261113282 219.22234375 232.431640625 c 0
 215.186894531 215.59359375 212.316015624 199.200273437 210.83953125 190.739257812 c 0
 203.596621092 149.241210938 199.414531252 117.328554688 197.254921875 97.8193359375 c 0
 195.777128908 85.8429882813 195.420253906 75.9134375 192.165898438 64.3782421875 c 0
 189.992734374 56.902265625 186.29154297 44.9068359375 183.34671875 37.67953125 c 0
 178.32888672 24.833515625 174.652109374 13.1565625 168.247734375 0.310546875 c 1
 158.990996092 0.9482421875 94.7180664062 -2.0263671875 80.898046875 -1.9833984375 c 1
 74.7665625 -1.9833984375 54.3631054688 -3.130859375 50.132578125 1.4580078125 c 1
 49.9161523437 9.48828125 54.6493749999 34.7036718749 55.320234375 39.314453125 c 0
 55.9595117188 43.796640625 56.8841406251 62.75046875 59.1271875 67.3331640625 c 0
 60.2911718751 69.6058398437 63.1180859375 92.379140625 65.218984375 97.8193359375 c 0
 71.3946679688 113.733398438 91.013027343 209.299765626 107.007421875 260.9378125 c 0
 113.30484375 277.029023438 112.38654297 297.820664063 112.490371092 311.810253908 c 1
EndSplineSet
Substitution2: "pcap-1" r.pcap
Substitution2: "smcp-1" r.smcp
EndChar
StartChar: s
Encoding: 115 115 18
Width: 377
VWidth: 1159
Flags: HMW
AnchorPoint: "Bottom" 127.181 -15 basechar 0
AnchorPoint: "Top" 271.66 537 basechar 0
LayerCount: 2
Fore
SplineSet
42.7520703124 165.592304688 m 1
 92.0005664063 100.905332031 166.110898438 68.5556835938 215.847226562 68.5556835938 c 3
 242.039851638 68.5556835938 179.141191408 33.5896093754 177.415390624 85.38234375 c 0
 175.884980468 136.562539062 137.309570312 195.344726562 117.436523438 226.380859375 c 0
 96.2294444525 259.500376683 75.7766601562 292.479921874 75.905390625 346.87890625 c 0
 75.9205573495 353.288068086 75.9050195312 360.182617188 75.9075 367.638671875 c 1
 82.0616796875 413 167.553789062 508.765625 281.416367188 508.765625 c 3
 295.59279297 508.765625 323.696660156 498.50185547 339.1265625 493.26 c 1
 344.8021875 473.883535156 351.972675781 417.51669922 366.023125 352.342265624 c 1
 293.87919922 297.490488282 l 1
 272.685664063 351.52171875 241.540136718 431.42 202.793457032 431.42 c 3
 191.907148438 431.42 187.342567051 429.497504253 187.320703126 425.496386718 c 0
 187.140947716 392.600988774 204.000878905 349.330781249 229.173457032 304.5 c 0
 260.742597658 252.148574218 291.469375 209.900351562 293.69640625 157.958007812 c 0
 298.159296875 53.2125390625 209.370234375 12.0690039063 152.796015625 -2.00390625 c 0
 129.40734375 -7.8212890625 99.673945312 -9.166015625 70.3126171875 -9.166015625 c 3
 36.8458203125 -9.166015625 3.671015625 -6.1083984375 -16.62 -1 c 1
 -5.56666015626 37.055859375 10.30125 109.545292969 14.7794140624 151.226679688 c 1
 42.7520703124 165.592304688 l 1
EndSplineSet
Substitution2: "pcap-1" s.pcap
Substitution2: "smcp-1" s.smcp
EndChar
StartChar: t
Encoding: 116 116 19
Width: 335
VWidth: 1159
Flags: HMW
AnchorPoint: "Bottom" 107.181 -15 basechar 0
AnchorPoint: "Top" 249.66 609 basechar 0
LayerCount: 2
Fore
SplineSet
61.901796875 482 m 1
 120.933808592 500.279355468 126.705859374 513.019296876 170.369570312 612.720703125 c 1
 280.765117188 613.879882812 l 1
 277.025664064 601.267675782 258.429667968 520.335000002 254.806171876 505.62 c 1
 272.928320312 505.015351562 329.559160158 511.34861328 347.68 510.791015625 c 1
 336.821269532 431.76 l 1
 318.569023437 434.26078125 257.498066406 431.897871094 239.246464842 433.68 c 1
 218.023320312 358.386250002 194.972207032 236.535449219 178.58955078 116.967304687 c 1
 177.854433594 106.226347656 180.661660156 98.17046875 190.738496092 98.17046875 c 3
 206.518437502 98.17046875 233.65671875 122.366835938 249.33328125 134.329648438 c 1
 249.33328125 134.329648438 267.863808592 102.763417969 279.031679688 74.0654296875 c 1
 240.995546875 41.509765625 179.956484375 -11 121.839296875 -11 c 3
 93.464550782 -11 32.0298242188 0.57693359375 37.4455078125 85.826640625 c 1
 44.5945507812 194.712539062 83.211328124 327.655585936 98.783046874 427.68 c 1
 98.783046874 427.68 72.3540234375 424.207871094 65.7465234375 423.34 c 1
 61.901796875 482 l 1
EndSplineSet
Substitution2: "pcap-1" t.pcap
Substitution2: "smcp-1" t.smcp
EndChar
StartChar: u
Encoding: 117 117 20
Width: 558
VWidth: 1159
Flags: HMW
AnchorPoint: "Bottom" 233.181 -15 basechar 0
AnchorPoint: "Top" 342.66 537 basechar 0
LayerCount: 2
Fore
SplineSet
440.575195312 496 m 1
 449.512695312 499.200195312 505.561523438 504 526.413085938 504 c 1
 560.783203124 504 583.009765625 503 583.998046876 497 c 1
 584.916015625 395.146484375 502.047851562 348.35546875 475.865234375 172.921875 c 0
 472.508789062 148.125976564 475.669921874 121.84375 475.685546874 93.3056640625 c 1
 475.547851562 89.662109375 476.623046874 87.83984375 478.682617188 87.83984375 c 3
 487.033203124 87.83984375 505.684570312 99.5224609375 534.934570312 119.62109375 c 1
 575 79.0537109375 l 1
 542.459960938 47.20703125 503.491210936 17.177734375 468.493164062 4 c 0
 451.420898438 -2.4375 427.962890626 -9 404.540039062 -9 c 3
 361.137695312 -9 342.848632812 19.2412109375 341.541015626 44.681640625 c 0
 340.097656251 72.6416015625 339.2265625 107.512695312 339.454101562 133.365234375 c 1
 285.08984375 84.673828125 201.1875 -8 128.713867188 -8 c 3
 93.415039064 -8 63 11 56.369140625 41 c 1
 54.3701171875 75.234375 73.6337890625 171.1328125 78.994140625 191.040039062 c 0
 92.583984375 249.655273438 116.810546874 305.956054688 118.842773438 364.35546875 c 0
 119.106445312 367.612304686 123.150390625 368.755859375 116.342773438 369 c 1
 104.185546875 369 66.659179688 297.294921875 82.5927734375 329.099609376 c 1
 47.0341796875 368.114257812 l 1
 77.40625 418.357421875 163.981445312 513 231.446289062 513 c 3
 274.333984374 513 290.274414062 490.996093749 281.643554688 462 c 1
 275.399414062 378.046875 269.430664062 459.032226564 225.188476564 291.451171876 c 0
 193.590820312 170.151367187 206.352539062 123.69921875 226.573242188 123.69921875 c 3
 247.345703126 123.69921875 303.710937501 196.446289062 349.284179688 212.296875 c 1
 360.171875 254.024414064 381.7890625 334.921875 384.946289064 345.161132812 c 0
 393.260742186 375.854492188 405.018554688 423.065429686 416.481445314 450.883789062 c 0
 423.995117186 469.173828125 434.520507812 485.026367188 440.575195312 496 c 1
EndSplineSet
Substitution2: "pcap-1" u.pcap
Substitution2: "smcp-1" u.smcp
EndChar
StartChar: v
Encoding: 118 118 21
Width: 444
VWidth: 1159
Flags: HMW
AnchorPoint: "Bottom" 127.181 -15 basechar 0
AnchorPoint: "Top" 265.66 537 basechar 0
LayerCount: 2
Fore
SplineSet
222.013242188 157.04 m 1
 371.234746092 303.025058595 332.364316408 372.530800782 332.364316408 428.444511718 c 3
 332.364316408 426.065703125 331.788417968 427.537304688 329.714453125 427.537304688 c 3
 318.680742188 427.537304688 322.014101562 429.033027344 316.290742188 434.417304688 c 1
 308.712539062 486.611328125 l 1
 335.750625 508.407226562 361.759414062 516.896484375 377.506484375 516.896484375 c 3
 433.235976562 516.896484375 465.933242188 483.701171875 465.933242188 434 c 3
 465.933242188 319.313476562 310.433886719 144.258144531 223.27796875 67.0029296875 c 0
 198.347304688 44.9033203125 162.889296875 13.2373046875 144.850234375 -14 c 1
 86.03375 -0.631171875 l 1
 82.5959375004 124.597089845 78.9701171872 235.017519532 78.9701171872 361.484296875 c 3
 78.9701171872 363.468671875 78.7552734372 368.301679688 76.9486328128 368.301679688 c 3
 69.852578125 368.301679688 47.9658789062 363.265332031 41.8219140625 359.69921875 c 1
 -1.28 411.197265625 l 1
 25.6723828125 435.483398438 125.062070313 507.043945312 161.526210938 507.043945312 c 3
 208.736503906 507.043945312 217.673242188 482.827148438 217.673242188 452 c 3
 217.673242188 352.929472656 219.732070313 234.379609374 222.013242188 157.04 c 1
EndSplineSet
Substitution2: "pcap-1" v.pcap
Substitution2: "smcp-1" v.smcp
EndChar
StartChar: w
Encoding: 119 119 22
Width: 687
VWidth: 1159
Flags: HMW
AnchorPoint: "Bottom" 220.181 -15 basechar 0
AnchorPoint: "Top" 418.66 537 basechar 0
LayerCount: 2
Fore
SplineSet
697.931796874 414.638671875 m 0
 706.958984375 282.192382812 556.555581642 138.4894526 456.400937502 67.1416015625 c 0
 420.744023438 41.7572070312 371.230253908 6.056640625 351.042031252 -12.8359375 c 1
 309.737343752 -1.849609375 l 1
 308.836953124 78.1721212477 324.261757813 178.890570358 333.638710938 321 c 1
 293.019249755 235.402515134 157.1810164 24.6040949659 71.0185937501 -15 c 1
 27.9795312501 3.6435546875 l 1
 49.8563085937 122.086132813 83.552510382 305.960859854 83.568925782 350.181132812 c 0
 83.571523437 356.984179687 83.85548828 387.01078125 73.105527343 387.01078125 c 3
 58.769609375 387.01078125 44.000390625 368.831035158 34.7832421876 355.959492188 c 1
 3.6807421876 401.887578125 l 1
 27.6626367187 422.275234376 103.008164062 511 161.002539063 511 c 3
 225.804511719 511 232.171972655 433.763574219 232.171972655 390.601386718 c 0
 232.171972655 359.81470703 187.051406251 151.472480468 185.551289063 185.22 c 1
 217.703847656 225.951796874 267.951914062 333.806132812 381.053242188 500.86328125 c 1
 468.376132813 503.19140625 l 1
 475.378828126 361.683042742 452.532324218 227.333000625 447.776738281 135.42 c 1
 463.396308595 158.332279342 568.979019785 316.462264714 566.220429687 402.734726562 c 0
 565.99748047 408.88736328 563.474648438 416.658867187 555.812617187 416.658867187 c 3
 549.055976562 416.658867187 552.981132812 418.036972655 551.027500002 423 c 1
 525.386875002 477 l 1
 555.897617188 501.662109375 587.626132813 511.268554688 607.408359374 511.268554688 c 3
 668.719882813 511.268554688 693.957991814 472.62318089 697.931796874 414.638671875 c 0
EndSplineSet
Substitution2: "pcap-1" w.pcap
Substitution2: "smcp-1" w.smcp
EndChar
StartChar: x
Encoding: 120 120 23
Width: 523
VWidth: 1159
UnlinkRmOvrlpSave: 1
Flags: HW
AnchorPoint: "Bottom" 205.181 -15 basechar 0
AnchorPoint: "Top" 332.66 537 basechar 0
LayerCount: 2
Fore
SplineSet
310.709277342 281.92 m 1
 363.027656248 139.326015625 373.335273438 104.1 400.384003906 104.1 c 3
 396.855214842 104.1 422.080078125 134.238632811 441.994980469 169.904296875 c 1
 498.570214842 119.667890625 l 1
 457.510371095 53.66453125 411.592539063 -9.83984375 337.21220703 -9.83984375 c 3
 237.831621094 -9.83984375 227.00220703 129.145390625 208.981191406 198 c 1
 208.752617188 198.760683592 198.015917969 229.072128906 197.661191406 230.72 c 1
 188.466777344 238.678574218 172.340898438 379.96 133.721191406 379.96 c 3
 126.71296875 379.96 108.473535155 338.585214842 92.911464842 308.254726562 c 1
 27.7328710938 333.071640625 l 1
 56.0967578124 445.469824218 104.35283203 509 209.101191406 509 c 3
 279.042597656 509 283.28673828 396.372558594 298.705683592 322.64 c 1
 299.181718752 320.485156252 310.333066406 282.622089844 310.709277342 281.92 c 1
242.989746092 190 m 1
 114.480761719 25.050625 136.512070312 -10 48.5273632813 -10 c 3
 -8.78837890624 -10 -25.1922265626 24.7203906251 -26.3413085937 58.919921875 c 0
 -26.9467773437 79.4060351562 -22.3676757812 104.441367187 -10.0190429687 142.09921875 c 1
 57.1611914063 126.24 l 1
 64.5930468749 130.847617188 90.25390625 124.02 92.4472460937 124.02 c 3
 104.136425781 124.02 216.475585938 294.758066408 194.341191406 249.06 c 1
 195.547070312 250.458281248 261.060312498 320.866640626 262.311035156 323 c 1
 334.972167969 432.552734375 375.135253906 506 435.103027342 506 c 3
 499.15310547 506 526.728886719 445.450351563 527.68376953 435.674179688 c 0
 528.551054688 413.992363282 520.917324218 393.223515625 512.561191406 373.74 c 1
 450.00548828 372.519726562 l 1
 437.978632812 369.86048828 446.572929688 376.96 444.521191406 376.96 c 3
 363.756992188 376.96 348.706230468 337.238886718 295.481191406 257.94 c 1
 294.512167969 256.815019531 244.003300782 191.239140625 242.989746092 190 c 1
EndSplineSet
Substitution2: "smcp-1" x.smcp
Substitution2: "pcap-1" x.pcap
EndChar
StartChar: y
Encoding: 121 121 24
Width: 452
VWidth: 1159
Flags: HMW
AnchorPoint: "Top" 298.66 537 basechar 0
LayerCount: 2
Fore
SplineSet
158.864257812 -173 m 1
 154.257871094 -173 73.6290625001 -173 2.215625 -173 c 1
 -65.08625 -173 -72.6191601563 -173 -121.731210937 -174.084960938 c 1
 -121.731210937 -174.084960938 -111.678574219 -128.168125002 -108.066601562 -107.198242188 c 1
 -31.63140625 -89.152304688 53.5872070313 -76.643515625 134.354941408 30.46 c 1
 145.981953124 55.0853124996 146.075371094 85.252382812 146.075371094 114.577695312 c 3
 146.075371094 176.572734375 100.258222656 377.443847658 88.210683594 377.443847658 c 3
 75.5868359376 377.443847658 59.9412109375 332.017929688 58.2242578125 315.26 c 1
 14.4508203125 348.774648438 l 1
 55.4552539062 444.799804688 120.930664063 510 159.859023438 510 c 3
 232.10609375 510 268.276015625 458.829101562 268.276015625 316.2734375 c 3
 268.276015625 283.186679688 271.307382813 245.533339845 269.024257812 207.88 c 1
 324.996113282 322.186152344 338.786132812 430.029492186 359.842539062 507.27734375 c 1
 368.944355469 506.720703125 488.354082032 502.508789062 509.034804688 501.8515625 c 1
 511.881484375 499.587890625 507.011367188 486.181640625 499.788710938 470.37890625 c 0
 489.697890625 448.298828125 474.416816406 421.839101562 470.374648438 413.946289062 c 0
 452.813105469 379.642578125 339.819003908 209.561894531 235.044257812 20 c 0
 209.801367188 -25.7784375001 172.515332032 -136.172851562 158.864257812 -173 c 1
EndSplineSet
Substitution2: "pcap-1" y.pcap
Substitution2: "smcp-1" y.smcp
EndChar
StartChar: z
Encoding: 122 122 25
Width: 424
VWidth: 1159
Flags: HMW
AnchorPoint: "Bottom" 140.181 -15 basechar 0
AnchorPoint: "Top" 289.66 537 basechar 0
LayerCount: 2
Fore
SplineSet
109.999296875 27.4306640625 m 3
 81.2455468751 27.4306640625 29.7279882813 -6.62859375 35.5776953125 -3.8271484375 c 1
 13.5425195312 -3.8271484375 -15.3003710937 16.813046875 -16.28 35.4106640625 c 1
 24.2205273438 136.776250002 -3.931425782 75.124863282 233.234121092 344.66 c 1
 228.15892578 344.153164062 217.458730469 344.0271875 209.640371092 344.280117188 c 1
 181.021445313 353.916464842 159.010351562 376.042070312 136.922246092 376.069277344 c 1
 114.767382812 368.817207032 110.278906248 358.26888672 95.77671875 343.10484375 c 1
 69.182910156 343.10484375 61.58421875 352.10484375 60.38953125 377.002304688 c 1
 57.9082617188 408.007285155 134.726757813 520.862304688 172.30203125 520.862304688 c 1
 188.679960938 514.137695312 201.999296875 490.603515625 263.595976562 485 c 1
 339.826406249 476.25625 372.956621094 481.5025 390.615976562 512.98 c 1
 435.402617188 482.241210938 l 1
 359.077070312 317.984355468 136.180058594 158.130292968 143.388574218 106.929179688 c 1
 149.233222658 109.088632813 154.549218752 110.05109375 159.429550782 110.05109375 c 3
 262.807714842 110.05109375 285.179902344 16.1349023438 381.788320312 16.1349023438 c 3
 391.624648438 16.1349023438 404.478125002 13.3764648437 405.343125 18.669453125 c 1
 423.002656252 18.669453125 431.445996094 3.5202734375 431.632109375 -10.6728515625 c 1
 436.709472656 -68.1019531249 383.663964844 -126.9 293.293027342 -126.9 c 3
 224.134121092 -126.9 156.547773438 27.4306640625 109.999296875 27.4306640625 c 3
EndSplineSet
Substitution2: "pcap-1" z.pcap
Substitution2: "smcp-1" z.smcp
EndChar
StartChar: braceleft
Encoding: 123 123 336
Width: 266
Flags: HW
HStem: -175.7 58.4189<185.247 248.64> 651.881 58.4189<185.247 248.64>
VStem: 77.791 86.918<-97.6695 72.4623 462.137 632.269> 100.291 93.418<25.3273 196.606 337.993 509.272>
LayerCount: 2
Fore
SplineSet
248.639648438 710.299804688 m 1
 248.639648438 710.299804688 248.639648438 670.664433592 248.639648438 647.880859375 c 1
 228.323413662 651.221306367 195.708984375 629.710374482 195.708984375 589 c 3
 195.708984375 498.769445312 231.708984375 482.467203125 231.708984375 408 c 3
 231.708984375 356.587843853 191.365609375 286.696023996 173.348632812 267.299804688 c 1
 191.365609375 247.903702051 231.708984375 178.012230622 231.708984375 126.599609375 c 3
 231.708984375 52.1317828125 195.708984375 35.830900625 195.708984375 -54.400390625 c 3
 195.708984375 -95.1119387944 228.323413662 -116.621693064 248.639648438 -113.28125 c 1
 248.639648438 -175.700195312 l 1
 161.652297918 -178.738724827 77.791015625 -141.066685173 77.791015625 -5.7001953125 c 3
 77.791015625 54.2272067041 100.291015625 86.5951077933 100.291015625 133.599609375 c 3
 100.291015625 173.661758319 72.1739509796 223.647885162 11.5 242.16015625 c 1
 11.5 292.439453125 l 1
 72.1739509796 310.951106962 100.291015625 360.938069872 100.291015625 401 c 3
 100.291015625 448.003934096 77.791015625 480.371888713 77.791015625 540.299804688 c 3
 77.791015625 675.666331003 161.652297918 713.338331003 248.639648438 710.299804688 c 1
EndSplineSet
Position2: "cpsp-1" dx=0 dy=0 dh=50 dv=100
Position2: "'case' vertical ajustments for all-caps-1" dx=0 dy=90 dh=0 dv=0
EndChar
StartChar: AE
Encoding: 198 198 319
Width: 994
Flags: W
HStem: -13.8818 66.9883<382.69 436.153> -5.96777 72.333<-33.318 31.2273 126.86 160.71> 3.30371 72.6982<548.339 826.198> 189.197 66.0635<253.436 461.632> 306.281 68.3682<607.623 773.102> 612.051 67.0889<438.65 462.136 656.476 860.24> 667.216 20G<928.019 949.927>
VStem: 777.535 66.8555<264.17 305.627> 874.631 60.2725<531.141 602.006>
AnchorPoint: "Ogonek" 803.421 23.6582 basechar 0
AnchorPoint: "Top" 644.127 699 basechar 0
AnchorPoint: "Bottom" 481.733 -15 basechar 0
LayerCount: 2
Back
SplineSet
503.130859375 684 m 5xa6
 566.493164062 681 677.267578125 679 773.267578125 679 c 7xb6
 849.904296875 679 919.961914062 681 938.768554688 687 c 5x2e
 957.368164062 671 962.029296875 660 959.266601562 647 c 4
 956.94921875 629 944.352539062 593 935.16015625 531 c 5
 875.09765625 526 l 5
 876.23046875 554 863.688476562 599.555664062 853.701171875 602 c 4
 823.743164062 609.33203125 783.168945312 612 741.827148438 612 c 7
 719.827148438 612 690.614257812 611 672.401367188 610 c 4
 664.189453125 609 657.551757812 606 655.213867188 595 c 4
 638.909179688 523 622.479492188 441 607.23828125 374 c 5
 643.936523438 376 773.403320312 374 777.509765625 375 c 4
 786.616210938 376 787.1953125 397 801.633789062 429 c 5
 866.237304688 416 l 5
 854.798828125 384 848.575195312 357 845.3515625 327 c 4
 843.203125 307 843.946289062 288 846.3671875 264 c 5
 781.326171875 252 l 5
 768.946289062 295 780.094726562 306 772.094726562 306 c 4
 744.436523438 305 636.84375 304 591.572265625 305 c 5
 573.080078125 218 558.263671875 153 547.935546875 95 c 4
 544.747070312 80 551.321289062 78 557.321289062 78 c 4
 596.321289062 78 638.109375 77 673.109375 77 c 7
 711.109375 77 746.321289062 78 780.534179688 79 c 4
 818.958984375 81 832.998046875 100 882.6015625 164 c 5
 936.712890625 141 l 5
 908.747070312 80 894.858398438 57 870.7421875 0 c 5
 779.104492188 -3 683.955078125 1 592.955078125 1 c 7x76
 512.955078125 1 440.7421875 0 376.766601562 -14 c 5
 375.583007812 51 l 5
 415.283203125 59 436.983398438 67 438.68359375 75 c 5
 446.760742188 113 471.567382812 225 497.287109375 346 c 4
 524.494140625 474 548.36328125 591 550.701171875 602 c 4
 551.9765625 608 527.9765625 608 493.614257812 611 c 5
 503.130859375 684 l 5xa6
EndSplineSet
Fore
SplineSet
438.650390625 684.215820312 m 1x5980
 524.905273438 681.030273438 641.420898438 679.139648438 770.998046875 679.139648438 c 0x5d80
 873.8828125 679.139648438 915.418945312 681.123046875 940.618164062 687.215820312 c 1x1b80
 959.235351562 670.905273438 964.091796875 660.729492188 961.245117188 647.3359375 c 0
 957.430664062 629.392578125 945.260742188 592.849609375 934.903320312 531.140625 c 1
 874.630859375 526.313476562 l 1
 874.12109375 554.799804688 865.361328125 601.423828125 849.607421875 603.708007812 c 0
 820 608 786.916992188 612.05078125 740.030273438 612.05078125 c 0
 717.87890625 612.05078125 692.786132812 611.501953125 674.1953125 610.302734375 c 0
 665.916992188 609.741210938 659.766601562 606.453125 657.223632812 595.010742188 c 0
 641.31640625 522.559570312 622.904296875 441.46875 607.623046875 374.279296875 c 1
 653.180664062 376.380859375 776.245117188 374.240234375 781.627929688 374.649414062 c 0
 790.337890625 375.49609375 790.420898438 397.689453125 808.002929688 429.393554688 c 1
 871.11328125 415.997070312 l 1
 856.12109375 383.731445312 851.220703125 357.520507812 844.825195312 327.434570312 c 0
 840.47265625 306.954101562 844.567382812 287.9140625 844.390625 264.169921875 c 1
 777.53515625 245.1171875 l 1
 769.36328125 288.19140625 776.302734375 306.1484375 768.592773438 306.28125 c 0
 734.934570312 305.731445312 647.008789062 304.29296875 591.149414062 305.376953125 c 1
 571.874023438 215.100585938 558.676757812 154.397460938 547.3203125 94.3759765625 c 0
 544.606445312 79.5400390625 550.51953125 76.8720703125 556.509765625 76.7763671875 c 0
 595.573242188 76.3486328125 636.236328125 76.001953125 671.103515625 76.001953125 c 0
 708.654296875 76.001953125 744.142578125 76.5 778.45703125 77.97265625 c 0
 816.487304688 79.498046875 833.200195312 100.654296875 882.061523438 163.546875 c 1
 935.0078125 141.235351562 l 1
 907.533203125 80.6796875 893.329101562 58.7255859375 869.182617188 1.9365234375 c 1
 777.290039062 -0.6875 682.387695312 3.3037109375 591.520507812 3.3037109375 c 0x3d80
 511.752929688 3.3037109375 449.153320312 0.09765625 385.091796875 -13.8818359375 c 1
 362.10546875 53.1064453125 l 1x9980
 402.045898438 60.73046875 435.728515625 69.0830078125 437.461914062 77.1767578125 c 0
 441.951171875 97.5634765625 450.634765625 137.842773438 461.631835938 189.197265625 c 1
 374.174804688 189.956054688 316.890625 190.465820312 205.321289062 191.515625 c 1
 130.290039062 98.171875 l 2
 111.684570312 76.142578125 147.743164062 71.9794921875 178.879882812 66.365234375 c 1
 158.762695312 -5.9677734375 l 1
 130.192382812 0.8916015625 80.49609375 3.4072265625 44.7822265625 3.4072265625 c 0
 15.830078125 3.4072265625 -13.095703125 1.6005859375 -38.2080078125 -1.1396484375 c 1
 -36.5185546875 15.41015625 -34.3984375 39.904296875 -33.134765625 63.451171875 c 1
 17.3330078125 73.794921875 24.216796875 79.51953125 42.5576171875 99.3974609375 c 2
 462.135742188 609.966796875 l 1
 449.342773438 610.375 435.161132812 610.83984375 419.607421875 611.421875 c 1
 438.650390625 684.215820312 l 1x5980
538.791015625 606.375976562 m 1
 253.435546875 251.374023438 l 1
 320.614257812 250.533203125 421.8671875 254.856445312 475.749023438 255.260742188 c 1
 494.819335938 344.650390625 548.5859375 599.043945312 549.232421875 602.430664062 c 0
 549.571289062 604.212890625 546.071289062 605.4453125 538.791015625 606.375976562 c 1
EndSplineSet
Position2: "cpsp-1" dx=0 dy=0 dh=50 dv=111
Substitution2: "c2pc-1" ae.pcap
Substitution2: "c2sc-1" ae.smcp
EndChar
StartChar: germandbls
Encoding: 223 223 327
Width: 534
VWidth: 1159
Flags: HW
LayerCount: 2
Back
SplineSet
225.477539062 107.295898438 m 5
 256.787109375 74.2861328125 303.904296875 57.7783203125 335.525390625 57.7783203125 c 7
 381.249023438 57.7783203125 401.03125 87.9892578125 399.846679688 119.69140625 c 4
 398.379882812 157.92578125 369.255859375 198.672851562 335.52734375 230.190429688 c 4
 301.135742188 262.5234375 271.57421875 285.831054688 268.317382812 346.87890625 c 4
 267.977539062 353.288085938 268.229492188 360.182617188 269.149414062 367.638671875 c 5
 275.004882812 413 356.353515625 508.765625 464.698242188 508.765625 c 7
 487.505859375 508.765625 515.491210938 495.002929688 534.028320312 484.129882812 c 5
 537.739257812 471.623046875 542.426757812 435.239257812 551.61328125 393.170898438 c 5
 488.541992188 359.245117188 l 5
 477.5390625 397.346679688 456.44140625 442.209960938 424.998046875 442.209960938 c 7
 386.64453125 442.209960938 350.676757812 412.225585938 351.76171875 386.748046875 c 4
 353.06640625 354.265625 377.377929688 321.2109375 415.688476562 283.75 c 4
 457.97265625 242.07421875 484.146484375 202.559570312 486.108398438 157.958007812 c 4
 490.571289062 56.5322265625 401.782226562 12.068359375 345.208007812 -2.00390625 c 4
 321.819335938 -7.8212890625 292.0859375 -9.166015625 262.724609375 -9.166015625 c 7
 229.2578125 -9.166015625 196.083007812 -6.1083984375 175.791992188 -1 c 5
 183.434570312 24.5576171875 194.407226562 73.23828125 197.504882812 101.23046875 c 5
 225.477539062 107.295898438 l 5
EndSplineSet
Fore
SplineSet
536.576171875 592 m 0
 517.298828125 501.306640625 371.25390625 428 374.76171875 386.748046875 c 0
 378.55859375 342.071289062 400.526367188 321.362304688 438.688476562 283.75 c 0
 480.97265625 242.07421875 507.145507812 202.559570312 509.108398438 157.958007812 c 0
 513.571289062 56.5322265625 424.782226562 12.0673828125 368.208007812 -2.00390625 c 0
 344.819335938 -7.8212890625 315.0859375 -9.166015625 285.724609375 -9.166015625 c 3
 252.2578125 -9.166015625 219.083007812 -6.1083984375 198.791992188 -1 c 1
 209.418945312 36.8818359375 224.67578125 109.036132812 228.982421875 150.526367188 c 1
 256.955078125 156.591796875 l 1
 306.487304688 97.9052734375 381.026367188 68.556640625 431.05078125 68.556640625 c 3
 403.072265625 68.556640625 391.905273438 76.283203125 391.692382812 86.3828125 c 0
 390.083984375 131.01953125 358.926757812 180.534179688 320.0546875 215.380859375 c 0
 301.466796875 229.68359375 259.287109375 243.391601562 262.298828125 323.27734375 c 0
 271.375976562 447.022460938 377.44140625 434.903320312 402.751953125 561 c 0
 414.358398438 634.166992188 344.338867188 648 306.3125 648 c 3
 240.808892036 648 240.115775643 499.836992109 225.169921876 435.0390625 c 0
 141.203125 71 125.960443886 -23.3515626047 117.84765625 -53 c 0
 104.481254293 -101.84793605 95.1305633156 -129.104492188 76.619140625 -171 c 1
 53.0625214144 -169.169921875 55.4176815257 -167.33984375 -43.522460937 -167.33984375 c 3
 -73.781524876 -167.33984375 -119.890861894 -172.66852702 -137.182617188 -174 c 1
 -143 -107.360351562 l 1
 -96.765625 -94.520799103 -66.4736656206 -91.2543891645 -47.017578125 -60 c 0
 16.5615234375 42.1376953125 93.6015625 406 110.490234375 493.169921875 c 0
 136.487304688 627.354492188 210.649414062 670.310546875 293.4453125 713.6796875 c 0
 323.584960938 729.467773438 373.467773438 749 404.948242188 749 c 3
 503.076171875 749 549.8046875 667.819335938 536.576171875 592 c 0
EndSplineSet
Substitution2: "pcap-1" uni1E9E.pcap
Substitution2: "smcp-1" uni1E9E.smcp
EndChar
StartChar: Iogonek
Encoding: 302 302 259
Width: 468
UnlinkRmOvrlpSave: 1
Flags: HW
HStem: -177.1 78.1279<215.688 317.275> -8 21G<69.1579 95.5 360.5 387.389> 4.44336 50.457<279.326 297.784> 672 20G<74.4211 102.5 362 391.026>
VStem: 142.79 98.4385<-124.77 -33.6343> 179 106<67.4773 555.247>
LayerCount: 2
Fore
SplineSet
261.791015625 4.443359375 m 5xb8
 180.247111204 -20.4562133698 167.953125 -53.8974991518 167.953125 -67.099609375 c 7
 167.953125 -87.1086024517 178.278930683 -98.9716796875 191.344726562 -98.9716796875 c 7
 204.035635316 -98.9716796875 219.273270805 -96.3918459311 234.909179688 -90.69921875 c 5
 234.909179688 -90.69921875 247.237831639 -118.986437988 250.223632812 -141.099609375 c 5
 225.379997535 -166.10445148 183.523539885 -177.099609375 145.34375 -177.099609375 c 7
 101.306547436 -177.099609375 62.3232421875 -148.606137637 62.3232421875 -100.934570312 c 7
 62.3232421875 -45.5687193845 113.940983962 19.2385619202 246.884765625 54.900390625 c 5
 261.791015625 4.443359375 l 5xb8
EndSplineSet
Refer: 34 73 N 1 0 0 1 0 0 3
Position2: "cpsp-1" dx=0 dy=0 dh=50 dv=100
Substitution2: "c2pc-1" iogonek.pcap
Substitution2: "c2sc-1" iogonek.smcp
EndChar
StartChar: iogonek
Encoding: 303 303 260
Width: 284
UnlinkRmOvrlpSave: 1
Flags: HW
HStem: -177.1 75.1279<147.727 234.339> 612.7 132.6<146.865 257.135>
VStem: 88.79 79.4385<-124.77 -30.3803> 134.4 135.2<624.969 733.079>
LayerCount: 2
Fore
SplineSet
183 32 m 1xe0
 136 -14 103.811213683 -53.7128247822 100.965820312 -67.099609375 c 0
 96.3125 -88.9921875 106.870117188 -101.971679688 123.719726562 -101.971679688 c 3
 132.694335938 -101.971679688 144.216796875 -98.4560546875 156.922851562 -90.69921875 c 1
 156.922851562 -90.69921875 171.86328125 -118.986328125 172.237304688 -141.099609375 c 1
 146.49609375 -166.104492188 109.74609375 -177.099609375 78.3564453125 -177.099609375 c 3
 35.810546875 -177.099609375 4.20301626718 -148.606422201 14.3359375 -100.934570312 c 0
 26.1796875 -45.2138671875 78 14 143 73 c 5
 183 32 l 1xe0
EndSplineSet
Refer: 8 105 N 1 0 0 1 0 0 3
Substitution2: "smcp-1" iogonek.smcp
Substitution2: "pcap-1" iogonek.pcap
EndChar
StartChar: dotlessi
Encoding: 305 305 50
Width: 284
VWidth: 1159
Flags: HMW
AnchorPoint: "Bottom" 92.1807 -15 basechar 0
AnchorPoint: "Top" 207.66 537 basechar 0
LayerCount: 2
Fore
SplineSet
174.36 245.162109375 m 0
 170.080214844 217.880001395 168.56 171.525497518 170.22 165.219023438 c 1
 171.88 154.439160157 175.491704798 152.060149741 182.52 157.323828125 c 1
 175.437021276 152.001291074 190.144887547 159.836970565 193.46 161.5884375 c 1
 232.82 115 l 1
 176.28537954 36.4401289063 121.371426339 -11 88.56 -11 c 3
 41.6188852502 -11 26.24 36.0992086966 26.24 85.323203125 c 3
 26.24 140.185567331 51.3862794088 191.458623537 67.22 245.3515625 c 0
 71.286701004 258.386121211 86.083721888 301.036064653 84.36 339.08 c 0
 84.606132813 341.900557155 84.36 344.12013569 83.36 344.4 c 1
 81.268270887 344.4 62.7309090906 319.114545456 71.42 336.42 c 1
 36.06 385.647265625 l 1
 65.4535824425 427.729043912 160.045025698 507 207.9 507 c 3
 264.01128551 507 254.853713022 482.222807388 250.92 448.813476562 c 0
 249.922 440.328057454 244.04350536 426.712533451 240.94 419.720703125 c 0
 220.597327009 373.89884668 177.89332913 264.355623134 174.36 245.162109375 c 0
EndSplineSet
Substitution2: "pcap-1" i.pcap
Substitution2: "smcp-1" i.smcp
EndChar
StartChar: uogonek
Encoding: 371 371 262
Width: 558
UnlinkRmOvrlpSave: 1
Flags: HW
HStem: -177.1 75.1279<393.56 480.172>
VStem: 334.623 79.4385<-124.77 -34.6367>
LayerCount: 2
Fore
SplineSet
446.833007812 4 m 1
 380.833007812 -28 358.251953125 -55.55859375 355.798828125 -67.099609375 c 0
 351.145507812 -88.9921875 361.703125 -101.971679688 378.552734375 -101.971679688 c 3
 387.52734375 -101.971679688 399.049804688 -98.4560546875 411.755859375 -90.69921875 c 1
 411.755859375 -90.69921875 426.696289062 -118.986328125 427.0703125 -141.099609375 c 1
 401.329101562 -166.104492188 364.579101562 -177.099609375 333.189453125 -177.099609375 c 3
 290.643554688 -177.099609375 259.036132812 -148.606445312 269.168945312 -100.934570312 c 0
 280.2578125 -48.7666015625 328.833007812 9 431.927734375 54.45703125 c 1
 446.833007812 4 l 1
EndSplineSet
Refer: 20 117 N 1 0 0 1 0 0 3
Substitution2: "smcp-1" uogonek.smcp
Substitution2: "pcap-1" uogonek.pcap
EndChar
StartChar: longs
Encoding: 383 383 445
Width: 281
VWidth: 1159
Flags: HW
HStem: -6 36<-0.268945 63.1019 180.901 250.299> 1 32<157.35 247.749> 356 25<11.7311 33.0493> 701 55<239.19 342.848>
VStem: 78.7311 72<42.1466 356 403 602.768>
AnchorPoint: "Top" 231.731 735 basechar 0
LayerCount: 2
Back
SplineSet
263.6015625 749 m 3
 300.6015625 749 343.6015625 741 375.6015625 721 c 1
 380.6015625 688 350.6015625 651 329.6015625 637 c 1
 294.6015625 657 259.6015625 670 231.6015625 670 c 3
 175.6015625 670 161.4609375 639.020507812 149.6015625 556 c 0
 141.064453125 496.244140625 135.6015625 357.868164062 135.6015625 304 c 3
 135.6015625 233 142.6015625 134 150.6015625 92 c 0
 154.6015625 71 164.607421875 65.1103515625 184.6015625 64 c 0
 202.6015625 63 222.6015625 62 240.6015625 61 c 1
 235.6015625 -8 l 1
 192.6015625 -3 132.6015625 1 83.6015625 1 c 3
 52.6015625 1 4.6015625 -4 -23.3984375 -7 c 1
 -25.3984375 59 l 1
 -13.3984375 60 0.5849609375 60.1025390625 12.6015625 62 c 0
 31.6015625 65 38.7080078125 68.984375 40.6015625 82 c 0
 48.6015625 137 52.6015625 214 52.6015625 280 c 3
 52.6015625 307 52.6015625 388 50.6015625 437 c 1
 26.6015625 437 0.6015625 437 -26.3984375 437 c 1
 -26.3984375 493 l 1
 -1.3984375 494 25.6015625 497 47.6015625 499 c 1
 45.6015625 534 44.6015625 545 44.6015625 558 c 3
 44.6015625 614 91.892578125 655.6328125 143.6015625 697 c 0
 173.6015625 721 226.6015625 749 263.6015625 749 c 3
EndSplineSet
Fore
SplineSet
490.885742188 754 m 3
 512.811522195 754 579.711687863 724.283294922 598 699.138671876 c 1
 588.262695312 654.526367188 570.733398438 642.959960938 469.462890624 600 c 1
 439.005172285 620.239815327 406.85267613 663.140625 375.548828124 663.140625 c 3
 325.5 663.140625 318.122070312 606.924804688 261.4296875 494.0390625 c 0
 232.924804686 507 146.926757812 6.998046875 138.478515625 -53 c 0
 126.232421875 -102.791992188 105.321289062 -130.634765626 83.1708984375 -171 c 1
 59.6533203125 -169.33984375 62.0048828125 -167.6796875 -36.771484375 -167.6796875 c 3
 -67.36328125 -167.6796875 -113.979492188 -172.736328125 -131.4609375 -174 c 1
 -137.278320314 -105.720703124 l 1
 -84.7939453125 -96.493164062 -35.0546875 -75.744140625 -27.1865234375 -60 c 0
 45.8447265625 62.275390625 113.102539062 480.7734375 114.151367188 492.33984375 c 0
 145.234375 656.708984376 208.118164062 664.883789062 301.346679686 710.359375 c 0
 351.063476562 734.720703125 410.859375001 754 490.885742188 754 c 3
EndSplineSet
Substitution2: "pcap-1" s.pcap
Substitution2: "smcp-1" s.smcp
EndChar
StartChar: ohorn
Encoding: 417 417 448
Width: 529
UnlinkRmOvrlpSave: 1
Flags: HW
HStem: -11 74<235.444 375.354> 365.36 24.3843<359.365 431.492> 440 77<194.197 334.68> 480.219 20G<483.349 507.342>
VStem: 29.7609 100<179.83 346.467> 435.761 104<152.433 329.656> 452.262 86.0273<403.736 481.559>
AnchorPoint: "Middle" 284.472 252.853 basechar 0
AnchorPoint: "Bottom" 277.775 -15 basechar 0
AnchorPoint: "Top" 274.775 537 basechar 0
LayerCount: 2
Fore
SplineSet
362.361328125 496.864257812 m 1
 383.467773438 487.794921875 412.703125 471.524414062 436.635742188 471.524414062 c 3
 451.83203125 471.524414062 475.327148438 486.7265625 481.336914062 515 c 0xf4
 484.881835938 531.677734375 478.09375 547.462890625 462.188476562 566.520507812 c 1
 489.734375 598.009765625 523.495117188 615.90625 552.29296875 615.90625 c 3
 597.947265625 615.90625 616.57421875 579.580078125 607.954101562 539.022460938 c 0
 592.911132812 468.252929688 497.831054688 418.220703125 430.413085938 418.220703125 c 3
 409.391601562 418.220703125 394.633789062 422.594726562 384.374023438 430.490234375 c 1
 366.977539062 443.875976562 362.509765625 467.384765625 362.361328125 496.864257812 c 1
EndSplineSet
Refer: 14 111 N 1 0 0 1 -0.239137 0 2
Substitution2: "smcp-1" ohorn.smcp
Substitution2: "pcap-1" ohorn.pcap
EndChar
StartChar: Uhorn
Encoding: 431 431 760
Width: 824
UnlinkRmOvrlpSave: 1
Flags: HW
HStem: -10 54<307.477 561.43> 650 40<24.125 104.17 214.225 299.778>
VStem: 109 87<142.768 548.313> 114 90<339.122 637.531> 674 55<149.172 589.445> 675 61<264.986 633.624> 835.914 95.1875<693.753 774.81>
AnchorPoint: "Ogonek" 504.679 23.6582 basechar 0
AnchorPoint: "Top" 567.326 679 basechar 0
AnchorPoint: "Bottom" 416.812 -15 basechar 0
LayerCount: 2
Back
SplineSet
784 642 m 0xc6
 761.478546471 636.66795393 740.04456668 635.741559345 736 590 c 0xc6
 735.091705198 579.727744928 731.787772597 469.658489995 729 255 c 0
 728 178 703.339117404 117.635735037 662 74 c 0
 608 17 523 -10 412 -10 c 3
 299 -10 220.090904911 16.0950453125 172 62 c 0
 128 104 109 163 109 236 c 0xea
 109 266.168539326 114 578.915730337 114 594 c 0
 114 638 102 641 20 650 c 1
 25 690 l 1
 55 686.5 103.25 684.75 154.125 684.75 c 0
 205 684.75 258.5 686.5 299 690 c 1
 303 654 l 1
 235 648 204 646.009090158 204 591 c 0xd2
 204 583.958083832 196 287.191616766 196 255 c 0
 196 196 207.684535021 144.717092872 240 109 c 0
 278 67 345 44 453 44 c 3
 479 44 562.229152898 44.763500117 619 100 c 0
 656 136 668.983205589 181.001106759 674 257 c 0xea
 680 347.893371758 678.9219485 497.10161583 675 589 c 0
 673 635.863636364 645 650.568181818 579 652 c 1
 581 692 l 1
 621.355554481 685.58960168 705.122701859 680.796875 775.796875 680.796875 c 3
 803.822832579 680.796875 835.9140625 687.672407215 835.9140625 719.4453125 c 3
 835.9140625 734.991660599 824.343297353 747.24382169 805.458984375 760.080078125 c 1
 817.774221442 790.721679688 842.434890552 810 869 810 c 3
 906.495832074 810 931.1015625 781.841796875 931.1015625 752.943359375 c 3
 931.1015625 671.477853735 849.800683128 657.57858037 784 642 c 0xc6
EndSplineSet
Fore
SplineSet
916.329101562 601.262695312 m 0
 888.217773438 601.262695312 844.244140625 608.043945312 841.896484375 597 c 0
 838.920898438 583 819.4765625 468 768.2890625 246 c 0
 750.497070312 167 714.318359375 105 660.178710938 62 c 0
 597.337890625 11 511.236328125 -13 416.236328125 -13 c 0
 300.236328125 -13 225.975585938 14 185.965820312 61 c 0
 152.467773438 101 151.221679688 161 161.67578125 229 c 0
 167.540039062 266 237.495117188 581 235.68359375 596 c 0
 235.234375 608 224.234375 608 173.296875 613 c 1
 195.813476562 686 l 1
 222.750976562 681 267.326171875 679 313.326171875 679 c 0
 352.326171875 679 391.750976562 681 422.6015625 685 c 1
 415.934570312 616 l 1
 366.659179688 610 353.360351562 618 349.958984375 602 c 0
 346.55859375 586 301.259765625 387 278.138671875 250 c 0
 269.723632812 201 263.583984375 158 285.6328125 130 c 0
 312.193359375 95 359.94140625 75 469.94140625 75 c 0
 488.94140625 75 558.791992188 79 612.719726562 121 c 0
 648.458007812 148 667.53515625 186 685.2890625 246 c 0
 712.631835938 337 743.553710938 506 762.74609375 601 c 0
 766.147460938 617 747.084960938 612 704.296875 613 c 1
 721.813476562 686 l 1
 761.0546875 678.435546875 847.340820312 676.8125 898.192382812 676.8125 c 3
 916.125976562 676.8125 945.006835938 685.587890625 951.708984375 717.12109375 c 0
 954.6875 731.131835938 951.391601562 742.107421875 945.002929688 761.728515625 c 1
 972.778320312 780.599609375 1001.20019531 790.231445312 1025.43066406 790.231445312 c 0
 1076.80761719 790.231445312 1096.91601562 751.4296875 1088.640625 712.498046875 c 0
 1071.92871094 633.875 984.3828125 601.262695312 916.329101562 601.262695312 c 0
EndSplineSet
Position2: "cpsp-1" dx=0 dy=0 dh=50 dv=122
Substitution2: "c2pc-1" uhorn.pcap
Substitution2: "c2sc-1" uhorn.smcp
EndChar
StartChar: uhorn
Encoding: 432 432 449
Width: 587
UnlinkRmOvrlpSave: 1
Flags: HW
HStem: -11 55<175.222 263.284> 338 31<291.489 350.732> 402 20G<127.489 166.489>
VStem: 69.4893 76<75.1633 330.249> 358.489 64<36.0058 52 76.9705 331.63> 492.99 86.0273<404.739 481.559>
AnchorPoint: "Top" 337.489 537 basechar 0
AnchorPoint: "Ogonek" 427.489 18 basechar 0
AnchorPoint: "Bottom" 240.489 -15 basechar 0
LayerCount: 2
Fore
SplineSet
462.489257812 471 m 1
 480.640625 475.491210938 504.840820312 480.524414062 523.029296875 485.524414062 c 1
 538.225585938 487.524414062 558.489257812 497.23046875 558.489257812 519 c 1xf4
 558.489257812 535.677734375 548.345703125 551.462890625 528.389648438 570.520507812 c 1
 549.2421875 602.009765625 579.19921875 619.90625 607.997070312 619.90625 c 3
 653.651367188 619.90625 680 583.580078125 680 543.022460938 c 3
 680 473.880859375 599.489257812 437 516.489257812 425 c 1
 507.237304688 425 499.693359375 425.64453125 493.489257812 427.057617188 c 0
 472.89453125 431.748046875 467.0625 444.899414062 462.489257812 471 c 1
EndSplineSet
Refer: 20 117 N 1 0 0 1 -0.510742 0 2
Substitution2: "smcp-1" uhorn.smcp
Substitution2: "pcap-1" uhorn.pcap
EndChar
StartChar: uni0237
Encoding: 567 567 52
Width: 307
VWidth: 1159
Flags: HMW
AnchorPoint: "Top" 246.66 537 basechar 0
LayerCount: 2
Fore
SplineSet
-90.9226171875 -148.549414062 m 1
 -48.4531321754 -95.208297171 -21.797303946 -57.6455046946 9.834921875 -10.934765625 c 0
 16.9497384037 0.70021220648 64.1419890925 87.1706020746 67.72703125 87.76734375 c 0
 75.0151790084 102.820994527 100.092970159 158.868916892 112.013339842 217.563378908 c 0
 127.494898952 295.15911849 139.08158188 347.267239754 141.258984376 363.055390624 c 0
 141.836601034 367.491271102 141.255784175 366.85592578 135.173203124 367.199921874 c 1
 135.179174976 367.199921874 98.225253615 353.977322442 90.74 350.38 c 1
 57.38 390.02 l 1
 90.8635174356 429.899115422 211.72849068 507 280.3609375 507 c 3
 336.575078121 507 324.617052394 486.598986096 317.497050782 444.96046875 c 0
 315.996188744 436.994500797 299.543688381 430.109091806 295.958359375 423.555664062 c 0
 272.995739797 380.377746166 243.402350315 302.416133516 233.96703125 260.096679688 c 0
 222.494506092 208.636682074 209.318918817 151.710867597 204.711992188 117.938476562 c 0
 202.135846623 86.4263935126 185.435561596 2.29641118432 179.476875 -18.9091796875 c 0
 159.637519657 -91.9241806594 109.94767261 -143.56222395 62.6023828124 -158.629921874 c 0
 37.7843366564 -165.977064155 -5.31210081387 -173.900106984 -43.3857421875 -174 c 1
 -90.9226171875 -148.549414062 l 1
EndSplineSet
EndChar
StartChar: gravecomb
Encoding: 768 768 94
Width: 0
Flags: HW
HStem: 569.951 193.429
VStem: -346.611 230.611
AnchorPoint: "TopMark" -119.757 768 basemark 0
AnchorPoint: "TopMark" -163.857 537 mark 0
AnchorPoint: "Top" -157.857 537 mark 0
LayerCount: 2
Fore
SplineSet
-83.5703125 613.625 m 1
 -118.5234375 569.951171875 l 1
 -182.729155411 602.750642415 -256.985085593 627.638852759 -321.87109375 642 c 1
 -290.036681562 705.622353379 -236.138671875 763.379882812 -236.138671875 763.379882812 c 1
 -185.134691037 725.711914062 -117.710054318 657.84765625 -83.5703125 613.625 c 1
EndSplineSet
EndChar
StartChar: acutecomb
Encoding: 769 769 92
Width: 0
Flags: HW
HStem: 569.951 193.429
VStem: -232.611 230.611
AnchorPoint: "Top" -157.857 537 mark 0
AnchorPoint: "TopMark" -163.857 537 mark 0
AnchorPoint: "TopMark" -119.757 768 basemark 0
LayerCount: 2
Fore
SplineSet
-200.181640625 613.625 m 1
 -151.795508126 657.84751608 -56.236282113 725.712153957 16.05078125 763.379882812 c 1
 16.05078125 763.379882812 40.6474451406 713.236138069 55.17578125 658 c 1
 -24.9284319507 641.469539999 -108.635091335 618.279078427 -199.794921875 570.951171875 c 1
 -200.181640625 613.625 l 1
EndSplineSet
EndChar
StartChar: uni0302
Encoding: 770 770 93
Width: 0
Flags: HW
HStem: 576 155.801
VStem: -318.7 288.5
AnchorPoint: "TopMark" -113.757 768 basemark 0
AnchorPoint: "TopMark" -163.857 537 mark 0
AnchorPoint: "Top" -157.857 537 mark 0
LayerCount: 2
Fore
SplineSet
1.9267578125 612.200195312 m 1
 -53.5673828125 572 l 1
 -148.583984376 621.962890624 l 1
 -255.467773438 580 l 1
 -286.573242188 612.200195312 l 1
 -142.3515625 731.80078125 l 1
 -92.451171875 731.80078125 l 1
 1.9267578125 612.200195312 l 1
EndSplineSet
EndChar
StartChar: tildecomb
Encoding: 771 771 100
Width: 0
Flags: HW
HStem: 582.408 86<-160.669 -92.0489> 629.746 85.4463<-245.514 -172.34>
VStem: -317.416 294.106
AnchorPoint: "TopMark" -119.757 768 basemark 0
AnchorPoint: "TopMark" -163.857 537 mark 0
AnchorPoint: "Top" -157.857 537 mark 0
LayerCount: 2
Fore
SplineSet
-287.518554688 594.708984375 m 1
 -241.899546612 664.872445401 -184.302369228 718.192382812 -176.58203125 718.192382812 c 3
 -138.2778041 718.192382812 -79.1555951716 687.408203125 -66.7412109375 687.408203125 c 3
 -56.0450408234 687.408203125 -29.705762168 707.125587145 -18.6650390625 731.178710938 c 1
 27.669921875 707.893554688 l 1
 -7.85083479306 643.497843391 -62.806064362 580.408203125 -75.6875 580.408203125 c 3
 -112.678150497 580.408203125 -174.966818455 610.74609375 -192.407226562 610.74609375 c 3
 -204.912907751 610.74609375 -230.272398004 584.280958366 -240.142578125 571 c 1
 -287.518554688 594.708984375 l 1
EndSplineSet
EndChar
StartChar: uni0306
Encoding: 774 774 105
Width: 0
Flags: HW
AnchorPoint: "Top" -161.593 537 mark 0
AnchorPoint: "TopMark" -167.593 537 mark 0
AnchorPoint: "TopMark" -117.492 768 basemark 0
LayerCount: 2
Fore
SplineSet
-283.20703125 685.375 m 1
 -226.2265625 717.135742188 l 1
 -212.254482305 692.034451444 -166.557873682 673.4375 -121.71484375 673.4375 c 3
 -78.4964775313 673.4375 -24.0742267794 689.631308796 -20.0302734375 713.135742188 c 1
 22.150390625 685.375 l 1
 -3.42289411259 612.458 -78.9795435244 576 -154.303710938 576 c 3
 -209.767877955 576 -265.061346979 612.458 -283.20703125 685.375 c 1
EndSplineSet
EndChar
StartChar: uni0313
Encoding: 787 787 111
Width: 0
Flags: HW
HStem: 569 149
VStem: -194 102<623.839 703.8>
AnchorPoint: "Top" -157.857 537 mark 0
AnchorPoint: "TopMark" -163.857 537 mark 0
AnchorPoint: "TopMark" -113.757 768 basemark 0
LayerCount: 2
Fore
SplineSet
-179.055664062 569 m 1
 -195.915039062 612 l 1
 -201.8125 600.87109375 -167.006757715 629.541666624 -166.986328125 646 c 0
 -166.977766823 650.994145792 -169.064548508 653.519398282 -170.6484375 657 c 0
 -171.170898438 658.151367188 -171.882309309 660.600478978 -171.373046875 663 c 0
 -169.606445312 671.306640625 -164.665095561 675.291348842 -160.546875 681 c 0
 -145.834106783 695.257709704 -124.245882874 707.278479876 -106.234375 714 c 0
 -101.912109375 715.739257812 -95.81640625 718 -89.384765625 718 c 3
 -78.95703125 718 -70.1882901318 714.270884464 -63.1474609375 705 c 0
 -58.1845703125 698.462890625 -55.2411367916 694.244530143 -52.1865234375 686 c 0
 -49.0673828125 677.587890625 -47.3020534789 671.341859716 -49.287109375 662 c 0
 -54.0546875 639.5703125 -104.338867188 591.731445312 -179.055664062 569 c 1
EndSplineSet
EndChar
StartChar: uni0328
Encoding: 808 808 254
Width: 0
Flags: HW
HStem: -177 75.1279<-194.502 -107.89>
VStem: -253.438 79.4385<-124.671 -30.2807>
AnchorPoint: "Ogonek" -104.35 21.6582 mark 0
LayerCount: 2
Fore
SplineSet
-94.19140625 5.54296875 m 1
 -147.190474266 -14.5650893593 -158 -27.8754845034 -158 -44 c 3
 -158 -75.228515625 -144.80859375 -82.744140625 -124.974609375 -82.744140625 c 3
 -122.958007812 -82.744140625 -121 -82 -120.314453125 -81.599609375 c 1
 -120.314453125 -81.599609375 -107.985351562 -109.88671875 -105 -132 c 1
 -127.23828125 -157.004882812 -176.675164455 -177 -210.850585938 -177 c 3
 -244.809991273 -177 -274.872070312 -148.506528262 -274.872070312 -100.834960938 c 3
 -274.872070312 -45.1138248367 -228.508390893 20.109327726 -109.096679688 56 c 1
 -94.19140625 5.54296875 l 1
EndSplineSet
EndChar
StartChar: alpha
Encoding: 945 945 1003
Width: 618
UnlinkRmOvrlpSave: 1
Flags: HMW
AnchorPoint: "Bottom" 272.355 -15 basechar 0
AnchorPoint: "Top" 404.688 537 basechar 0
LayerCount: 2
Fore
SplineSet
626.221679688 473.110351562 m 1
 546.939453125 336.532226562 347.465820312 -12.099609375 207.166015625 -12.099609375 c 3
 101.366210938 -12.099609375 78.3681640625 92.26171875 101.997070312 226.26953125 c 0
 122.052734375 340.009765625 221.348632812 511.830078125 315.649414062 511.830078125 c 3
 403.1484375 511.830078125 425.543945312 407.646484375 433.983398438 329.120117188 c 0
 441.126953125 279.349609375 451.840820312 108.860351562 497.595703125 108.860351562 c 3
 521.251953125 108.860351562 537.856445312 131.151367188 555.559570312 154.879882812 c 1
 601.1953125 135.51953125 l 1
 575.44140625 80.765625 522.48046875 -10.8896484375 470.73046875 -10.8896484375 c 3
 386.826171875 -10.8896484375 373.787109375 239.624023438 365.514648438 311.440429688 c 0
 360.598632812 354.12109375 341.3671875 404.610351562 297.893554688 404.610351562 c 3
 219.513671875 404.610351562 171.799804688 301.42578125 157.694335938 221.4296875 c 0
 146.743164062 159.321289062 155.322265625 91.8603515625 212.84765625 91.8603515625 c 3
 307.85546875 91.8603515625 470.987304688 384.224609375 526.141601562 484 c 1
 534.57421875 493.383789062 544.58984375 497.309570312 554.939453125 497.309570312 c 3
 581.448242188 497.309570312 610.94140625 479.787109375 626.221679688 473.110351562 c 1
EndSplineSet
Substitution2: "pcap-1" a.pcap
Substitution2: "smcp-1" a.smcp
EndChar
StartChar: delta
Encoding: 948 948 1006
Width: 580
UnlinkRmOvrlpSave: 1
Flags: HMW
LayerCount: 2
Back
SplineSet
134 186 m 3
 134 113 179 31 252 31 c 3
 273 31 360 67 360 206 c 3
 360 415 -2 500 -2 648 c 3
 -2 691 28 754 125 754 c 3
 228 754 401 674 447 651 c 1
 446 623 405 611 374 605 c 1
 329 630 193 707 103 707 c 3
 67 707 42 686 42 655 c 3
 42 530 433 457 433 236 c 3
 433 97 333 -9 227 -9 c 3
 100 -9 55 90 55 154 c 0
 55 298 159 378 261 378 c 3
 294 378 317 369 350 363 c 1
 344 333 l 1
 323 342 297 351 266 351 c 3
 172 351 134 254 134 186 c 3
EndSplineSet
Fore
SplineSet
213.783203125 225.059570312 m 0
 199.869140625 146.149414062 228.36328125 57.509765625 299.940429688 57.509765625 c 3
 322.93359375 57.509765625 423.928710938 90.0517578125 446.083984375 215.700195312 c 0
 491.96875 475.926757812 194.7890625 458.45703125 225.872070312 634.740234375 c 0
 233.616210938 678.657226562 279.4609375 743 391.010742188 743 c 3
 485.150390625 743 626.19921875 646.200195312 663.334960938 618.370117188 c 1
 654.41015625 574.927734375 599.288085938 556.309570312 558.451171875 547 c 1
 524.81640625 575.953125 423.459960938 665.129882812 345.98046875 665.129882812 c 3
 325.236328125 665.129882812 309.26953125 656.27734375 306.96484375 643.209960938 c 0
 287.64453125 533.640625 603.1953125 517.194335938 556.434570312 252 c 0
 530.135742188 102.850585938 388.259765625 -10.8896484375 259.129882812 -10.8896484375 c 3
 113.080078125 -10.8896484375 82.4521484375 108.900390625 96.1064453125 186.33984375 c 0
 126.830078125 360.580078125 263.499023438 457.379882812 380.798828125 457.379882812 c 3
 418.749023438 457.379882812 443.278320312 446.490234375 479.948242188 439.23046875 c 1
 462.239257812 377.9296875 l 1
 440.008789062 388.8203125 412.029296875 399.709960938 376.379882812 399.709960938 c 3
 282.521484375 399.709960938 226.475585938 297.037109375 213.783203125 225.059570312 c 0
EndSplineSet
Substitution2: "pcap-1" delta.pcap
Substitution2: "smcp-1" delta.smcp
EndChar
StartChar: epsilon
Encoding: 949 949 1007
Width: 481
UnlinkRmOvrlpSave: 1
Flags: HMW
AnchorPoint: "Top" 360.688 537 basechar 0
AnchorPoint: "Bottom" 229.355 -15 basechar 0
LayerCount: 2
Fore
SplineSet
507.579101562 491.580078125 m 1
 502.041015625 466.696289062 476.908203125 415.465820312 464.986328125 393.509765625 c 1
 404.890625 398.349609375 375.120117188 405.610351562 313.020507812 405.610351562 c 3
 279.203125 405.610351562 240.618164062 392.271484375 234.66015625 358.48046875 c 0
 228.900390625 325.813476562 266.504882812 302.334960938 319.439453125 282.940429688 c 1
 312.857421875 270.05078125 306.325195312 256.924804688 299.840820312 243.52734375 c 1
 235.8359375 227.6953125 194.080078125 206.600585938 187.1953125 167.559570312 c 0
 178.165039062 116.345703125 222.3828125 95.8603515625 267.602539062 95.8603515625 c 3
 335.452148438 95.8603515625 377.752929688 114.009765625 442.033203125 139.419921875 c 1
 446.81640625 127.413085938 447.282226562 77.8818359375 444.727539062 56.8701171875 c 1
 395.564453125 19.3603515625 312.45703125 -8.4697265625 226.20703125 -8.4697265625 c 3
 138.806640625 -8.4697265625 72.1416015625 56.953125 87.3779296875 143.360351562 c 0
 106.357421875 251 228.547851562 304.8203125 334.34765625 304.8203125 c 3
 366.547851562 304.8203125 384.521484375 302.400390625 416.294921875 299.98046875 c 1
 410.978515625 269.830078125 402.56640625 241.689453125 392.91796875 219.580078125 c 1
 359.140625 217.16015625 340.1015625 213.530273438 306.750976562 213.530273438 c 3
 219.3515625 213.530273438 141.17578125 291.934570312 159.09765625 393.5703125 c 0
 170.19140625 456.490234375 255.478515625 509.73046875 342.87890625 509.73046875 c 3
 410.728515625 509.73046875 468.609375 498.83984375 507.579101562 491.580078125 c 1
EndSplineSet
Substitution2: "pcap-1" e.pcap
Substitution2: "smcp-1" e.smcp
EndChar
StartChar: zeta
Encoding: 950 950 1008
Width: 481
UnlinkRmOvrlpSave: 1
Flags: HMW
LayerCount: 2
Back
SplineSet
350.150390625 377.16015625 m 1
 341.038085938 361.422851562 331.669921875 342.252929688 322.157226562 320.059570312 c 1
 223.206054688 287.453125 139.05078125 222.763671875 139.05078125 169.280273438 c 3
 139.05078125 140.299804688 156.544921875 100.280273438 208.30078125 100.280273438 c 3
 278.340820312 100.280273438 360.232421875 146.259765625 431.350585938 146.259765625 c 3
 525.650390625 146.259765625 582 62.1669921875 582 -20.5703125 c 3
 582 -111.962890625 508.400390625 -174.870117188 440.55078125 -174.870117188 c 3
 392.25 -174.870117188 346.25 -137.961914062 332.450195312 -113.740234375 c 1
 353.150390625 -85.91015625 379.600585938 -48.400390625 403.75 -45.98046875 c 1
 417.55078125 -55.216796875 442.850585938 -76.9501953125 480.80078125 -76.9501953125 c 3
 488.916015625 -76.9501953125 519.350585938 -58.1455078125 519.350585938 -25.41015625 c 3
 519.350585938 27.830078125 469.859375 36.2998046875 441.700195312 36.2998046875 c 3
 361.8359375 36.2998046875 296.001953125 -14.51953125 212.900390625 -14.51953125 c 3
 87.55078125 -14.51953125 55.3505859375 88.4814453125 55.3505859375 151.709960938 c 3
 55.3505859375 200.827148438 104.104492188 278.096679688 198.600585938 351.75 c 0
 251.381835938 392.889648438 325.708984375 417.08984375 420.5 417.08984375 c 1
 422.80078125 393.59765625 412.450195312 321.5546875 394.05078125 302.759765625 c 1
 367.600585938 285.8203125 326.200195312 282.190429688 285.950195312 282.190429688 c 3
 109.872070312 282.190429688 107.75 422.19140625 107.75 446.540039062 c 3
 107.75 584.552734375 313.98828125 690.919921875 484.450195312 690.919921875 c 1
 484.450195312 672.65234375 477.55078125 599.581054688 464.900390625 573.009765625 c 1
 437.849609375 553.030273438 373.34375 539.709960938 313 539.709960938 c 3
 214.716796875 539.709960938 155.150390625 596.592773438 155.150390625 680.01953125 c 3
 155.150390625 741.73046875 205.75 775.610351562 269 775.610351562 c 1
 267.850585938 750.200195312 269 706.639648438 252.900390625 682.440429688 c 1
 244.013671875 676.389648438 232.350585938 678.809570312 232.350585938 660.66015625 c 3
 232.350585938 650.219726562 251.677734375 619.646484375 347.30078125 618.900390625 c 1
 344.985351562 604.146484375 342.671875 589.201171875 340.359375 574.059570312 c 1
 262.768554688 549.458007812 188.05078125 499.645507812 188.05078125 451.379882812 c 3
 188.05078125 378.065429688 279.626953125 377.16015625 350.150390625 377.16015625 c 1
EndSplineSet
Fore
SplineSet
87.5361328125 157.299804688 m 0
 131.775390625 408.19140625 346.42578125 686.298828125 597.3125 688 c 1
 597.610351562 683.16015625 596.54296875 677.110351562 595.4765625 671.060546875 c 0
 588.587890625 631.99609375 567.64453125 591.484375 536.987304688 561.100585938 c 1
 499.926757812 546.580078125 457.247070312 539.3203125 408.947265625 539.3203125 c 3
 320.396484375 539.3203125 231.5703125 589.932617188 250.142578125 695.259765625 c 0
 258.037109375 740.030273438 290.443359375 775.120117188 378.702148438 777.540039062 c 1
 378.275390625 775.120117188 378.571289062 770.280273438 377.504882812 764.23046875 c 0
 373.369140625 740.779296875 362.865234375 700.7734375 357.403320312 682.83984375 c 1
 342.451171875 677.540039062 333.918945312 677.540039062 331.115234375 661.640625 c 0
 327.62890625 641.866210938 363.694335938 609.875976562 409.080078125 598.7734375 c 1
 416.462890625 582.666015625 424.87109375 571.293945312 434.321289062 565.830078125 c 1
 326.436523438 540.532226562 191.375 323.689453125 167.796875 189.969726562 c 0
 152.342773438 102.326171875 193.577148438 99.1201171875 222.177734375 99.1201171875 c 3
 263.578125 99.1201171875 285.984375 108.799804688 327.384765625 108.799804688 c 3
 430.884765625 108.799804688 459.305664062 54.759765625 447.0546875 -14.7197265625 c 0
 431.693359375 -101.83984375 352.19140625 -174.440429688 270.541015625 -174.440429688 c 3
 226.840820312 -174.440429688 197.118164062 -153.870117188 178.978515625 -139.349609375 c 1
 191.046875 -110.604492188 242.448242188 -47.365234375 265.705078125 -44.490234375 c 1
 280.271484375 -52.0498046875 306.967773438 -75.990234375 339.650390625 -75.990234375 c 3
 355.8671875 -75.990234375 376.993164062 -61.2861328125 380.697265625 -40.2802734375 c 0
 385.221679688 -14.6220703125 345.684570312 -1.2099609375 305.6875 -1.2099609375 c 3
 272.336914062 -1.2099609375 243.243164062 -9.6796875 202.993164062 -9.6796875 c 3
 96.04296875 -9.6796875 71.9609375 68.9697265625 87.5361328125 157.299804688 c 0
EndSplineSet
Substitution2: "pcap-1" z.pcap
Substitution2: "smcp-1" z.smcp
EndChar
StartChar: iota
Encoding: 953 953 1011
Width: 345
Flags: HMW
AnchorPoint: "Top" 294.688 537 basechar 0
AnchorPoint: "Bottom" 156.355 -15 basechar 0
LayerCount: 2
Fore
SplineSet
187.913085938 92.7998046875 m 0
 185.333007812 78.169921875 189.954101562 76.080078125 196.815429688 76.080078125 c 3
 230.838867188 76.080078125 274.158203125 135.229492188 280.620117188 146.150390625 c 1
 338.629882812 117 l 1
 297.208984375 55.654296875 230.641601562 -10.8896484375 154.129882812 -10.8896484375 c 3
 108.2734375 -10.8896484375 83.546875 19.5517578125 100.033203125 113.049804688 c 0
 122.263671875 239.126953125 177.791992188 362.630859375 205.586914062 499 c 1
 205.586914062 499 308.334960938 530.459960938 329.220703125 511.099609375 c 1
 278.827148438 346.27734375 202.884765625 177.708984375 187.913085938 92.7998046875 c 0
EndSplineSet
Substitution2: "pcap-1" i.pcap
Substitution2: "smcp-1" i.smcp
EndChar
StartChar: kappa
Encoding: 954 954 1012
Width: 563
UnlinkRmOvrlpSave: 1
Flags: HMW
LayerCount: 2
Fore
SplineSet
330.426757812 303 m 1
 352.334960938 232.467773438 398.240234375 122.75 475.89453125 122.75 c 3
 499.1796875 122.75 521.419921875 134.87890625 532.578125 144.209960938 c 1
 542.887695312 132.330078125 548.931640625 124.41015625 559.2421875 112.530273438 c 1
 531.447265625 44.76953125 494.185546875 -10.8896484375 435.080078125 -10.8896484375 c 3
 339.803710938 -10.8896484375 337.721679688 142.080078125 275.142578125 239 c 1
 330.426757812 303 l 1
110.694335938 451.970703125 m 1
 145.302734375 483.544921875 190.073242188 511 242.103515625 511 c 3
 282.422851562 511 295.879882812 489.313476562 290.31640625 457.760742188 c 0
 267.8828125 330.53515625 236.908203125 259.919921875 202.96875 133.099609375 c 1
 189.356445312 135.51953125 182.334960938 135.51953125 168.72265625 137.940429688 c 1
 218.321289062 256.6640625 341.633789062 405.3828125 504.272460938 515.360351562 c 1
 540.182617188 506.12890625 543.9453125 437.817382812 547.291992188 411.969726562 c 1
 400.458007812 367.274414062 247.497070312 204.3125 215.275390625 124.629882812 c 0
 195.715820312 75.671875 191.438476562 48.138671875 175.836914062 -1.2099609375 c 1
 136.725585938 -1.6259765625 89.2197265625 -0.9599609375 77.9033203125 4.83984375 c 1
 116.934570312 154.009765625 151.685546875 239.529296875 178.00390625 388.790039062 c 0
 180.154296875 400.982421875 185.462890625 417.870117188 164.731445312 417.870117188 c 3
 151.646484375 417.870117188 144.200195312 409.48828125 131.418945312 403.900390625 c 1
 110.694335938 451.970703125 l 1
EndSplineSet
Substitution2: "pcap-1" k.pcap
Substitution2: "smcp-1" k.smcp
EndChar
StartChar: lambda
Encoding: 955 955 1013
Width: 533
UnlinkRmOvrlpSave: 1
Flags: HMW
LayerCount: 2
Fore
SplineSet
343.072265625 491.259765625 m 1
 372.94921875 357 l 1
 97.5859375 -19.3603515625 l 1
 70.9892578125 -22.6689453125 21.185546875 12.07421875 13.138671875 40.2001953125 c 1
 343.072265625 491.259765625 l 1
160.294921875 613.889648438 m 1
 159.0390625 622.831054688 159.108398438 633.25 160.815429688 642.9296875 c 0
 169.327148438 691.201171875 202.96875 744 231.1875 744 c 3
 278.84765625 744 316.5546875 688.010742188 333.571289062 633.889648438 c 0
 376.060546875 498.7578125 402.06640625 299.548828125 458.592773438 148.259765625 c 0
 470.490234375 116.416992188 501.467773438 99.8603515625 546.181640625 97.4404296875 c 1
 546.54296875 47.3115234375 540.116210938 4.345703125 533.802734375 -31.4599609375 c 1
 519.362304688 -35.08984375 512.545898438 -41.1396484375 497.595703125 -41.1396484375 c 3
 439.506835938 -41.1396484375 410.459960938 27.6328125 396.111328125 87.1201171875 c 0
 366.64453125 209.291015625 331.762695312 424.171875 286.129882812 558.229492188 c 0
 268.418945312 610.259765625 226.712890625 616.309570312 160.294921875 613.889648438 c 1
EndSplineSet
Substitution2: "pcap-1" lambda.pcap
Substitution2: "smcp-1" lambda.smcp
EndChar
StartChar: xi
Encoding: 958 958 1016
Width: 580
UnlinkRmOvrlpSave: 1
Flags: HMW
LayerCount: 2
Fore
SplineSet
416.654296875 377.16015625 m 1
 404.766601562 361.422851562 392.018554688 342.252929688 378.592773438 320.059570312 c 1
 273.891601562 287.453125 178.330078125 222.763671875 168.899414062 169.280273438 c 0
 163.7890625 140.299804688 174.2265625 100.280273438 225.982421875 100.280273438 c 3
 296.022460938 100.280273438 386.021484375 146.259765625 457.139648438 146.259765625 c 3
 551.439453125 146.259765625 592.961914062 62.1669921875 578.373046875 -20.5703125 c 0
 562.2578125 -111.962890625 477.56640625 -174.870117188 409.716796875 -174.870117188 c 3
 361.416015625 -174.870117188 321.923828125 -137.961914062 312.39453125 -113.740234375 c 1
 338.001953125 -85.91015625 371.06640625 -48.400390625 395.642578125 -45.98046875 c 1
 407.814453125 -55.216796875 429.282226562 -76.9501953125 467.232421875 -76.9501953125 c 3
 475.34765625 -76.9501953125 509.09765625 -58.1455078125 514.870117188 -25.41015625 c 0
 524.2578125 27.830078125 476.259765625 36.2998046875 448.100585938 36.2998046875 c 3
 368.236328125 36.2998046875 293.44140625 -14.51953125 210.33984375 -14.51953125 c 3
 84.990234375 -14.51953125 70.9521484375 88.4814453125 82.1015625 151.709960938 c 0
 90.76171875 200.827148438 153.140625 278.096679688 260.624023438 351.75 c 0
 320.659179688 392.889648438 399.252929688 417.08984375 494.043945312 417.08984375 c 1
 492.203125 393.59765625 469.149414062 321.5546875 447.435546875 302.759765625 c 1
 417.998046875 285.8203125 375.958007812 282.190429688 335.708007812 282.190429688 c 3
 159.629882812 282.190429688 182.193359375 422.19140625 186.487304688 446.540039062 c 0
 210.822265625 584.552734375 435.81640625 690.919921875 606.278320312 690.919921875 c 1
 603.056640625 672.65234375 583.2734375 599.581054688 565.9375 573.009765625 c 1
 535.36328125 553.030273438 468.508789062 539.709960938 408.165039062 539.709960938 c 3
 309.881835938 539.709960938 260.345703125 596.592773438 275.056640625 680.01953125 c 0
 285.9375 741.73046875 342.510742188 775.610351562 405.760742188 775.610351562 c 1
 400.130859375 750.200195312 393.599609375 706.639648438 373.233398438 682.440429688 c 1
 363.279296875 676.389648438 352.04296875 678.809570312 348.842773438 660.66015625 c 0
 347.001953125 650.219726562 360.938476562 619.646484375 456.4296875 618.900390625 c 1
 451.512695312 604.146484375 446.563476562 589.201171875 441.58203125 574.059570312 c 1
 359.65234375 549.458007812 276.151367188 499.645507812 267.641601562 451.379882812 c 0
 254.713867188 378.065429688 346.130859375 377.16015625 416.654296875 377.16015625 c 1
EndSplineSet
Substitution2: "pcap-1" xi.pcap
Substitution2: "smcp-1" xi.smcp
EndChar
StartChar: omicron
Encoding: 959 959 1017
Width: 586
Flags: HMW
AnchorPoint: "Top" 405.688 537 basechar 0
AnchorPoint: "Bottom" 286.355 -15 basechar 0
LayerCount: 2
Fore
SplineSet
299.514648438 68.1396484375 m 3
 406.103515625 68.1396484375 451.969726562 198.323242188 463.9296875 266.150390625 c 0
 479.306640625 353.360351562 464.995117188 443.799804688 383.00390625 443.799804688 c 3
 330.0234375 443.799804688 244.8359375 414.208007812 212.754882812 232.26953125 c 0
 194.786132812 130.359375 225.9765625 68.1396484375 299.514648438 68.1396484375 c 3
105.44921875 258.889648438 m 0
 126.784179688 379.889648438 228.666992188 514.200195312 381.6171875 514.200195312 c 3
 538.016601562 514.200195312 591.337890625 366.580078125 569.149414062 240.740234375 c 0
 540.772460938 79.8095703125 408.325195312 -6.099609375 291.024414062 -6.099609375 c 3
 147.274414062 -6.099609375 84.75390625 141.51953125 105.44921875 258.889648438 c 0
EndSplineSet
Substitution2: "pcap-1" o.pcap
Substitution2: "smcp-1" o.smcp
EndChar
StartChar: pi
Encoding: 960 960 1018
Width: 661
UnlinkRmOvrlpSave: 1
Flags: HMW
LayerCount: 2
Fore
SplineSet
574.44140625 411.400390625 m 1
 540.9765625 319.440429688 496.900390625 212.959960938 484.739257812 143.990234375 c 0
 480.114257812 117.76171875 479.051757812 78.8701171875 509.95703125 78.8701171875 c 3
 533.979492188 78.8701171875 562.76953125 114.155273438 570.694335938 132.6796875 c 1
 621.7421875 112.530273438 l 1
 618.115234375 91.9599609375 552.383789062 -10.8896484375 458.48046875 -10.8896484375 c 3
 412.815429688 -10.8896484375 356.41015625 14.51953125 376.678710938 129.469726562 c 0
 392.893554688 221.4296875 449.120117188 364.209960938 469.368164062 413.8203125 c 1
 471.514648438 417.450195312 576.587890625 415.030273438 574.44140625 411.400390625 c 1
283.6015625 401.8203125 m 3
 207.8984375 401.8203125 175.935546875 370.818359375 173.97265625 359.690429688 c 0
 171.19921875 343.959960938 177.838867188 329.440429688 186.908203125 322.1796875 c 1
 131.278320312 287.98046875 l 1
 111.052734375 303.709960938 102.419921875 346.059570312 106.260742188 367.83984375 c 0
 124.73828125 472.6328125 262.796875 512.099609375 422.646484375 512.099609375 c 3
 501.853515625 512.099609375 643.115234375 501.209960938 647.176757812 501.209960938 c 3
 659.827148438 501.209960938 664.984375 510.889648438 666.05078125 516.940429688 c 0
 667.7578125 526.620117188 667.673828125 532.669921875 664.78125 542.349609375 c 1
 722.3359375 561.66015625 l 1
 735.592773438 539.015625 733.063476562 498.581054688 728.786132812 474.3203125 c 0
 712.546875 382.221679688 613.094726562 392.139648438 534.89453125 392.139648438 c 3
 438.294921875 392.139648438 321.551757812 401.8203125 283.6015625 401.8203125 c 3
363.194335938 416.240234375 m 1
 347.120117188 364.209960938 317.224609375 246.83984375 216.366210938 -12.099609375 c 1
 186.419921875 -9.0966796875 102.786132812 2.169921875 106.157226562 45.98046875 c 1
 131.678710938 60.2802734375 169.28125 72.5634765625 194.775390625 124.629882812 c 0
 248.690429688 234.740234375 287.229492188 342.4296875 297.221679688 418.66015625 c 1
 297.6484375 421.080078125 363.833984375 419.870117188 363.194335938 416.240234375 c 1
EndSplineSet
Substitution2: "pcap-1" pi.pcap
Substitution2: "smcp-1" pi.smcp
EndChar
StartChar: rho
Encoding: 961 961 1019
Width: 555
UnlinkRmOvrlpSave: 1
Flags: HMW
LayerCount: 2
Fore
SplineSet
377.109375 508.200195312 m 3
 511.360351562 508.200195312 560.600585938 369.203125 536.9453125 235.049804688 c 0
 523.010742188 156.021484375 464.39453125 75.41015625 343.197265625 75.41015625 c 3
 258.063476562 75.41015625 194.63671875 118.895507812 151.44140625 154.490234375 c 1
 172.333007812 190.711914062 184.509765625 212.758789062 205.40234375 248.98046875 c 1
 212.072265625 181.383789062 248.458007812 136.01953125 310.184570312 136.01953125 c 3
 339.647460938 136.01953125 366.091796875 149.733398438 385.3515625 169.110351562 c 0
 400.827148438 184.6796875 418.861328125 220.396484375 424.610351562 253 c 0
 439.799804688 339.143554688 427.840820312 443.48046875 365.697265625 443.48046875 c 3
 266.583007812 443.48046875 222.279296875 275.788085938 200.953125 154.83984375 c 0
 189.7734375 91.4404296875 198.501953125 44.01171875 268.743164062 30.2998046875 c 0
 344.131835938 15.5830078125 393.63671875 -2.05859375 381.833007812 -69 c 0
 374.911132812 -108.259765625 326.950195312 -147.099609375 286.0625 -147.099609375 c 3
 280.926757812 -147.099609375 277.325195312 -146.615234375 274.653320312 -146.299804688 c 1
 256.499023438 -124.348632812 259.392578125 -95 263.28515625 -70.6904296875 c 1
 264.28515625 -70.421875 265.703125 -70 266.657226562 -70 c 3
 272.021484375 -70 277.400390625 -63.5126953125 278.743164062 -55.8994140625 c 0
 282.23046875 -36.1201171875 271.319335938 -31.10546875 261.103515625 -30.0400390625 c 0
 105.75390625 -13.8310546875 67.0703125 41.232421875 90.515625 174.200195312 c 0
 118.388671875 332.274414062 220.327148438 508.200195312 377.109375 508.200195312 c 3
EndSplineSet
Substitution2: "pcap-1" p.pcap
Substitution2: "smcp-1" p.smcp
EndChar
StartChar: tau
Encoding: 964 964 1022
Width: 566
UnlinkRmOvrlpSave: 1
Flags: HMW
LayerCount: 2
Fore
SplineSet
433.521484375 418.66015625 m 1
 398.21875 309.759765625 357.861328125 217.837890625 344.19921875 140.360351562 c 0
 340.624023438 120.083984375 339.904296875 94.5498046875 357.521484375 94.5498046875 c 3
 373.268554688 94.5498046875 387.548828125 108.200195312 405.802734375 127.049804688 c 1
 423.724609375 118.190429688 435.122070312 113.759765625 453.046875 104.900390625 c 1
 433.908203125 56.9462890625 372.598632812 -10.8896484375 304.4296875 -10.8896484375 c 3
 248.151367188 -10.8896484375 227.557617188 36.6279296875 244.01171875 129.940429688 c 0
 258.952148438 214.674804688 309.831054688 329.033203125 341.734375 419.870117188 c 1
 433.521484375 418.66015625 l 1
132.879882812 292.240234375 m 1
 110.40625 308.551757812 98.9462890625 339.405273438 105.453125 376.309570312 c 0
 122.485351562 472.90625 212.29296875 507.259765625 444.393554688 507.259765625 c 3
 475.41015625 507.259765625 494.319335938 506.049804688 526.330078125 506.049804688 c 3
 563.53515625 506.049804688 569.723632812 512.856445312 577.411132812 549.610351562 c 1
 596.075195312 552.030273438 609.750976562 552.030273438 628.415039062 554.450195312 c 1
 636.234375 530.166992188 639.776367188 508.010742188 634.048828125 475.530273438 c 0
 619.701171875 394.16015625 562.557617188 383.139648438 410.7578125 383.139648438 c 3
 351.954101562 383.139648438 319.435546875 386.76953125 260.248046875 386.76953125 c 3
 228.252929688 386.76953125 182.546875 381.658203125 177.735351562 354.370117188 c 0
 175.237304688 340.204101562 182.79296875 328.642578125 187.5546875 321.01953125 c 1
 132.879882812 292.240234375 l 1
EndSplineSet
Substitution2: "pcap-1" t.pcap
Substitution2: "smcp-1" t.smcp
EndChar
StartChar: upsilon
Encoding: 965 965 1023
Width: 581
Flags: HMW
AnchorPoint: "Top" 413.864 538 basechar 0
AnchorPoint: "Bottom" 281.355 -15 basechar 0
LayerCount: 2
Fore
SplineSet
318.09765625 402.9296875 m 0
 307.215820312 341.219726562 263.53125 256.51953125 249.663085938 177.870117188 c 0
 232.380859375 79.8603515625 275.893554688 56.8701171875 307.876953125 56.8701171875 c 3
 413.6484375 56.8701171875 486.65625 168.190429688 504.791992188 271.040039062 c 0
 519.5 354.452148438 455.780273438 386.870117188 413.116210938 386.870117188 c 1
 411.455078125 390.5 409.795898438 394.129882812 411.501953125 403.809570312 c 0
 417.8828125 439.995117188 470.1796875 504.141601562 482.063476562 517.299804688 c 1
 560.813476562 517.299804688 588.856445312 378.59765625 569.038085938 266.200195312 c 0
 545.35546875 131.889648438 431.629882812 -10.8896484375 277.530273438 -10.8896484375 c 3
 182.080078125 -10.8896484375 110.587890625 53.240234375 132.776367188 179.080078125 c 0
 144.709960938 246.75390625 190.62890625 357.170898438 196.072265625 388.040039062 c 0
 197.97265625 398.81640625 194.178710938 406 186.588867188 406 c 3
 165.907226562 406 150.958984375 375.362304688 145.241210938 370 c 1
 92.126953125 392.040039062 l 1
 97.2841796875 401.719726562 142.083007812 505.780273438 222.583007812 505.780273438 c 3
 257.798828125 505.780273438 333.885742188 492.469726562 318.09765625 402.9296875 c 0
EndSplineSet
Substitution2: "pcap-1" upsilon.pcap
Substitution2: "smcp-1" upsilon.smcp
EndChar
StartChar: phi
Encoding: 966 966 1024
Width: 770
UnlinkRmOvrlpSave: 1
Flags: HMW
LayerCount: 2
Fore
SplineSet
478.408203125 688.540039062 m 1
 540.978515625 682.490234375 564.606445312 638.90625 554.583007812 582.059570312 c 0
 546.546875 536.482421875 515.559570312 475.7734375 471.427734375 443.083984375 c 0
 429.931640625 412.346679688 376.465820312 384.229492188 312.329101562 362.559570312 c 0
 234.544921875 336.278320312 174.137695312 284.907226562 160.59765625 208.120117188 c 0
 154.583007812 174.012695312 167.90625 146.102539062 196.390625 130.673828125 c 0
 252.858398438 100.087890625 350.090820312 90.1796875 402.301757812 90.1796875 c 3
 472.309570312 90.1796875 673.731445312 110.205078125 698.677734375 251.6796875 c 0
 708.133789062 305.306640625 651.010742188 343.669921875 580.3984375 343.669921875 c 3
 478.5859375 343.669921875 447.774414062 214.892578125 427.221679688 98.3330078125 c 0
 411.50390625 9.1943359375 397.13671875 -79.7587890625 381.379882812 -169.120117188 c 1
 349.024414062 -171.540039062 330.780273438 -171.540039062 298.42578125 -173.959960938 c 1
 318.911132812 -97.4794921875 336.266601562 -54.6376953125 349.741210938 21.7802734375 c 0
 372.90234375 153.134765625 400.048828125 300.427734375 480.033203125 407.1796875 c 0
 493.0703125 424.580078125 539.961914062 464.049804688 597.024414062 464.049804688 c 3
 709.66015625 464.049804688 775.373046875 366.780273438 756.358398438 258.940429688 c 0
 730.127929688 110.181640625 597.942382812 -26.6201171875 379.40625 -26.6201171875 c 3
 140.170898438 -26.6201171875 75.259765625 87.6796875 102.897460938 244.419921875 c 0
 133.913085938 420.317382812 278.221679688 483.28125 438.283203125 542.080078125 c 0
 450.82421875 546.6875 464.71484375 559.2734375 467.322265625 574.059570312 c 0
 470.061523438 589.598632812 455.032226562 595.6796875 441.034179688 595.6796875 c 3
 436.864257812 595.6796875 434.704101562 595.6796875 430.484375 595.6796875 c 1
 441.126953125 625.895507812 455.008789062 680.965820312 478.408203125 688.540039062 c 1
EndSplineSet
Substitution2: "pcap-1" phi.pcap
Substitution2: "smcp-1" phi.smcp
EndChar
StartChar: psi
Encoding: 968 968 1026
Width: 687
UnlinkRmOvrlpSave: 1
Flags: HMW
LayerCount: 2
Fore
SplineSet
373.588867188 696.08984375 m 1
 398.782226562 713.030273438 417.997070312 725.129882812 452.16015625 725.129882812 c 3
 522.310546875 725.129882812 519.356445312 662.723632812 498.506835938 544.48046875 c 0
 449.017578125 263.815429688 380.103515625 37.2333984375 308.993164062 -174.4296875 c 1
 247.163085938 -163.540039062 l 1
 340.530273438 115.647460938 394.40234375 328.665039062 420.294921875 475.509765625 c 0
 439.352539062 583.587890625 436.620117188 600.700195312 414.76953125 600.700195312 c 3
 409.01953125 600.700195312 405.225585938 592.23046875 399.475585938 592.23046875 c 3
 366.327148438 592.23046875 372.498046875 663.04296875 373.588867188 696.08984375 c 1
98.5859375 461.280273438 m 1
 120.743164062 489.110351562 154.614257812 518.150390625 187.963867188 518.150390625 c 3
 240.74609375 518.150390625 260.559570312 477.009765625 254.159179688 440.709960938 c 0
 246.265625 395.940429688 218.216796875 328.1796875 207.548828125 267.6796875 c 0
 194.479492188 193.560546875 211.659179688 106.549804688 376.438476562 106.549804688 c 3
 540.021484375 106.549804688 618.98828125 292.719726562 671.870117188 491.530273438 c 1
 729.650390625 498.790039062 l 1
 688.388671875 271.309570312 572.487304688 -14.25 355.137695312 -14.25 c 3
 189.537109375 -14.25 91.2626953125 74.080078125 121.1328125 243.48046875 c 0
 133.720703125 314.870117188 169.260742188 372.950195312 178.435546875 424.98046875 c 0
 180.068359375 434.241210938 175.329101562 441.650390625 168.075195312 441.650390625 c 3
 156.341796875 441.650390625 149.684570312 437.168945312 140.015625 432.240234375 c 1
 98.5859375 461.280273438 l 1
EndSplineSet
Substitution2: "pcap-1" psi.pcap
Substitution2: "smcp-1" psi.smcp
EndChar
StartChar: uni03D9
Encoding: 985 985 1036
Width: 586
UnlinkRmOvrlpSave: 1
Flags: HW
HStem: -11.2998 20G<221.08 288.537>
VStem: 204 77<-215.107 3.21944>
LayerCount: 2
Fore
SplineSet
342.934570312 45 m 1
 334.864253257 -15.4489252934 319.103507783 -85.4544133541 307.178710938 -135.099609375 c 1
 307.178710938 -135.099609375 209.813094561 -147.099609375 194.0625 -147.099609375 c 1
 194.0625 -128.37879723 229.087296188 -18.5599933868 244.990234375 47 c 1
 342.934570312 45 l 1
EndSplineSet
Refer: 1017 959 N 1 0 0 0.924852 -4.375e-07 38.6412 2
EndChar
StartChar: afii57664
Encoding: 1488 1488 2392
Width: 548
UnlinkRmOvrlpSave: 1
Flags: HW
AnchorPoint: "HbTop" 367.309 638.023 basechar 0
AnchorPoint: "HbBottom" 287.02 0 basechar 0
AnchorPoint: "TopRight" 595.388 591.426 basechar 0
AnchorPoint: "HbTopLeft" 179.729 638.023 basechar 0
LayerCount: 2
Fore
SplineSet
106.881835938 150 m 1
 126.625976562 158.264648438 137.052734375 156.389648438 165.389648437 157.259765625 c 1
 105.43359375 139.526367188 l 1
 113.076526258 163.567382812 117.594284567 187.604000877 124.927734375 214.634765625 c 1
 146.020523755 314.063929545 169.550044047 422.647457321 186.298828125 453.893554688 c 1
 231.349609375 445.530273438 l 1
 223.075172915 409.993242055 212.94976752 326.03481855 208.062500001 268.19921875 c 1
 198.073242188 151.196289062 190.759382376 149.004882812 276.171875 141.32421875 c 1
 275.984375 100.220703125 256.249023438 46.6591796877 244.025390625 0 c 1
 144.614257812 0 l 1
 120.790039062 -0.1015625 l 1
 78.525390625 28.6103515625 l 1
 106.881835938 150 l 1
546.534179688 569 m 1
 563.822235104 564.729547237 581.639647388 541.087696813 584.744140626 524.749023437 c 1
 590.487786328 505.435826815 586.634120697 458.883658143 565.114257813 423.165039062 c 1
 544.797192556 392.713019292 459.781600759 280.03114122 419.7890625 251.76953125 c 1
 368.693359375 275.935546875 l 1
 404.033339133 301.854387159 452.826920008 395.160623392 457.671875 421.911132812 c 1
 457.671875 421.911132812 458.172851562 434.111328122 487.982421875 427.971679688 c 1
 486.983488469 420.982268167 470.197924453 417.998046875 469.711914063 417.998046875 c 1
 445.760742188 423.975007858 412.998046875 433.570033483 399.622070312 445 c 1
 456.076171875 589.44140625 l 1
 511.5703125 579.869140625 l 1
 546.534179688 569 l 1
187.103515625 589.408203125 m 1
 206.097867172 584.618358512 225.331820328 582.22637236 244.325195312 577.434570312 c 1
 247.692382812 570.932617188 251.117383304 567.406358105 257.857421875 554.607421875 c 1
 280.672851562 514.383296827 383.486846393 330.466688414 454.721679688 230.03515625 c 0
 513.170068185 147.630791169 531.38671875 109.176952788 535.9296875 84.2880859375 c 1
 528.317382813 53.9423828125 503.81640625 12.4609375 481.921875 -6.337890625 c 1
 462.773657276 1.5791015625 447.047844934 9.498046875 426.905273438 17.4150390625 c 1
 423.3515625 25.310546875 416.679605775 33.3246386849 411.544921875 42.44140625 c 0
 357.848416206 137.78097744 300.149333889 258.401219247 229.004882813 347.712890625 c 0
 196.536492237 388.472305947 165.986328125 437.551378095 144.250976562 484.12890625 c 1
 150.7578125 521.031906823 158.345703125 545.002748801 187.103515625 589.408203125 c 1
EndSplineSet
EndChar
StartChar: afii57667
Encoding: 1491 1491 2395
Width: 527
UnlinkRmOvrlpSave: 1
Flags: HW
AnchorPoint: "HbTopLeft" 105.958 638.023 basechar 0
AnchorPoint: "HbBottom" 271.2 0 basechar 0
AnchorPoint: "HbMiddle" 249.73 272.52 basechar 0
AnchorPoint: "HbTop" 302.94 638.023 basechar 0
LayerCount: 2
Fore
SplineSet
215.189453124 585.841796875 m 3
 318.802405299 585.841796875 447.543188561 584.663277275 480.090820312 582.69921875 c 1
 488.472586096 573.139648438 498.023419962 563.58203125 505.234374999 554.0234375 c 1
 490.15234375 509.899652545 476.6015625 466.407196705 465.053710937 423.11328125 c 1
 448.225330198 407.11375719 433.222140124 391.147332228 420.25390625 375.18359375 c 1
 410.429879226 270.754896456 406.32887209 175.631833529 387.859375 110.493164062 c 1
 369.072621027 67.8589147606 349.18290326 23.5838650614 333.706054688 -14.130859375 c 1
 281.19140625 2.220703125 l 1
 311.820909594 145.902218607 341.882393155 284.629854524 354.494140625 394.869140625 c 1
 358.286545744 409.530339982 362.555861782 422.563190117 366.247070313 435.596679688 c 1
 302.930427456 433.393982473 233.653217624 432.450256425 198.458007813 432.764648438 c 1
 159.107492913 432.764648438 92.0843811441 433.969676331 76.12890625 438.883789062 c 1
 122.817382812 588.1015625 l 1
 179.858398438 587.126953125 l 1
 179.858398438 587.126953125 207.461995575 585.841796875 215.189453124 585.841796875 c 3
EndSplineSet
EndChar
StartChar: afii57668
Encoding: 1492 1492 2396
Width: 562
UnlinkRmOvrlpSave: 1
Flags: HW
AnchorPoint: "HbTopLeft" 96.8184 638.023 basechar 0
AnchorPoint: "HbBottom" 280.24 0 basechar 0
AnchorPoint: "HbMiddle" 281.37 292.52 basechar 0
AnchorPoint: "HbTop" 281.37 638.023 basechar 0
LayerCount: 2
Fore
SplineSet
129.135742187 326.596679688 m 5
 177.541992187 312.134765625 l 5
 178.461914063 244.856445312 l 5
 178.427734375 218.995941326 174.361328125 138.074986044 171.399414062 88.5185546875 c 5
 110.307617188 -21.505859375 l 5
 67.30859375 -8.36328125 l 5
 95.9384765625 243.659179688 l 5
 129.135742187 326.596679688 l 5
324.385742187 587.635742188 m 7
 394.159709161 587.635742188 443.915167415 582.869140624 479.254882813 548.739257812 c 5
 507.889648438 514.083984375 506.209960937 468.390497731 503.342773437 411.01171875 c 5
 501.364257812 327.375 496.060104187 249.713811075 489.110351562 181.610351562 c 4
 484.96484375 148.663848691 479.752929688 117.656167401 475.151367187 91.4931640625 c 5
 453.5192084 53.9500454537 431.768709659 14.9604390969 411.470703125 -18.2509765625 c 5
 359.375976562 1.220703125 l 5
 404.688788692 165.150003947 476.364780368 344.899791454 417.850585938 404.962890625 c 5
 384.092481744 433.206054688 271.264512041 433.767783486 224.779296875 433.794921875 c 5
 182.908519021 434.555539646 118.976838211 434.93536025 100.575195312 440.823242188 c 5
 150.344726562 589.1015625 l 5
 205.502929688 589.126953125 l 5
 239.698246881 587.47128531 287.830364789 587.635742188 324.385742187 587.635742188 c 7
EndSplineSet
EndChar
StartChar: afii57669
Encoding: 1493 1493 2397
Width: 298
UnlinkRmOvrlpSave: 1
Flags: HW
AnchorPoint: "HbTopLeft" 184.128 638.023 basechar 0
AnchorPoint: "HbBottom" 178.54 0 basechar 0
AnchorPoint: "HbTop" 257.985 638.023 basechar 0
LayerCount: 2
Fore
SplineSet
224.15234375 617.879882812 m 1
 241.938414449 611.555779328 259.844363124 608.391142099 277.627929688 602.064453125 c 1
 283.009549422 594.342266247 284.544921875 586.618164062 284.985351562 580 c 1
 285.744140625 574.000976562 283.266601562 561.603515625 281.291992188 549.607421875 c 1
 277.9765625 529.155273438 268.200195312 475.424804688 267.462890625 437.799804688 c 5
 253.592773438 389 l 1
 249.58981759 389.082017767 246.590846471 389.165012095 242.583984375 389.206054688 c 1
 203.498401809 402.7194441 160.077056203 430.784694168 145.588867188 461.96875 c 1
 160.229699748 510.445647816 179.872581732 558.922778293 224.15234375 617.879882812 c 1
265.65625 519.737304688 m 1
 276.13671875 510.800871815 271.203398677 500.587557225 267.6015625 481.01171875 c 1
 268.844265097 375.879712675 264.806587253 275.454457704 257.978515625 187.583984375 c 0
 253.434570312 150.404255699 247.833007813 115.290424885 242.98828125 86.3740234375 c 1
 220.80324889 51.2862714533 196.120430002 14.8475349343 177.864257812 -16.19140625 c 1
 124.120117188 -3.779296875 l 1
 155.491567797 161.919105594 208.591570766 318.080713091 210.01171875 433.712890625 c 1
 223.083262411 483.893554688 225.221548324 513.763671875 265.65625 519.737304688 c 1
EndSplineSet
EndChar
StartChar: afii57676
Encoding: 1500 1500 2404
Width: 552
UnlinkRmOvrlpSave: 1
Flags: HW
AnchorPoint: "HbTopLeft" -95.2812 638.023 basechar 0
AnchorPoint: "HbBottom" 250.86 0 basechar 0
AnchorPoint: "HbMiddle" 245.03 316.52 basechar 0
AnchorPoint: "HbTop" 295.653 638.023 basechar 0
LayerCount: 2
Fore
SplineSet
188.322265625 577.953125 m 1
 228.327045228 559.95045402 371.104211126 530.879720272 420.86328125 504.739257812 c 1
 443.770250011 446.761483865 447.034195736 371.409667462 441.608398438 319.8828125 c 0
 440.754882812 311.518554687 440.71597184 302.892952373 437.859375 295.986328125 c 0
 410.050056954 229.045010944 247.684104723 75.6889484373 136.493164062 -30.2001953125 c 1
 84.52734375 -13.1162109375 l 1
 99.1572265625 156.405273438 l 1
 213.793846542 204.361136456 297.023892432 237.330749506 374.634765625 308.264648438 c 1
 377.456375797 329.051709649 368.677627567 344.169416521 355.479492188 360.232421875 c 1
 284.806600476 397.178232218 237.010248381 401.245008208 169.849609375 429.42578125 c 1
 147.782782716 441.032292069 131.412353935 445.837296872 115.404296875 465.823242188 c 1
 119.640625 554.181640625 l 1
 120.655139 532.577564805 127.183695711 625.553294571 128.56640625 610.997070312 c 1
 114.259765625 646.879882812 l 1
 127.130897616 690.244146462 134.987031612 706.514582918 168.271484375 738.46484375 c 1
 227.279296875 731.294921875 l 1
 188.322265625 577.953125 l 1
EndSplineSet
EndChar
StartChar: uni2023
Encoding: 8227 8227 436
Width: 614
Flags: HW
HStem: 549.021 20G<37.0801 124.758>
LayerCount: 2
Fore
SplineSet
561.169921875 320.640625 m 1
 549.771484375 262 l 1
 511.067382812 253.463107639 381.314058074 217.527815867 321.525390625 194 c 0
 197.805664063 145.314269579 139.29296875 77.7447516503 52.26953125 8.7802734375 c 1
 2.537109375 33.8203125 l 1
 47.1533203125 127.943359375 120.350585938 380.166992188 88.1240234375 551.5 c 1
 157.41015625 569.021484375 l 1
 190.175337372 505.109310523 267.228496179 424.632127055 360.90234375 386 c 0
 433.895688658 355.896740149 530.991858304 331.858141341 561.169921875 320.640625 c 1
EndSplineSet
EndChar
StartChar: guilsinglleft
Encoding: 8249 8249 1282
Width: 269
Flags: HW
HStem: -13 21G<125.154 210.5> 491 20G<125.154 210.5>
VStem: 48 84.0996<169.515 328.485>
LayerCount: 2
Fore
SplineSet
57.1259765625 259 m 5
 83.361328125 294.853515625 106.045898438 398.31640625 245.689453125 511 c 5
 282.887695312 479 l 5
 198.165039062 401.545898438 162.802734375 360.512695312 139.099609375 249 c 4
 115.396484375 137.487304688 133.31640625 96.4541015625 185.112304688 19 c 5
 134.310546875 -13 l 5
 42.5693359375 99.68359375 63.869140625 203.146484375 52.8740234375 239 c 5
 57.1259765625 259 l 5
EndSplineSet
Position2: "'case' vertical ajustments for all-caps-1" dx=0 dy=125 dh=0 dv=0
Position2: "cpsp-1" dx=0 dy=0 dh=50 dv=100
EndChar
StartChar: uni26A2
Encoding: 9890 9890 1532
Width: 772
UnlinkRmOvrlpSave: 1
Flags: HMW
HStem: -33.9727 37.9727<110.546 580.064> 77.5996 48.1006<188.314 330.179 378.314 520.179> 448.9 44.5<172.089 313.388 362.089 503.388>
VStem: 44.3496 65.7002<211.333 381.786> 234.35 65.7002<211.333 381.786> 390.85 64.8008<194.678 364.972> 580.85 64.8008<194.678 364.972>
LayerCount: 2
Back
SplineSet
81 27 m 1
 101 22 l 1
 124.494435139 18.0218636072 242.166816306 16 346.87890625 16 c 3
 445.779559223 16 546.274762623 18.3086357889 590 23 c 1
 611 27 l 1
 611 -54 l 1
 590 -50.123046875 l 1
 546.063822615 -43.2868226956 444.949685164 -39.97265625 346.443359375 -39.97265625 c 3
 236.939475493 -39.97265625 130.47291787 -43.6928273451 100 -50.888671875 c 1
 81 -56 l 1
 81 27 l 1
EndSplineSet
Fore
SplineSet
284 -48.1953125 m 3
 217.573818747 -48.1953125 163.350634095 -53.5874307517 143 -58.888671875 c 1
 124 -64 l 1
 124 19 l 1
 144 14 l 1
 159.75437123 10.8334037446 217.849822298 7.65625 286 7.65625 c 3
 353.382227786 7.65625 423.482900849 7.8203125 490 7.8203125 c 3
 551.133254829 7.8203125 604.295175562 11.4218416957 633 15 c 1
 654 19 l 1
 654 -62 l 1
 633 -58.123046875 l 1
 604.241674665 -53.1488647117 551.005254772 -48.16796875 490 -48.16796875 c 3
 424.416119276 -48.16796875 348.886087314 -48.1953125 284 -48.1953125 c 3
EndSplineSet
Refer: 1525 9906 N 1 0 0 1 212 0 2
Refer: 1525 9906 N 1 0 0 1 0 0 2
EndChar
StartChar: uniE001
Encoding: 57345 57345 2350
Width: 0
Flags: HW
LayerCount: 2
Fore
SplineSet
-71.2275390625 0.0791015625 m 0
 -62.8763889538 39.3716490736 -24.2312478306 71.240234375 15.1376953125 71.240234375 c 3
 54.5065265053 71.240234375 79.6040560487 39.3716490736 71.2529296875 0.0791015625 c 0
 62.899162342 -39.2176424891 24.222182811 -71.240234375 -15.146484375 -71.240234375 c 3
 -54.5157406489 -71.240234375 -79.5814314085 -39.2176424891 -71.2275390625 0.0791015625 c 0
EndSplineSet
EndChar
StartChar: d.pcap
Encoding: 57350 57350 646
Width: 595
Flags: HW
HStem: -4 66<61.9206 110.892 225.322 383.094> 442 68<218.202 382.491> 442 57<60.9008 107.459 217.34 297.302>
VStem: 111 115<62.0683 327.143> 111 105<62.0683 440.988> 472 106<152.262 352.992>
AnchorPoint: "Top" 367.004 537 basechar 0
AnchorPoint: "Bottom" 247.673 -15 basechar 0
LayerCount: 2
Back
SplineSet
107.84454725 420.837813049 m 1
 90.5676967882 417.62368421 70.1623613538 418.168273449 61.9806122122 419.136871715 c 2
 55.0325137524 419.926157847 l 1
 58.4730707422 499.60423487 l 1
 66.3242149263 498.870117188 l 2
 104.531973086 495.279453745 116.102523769 492.395507812 151.323242188 492.395507812 c 0
 211.111038681 492.395507812 241.160711078 502.685546875 300.047851562 502.685546875 c 0
 381.389541561 502.685546875 578.974609375 452.866610063 578.974609375 248.606445312 c 0
 578.974609375 50.6039450224 418.23925763 -0.2412109375 284.470703125 -0.2412109375 c 0
 235.589582905 -0.2412109375 210.250111376 4.904296875 157.5 4.904296875 c 0
 146.236854293 4.904296875 112.440682034 2.2684895631 70.2117093503 -5.541015625 c 2
 61.9726208252 -7.04686262523 l 1
 56.2866697756 73.4819581435 l 1
 63.7673920691 74.0114011425 l 2
 87.5305415077 75.7022695715 102.436496239 77.4462060731 111.520130319 77.4914284222 c 1
 111.444184 101.126506144 111.415039062 132.293789316 111.415039062 161.783203125 c 0
 111.415039062 264.383557696 109.511985394 364.539478359 107.84454725 420.837813049 c 1
224.805105642 77.3490359929 m 1
 247.023355101 78.6109429735 270.819114962 79.6240234375 300.948242188 79.6240234375 c 0
 404.527544743 79.6240234375 483.958984375 137.367656487 483.958984375 236.654296875 c 0
 483.958984375 353.561023597 422.418877495 419.03125 276.745117188 419.03125 c 0
 244.731523617 419.03125 236.996298357 418.623657067 218.690887641 420.780521335 c 1
 218.643398732 426.69707823 l 2
 216.098980058 399.166825808 215.447265625 360.34106966 215.447265625 325.088867188 c 0
 215.447265625 227.703183339 218.029171211 152.569781593 224.805105642 77.3490359929 c 1
EndSplineSet
Fore
SplineSet
261.676757812 65 m 3xd4
 357.676757812 65 446.493164062 130 470.086914062 241 c 0
 497.293945312 369 453.810546875 442 317.810546875 442 c 3
 291.810546875 442 287.810546875 442 271.810546875 442 c 0
 263.810546875 442 257.748046875 437 256.47265625 431 c 0
 248.733398438 404 240.65625 366 233.4296875 332 c 0xcc
 211.32421875 228 198.532226562 149 187.52734375 69 c 0
 186.676757812 65 191.0390625 62 195.0390625 62 c 0
 214.251953125 63 235.676757812 65 261.676757812 65 c 3xd4
113.4140625 506 m 1
 153.564453125 502 164.926757812 499 203.926757812 499 c 3xb4
 264.926757812 499 297.264648438 510 355.264648438 510 c 3xd4
 437.264648438 510 622.424804688 459 578.637695312 253 c 0
 535.276367188 49 361.010742188 -4 225.010742188 -4 c 3
 177.010742188 -4 158.073242188 1 105.073242188 1 c 3
 92.0732421875 1 54.435546875 -2 6.7353515625 -10 c 1
 16.4013671875 59 l 1
 57.0390625 62 71.251953125 63 72.314453125 68 c 0
 77.62890625 93 84.85546875 127 92.294921875 162 c 0
 116.1015625 274 141.796875 409 146.748046875 437 c 0
 147.598632812 441 134.598632812 441 96.810546875 442 c 1xb4
 113.4140625 506 l 1
EndSplineSet
EndChar
StartChar: g.pcap
Encoding: 57353 57353 649
Width: 552
Flags: HW
HStem: -11 72<235.417 388.14> 196 76<321.539 371.068 496.802 522> 439 69<211.496 374.849> 480 20G<400 470.387>
VStem: 18 112<163.089 341.378> 388 106<79.2293 193.026>
AnchorPoint: "Top" 361.322 537 basechar 0
AnchorPoint: "Bottom" 246.991 -15 basechar 0
LayerCount: 2
Back
SplineSet
18 237 m 3xec
 18 372 121 508 297 508 c 3xec
 337 508 364.669372856 489.118081123 393 479 c 0
 407 474 398 491 400 494 c 1
 463 500 l 1xdc
 504 389 l 1
 438 368 l 1
 431 369 394 439 296 439 c 3
 197 439 130 373 130 262 c 3
 130 124 220 61 339 61 c 3
 365 61 399.246621114 81.8744368524 388 80 c 0
 384 79.3333333333 388 76.6666666667 388 78 c 0
 388 106.745614035 389 143.410544942 389 191 c 0
 389 193 379 193 372 193 c 0
 352 193 340 194 317 196 c 1
 322 272 l 1
 402 263 471 264 522 271 c 1
 527 200 l 1
 507 201 496.15996801 200.99840048 496 193 c 0
 495 143 494 119.058772732 494 85 c 0
 494 82 499 84 513 79 c 1
 508 24 l 1
 445 13 372 -11 316 -11 c 3
 160 -11 18 83 18 237 c 3xec
EndSplineSet
Fore
SplineSet
15.5556640625 237 m 0xec
 44.2509765625 372 176.158203125 508 352.158203125 508 c 3xec
 392.158203125 508 415.814453125 489.118164062 441.994140625 479 c 0
 454.931640625 474 449.544921875 491 452.182617188 494 c 1
 516.458007812 500 l 1xdc
 533.864257812 389 l 1
 463.400390625 368 l 1
 456.61328125 369 434.4921875 439 336.4921875 439 c 3
 237.4921875 439 156.462890625 373 132.869140625 262 c 0
 103.537109375 124 180.145507812 61 299.145507812 61 c 3
 319.083984375 61 345.090820312 73 349.333984375 76 c 0
 350.23828125 76.6396484375 351.758789062 78 351.758789062 78 c 0
 357.869140625 106.74609375 366.662109375 143.41015625 376.778320312 191 c 0
 377.203125 193 367.203125 193 360.203125 193 c 0
 340.203125 193 328.416015625 194 305.840820312 196 c 1
 326.995117188 272 l 1
 405.08203125 263 474.294921875 264 526.782226562 271 c 1
 516.69140625 200 l 1
 496.903320312 201 486.063476562 200.998046875 484.203125 193 c 0
 472.575195312 143 466.486328125 119.05859375 459.247070312 85 c 0
 458.609375 82 464.034179688 84 476.971679688 79 c 1
 460.28125 24 l 1
 394.943359375 13 316.841796875 -11 260.841796875 -11 c 3
 104.841796875 -11 -17.177734375 83 15.5556640625 237 c 0xec
EndSplineSet
EndChar
StartChar: h.pcap
Encoding: 57354 57354 650
Width: 680
Flags: HW
HStem: -4 74<65 105.976 456.181 479.39 582 621> 228 62<211 479> 440 67<213.416 244.299 586.008 613.918>
VStem: 107 104<79 228 290 437> 479 103<76.3729 229 289 440.688>
AnchorPoint: "Top" 410.487 537 basechar 0
AnchorPoint: "Bottom" 292.156 -15 basechar 0
LayerCount: 2
Back
SplineSet
611.43362774 -6.40301453392 m 0
 579.648068648 -4.26570997656 551.148599744 -2.4306640625 522.66796875 -2.4306640625 c 0
 503.773862604 -2.4306640625 485.250764101 -3.46046493223 464.669677643 -6.61832336843 c 0
 457.036832032 -7.78946882545 l 1
 456.088943444 -0.12569553613 l 0
 453.160143993 23.5539386374 451.485605914 44.6805806719 448.528114237 70.0181725894 c 0
 447.442962578 79.3149459734 l 1
 456.752723586 78.34752701 l 0
 467.127086892 77.2694804536 475.667015479 76.9785958474 478.175645208 77.3131212612 c 1
 480.927937188 132.132248641 479.596863255 167.945155023 478.927004274 218.581053834 c 1
 436.801593677 217.473210577 263.268290734 217.006299778 212.021760063 217.497998536 c 1
 212.132271186 163.593605477 210.213432713 112.078790513 211.461010294 77.3174598661 c 1
 219.964456743 77.1743912493 233.546688944 81.189987921 241.41566899 81.6141289877 c 0
 249.967766408 82.0750903451 l 1
 249.296246526 73.5369455421 l 0
 249.261548082 73.0957667372 243.98185114 2.03240800207 243.335283875 -0.492704855889 c 1024
232.840735099 -5.61364429265 m 0
 204.252962433 -1.96625287125 180.719412782 -0.6611328125 157.766601562 -0.6611328125 c 0
 129.741146245 -0.6611328125 102.55384727 -2.17261307103 71.5267647758 -4.47935795643 c 0
 64.641633134 -4.99124115407 l 1
 63.5628275432 1.82808730482 l 0
 63.5628275432 1.82808730482 56.0853550232 49.100206873 53.2743075165 66.0891888025 c 1024
62.6835295092 80.2791743494 m 0
 75.7013784808 78.7771524254 95.1582120252 76.237586283 105.051792786 74.9737247333 c 1
 107.31957474 159.813929157 105.856445312 251.647851433 105.856445312 339.040039062 c 0
 105.856445312 382.536955407 104.978630683 416.81679825 103.555149865 427.579304384 c 1
 96.7121476008 428.724005127 83.5301327551 429.07172559 65.3458178938 429.13774474 c 0
 57.3750176634 429.166683167 l 1
 62.7244405881 512.01236746 l 1
 71.3077180213 510.05673633 l 2
 101.171659851 503.252475981 131.001469815 499.967773438 161.223632812 499.967773438 c 0
 184.95117072 499.967773438 209.30886276 502.680496972 235.711260753 508.178432966 c 0
 244.114062009 509.928200675 l 1
 249.7285654 430.785805307 l 1
 243.669244244 429.230584983 l 0
 235.371961925 427.100956637 223.823443129 425.606018033 214.855311152 426.073102151 c 1
 214.139870075 395.266206143 210.278481314 348.853903887 209.603003627 295.944705038 c 1
 269.657743213 295.790597937 437.014143125 293.965579949 478.866155695 293.800105024 c 1
 478.826914777 331.337426483 476.42291223 398.728305949 475.267545972 431.407495207 c 1
 466.868233863 429.77761586 462.377313518 430.286840908 451.442564439 430.015971899 c 0
 443.353101997 429.815584616 l 1
 447.475679194 510.379860755 l 1
 455.675010033 509.126814725 l 0
 479.416924758 505.49850498 496.954343924 502.848632812 515.049804688 502.848632812 c 0
 540.025074529 502.848632812 566.237853323 505.822132477 604.216797486 514.182070369 c 0
 611.592321555 515.805573194 l 1
 628.107779321 438.222370383 l 1
 622.672425277 435.70977577 l 0
 613.948491355 431.676973271 596.728317136 432.224899176 585.755711779 432.743380041 c 1
 582.569110304 357.68298302 582.7109375 271.37701693 582.7109375 183.297851562 c 0
 582.7109375 138.688192813 582.794557894 101.950225904 582.665491841 82.6614460127 c 1
 591.724401329 83.1861296839 606.512192175 83.8454435264 621.080018613 83.9840356177 c 0
 629.322555794 84.0624516032 l 1
 628.624418828 75.849159144 l 0
 628.624418828 75.849159144 627.377735324 -3.83750339249 615.820973835 -6.52610835023 c 1024
EndSplineSet
Fore
SplineSet
118.536132812 509 m 1
 149.047851562 502 180.198242188 498 213.198242188 498 c 3
 240.198242188 498 267.8359375 501 298.111328125 507 c 1
 288.870117188 440 l 1
 277.232421875 437 257.01953125 436 252.232421875 437 c 1
 246.280273438 409 230.376953125 353 216.986328125 290 c 1
 248.7734375 289 460.7734375 289 486.7734375 289 c 1
 497.9765625 337 508.942382812 398 513.95703125 431 c 0
 515.870117188 440 504.08203125 441 484.08203125 441 c 1
 501.685546875 505 l 1
 526.8359375 501 546.198242188 498 567.198242188 498 c 3
 595.198242188 498 625.047851562 502 667.749023438 510 c 1
 668.145507812 446 l 1
 659.294921875 442 626.08203125 441 625.870117188 440 c 0
 605.502929688 363 586.797851562 275 567.243164062 183 c 0
 556.189453125 131 548.962890625 97 545.561523438 81 c 0
 545.13671875 79 565.287109375 75 590.287109375 75 c 1
 590.287109375 75 565.64453125 -8 566.495117188 -4 c 1
 531.919921875 -2 501.344726562 0 469.344726562 0 c 3
 448.344726562 0 426.1328125 -1 402.495117188 -4 c 1
 404.80859375 21 407.484375 43 410.223632812 70 c 1
 429.223632812 70 441.287109375 75 442.774414062 82 c 0
 458.315429688 141 463.330078125 174 474.020507812 229 c 1
 444.807617188 228 248.595703125 227 205.807617188 228 c 1
 194.1171875 173 180.213867188 117 174.349609375 80 c 0
 172.436523438 71 201.436523438 71 210.436523438 71 c 1
 210.436523438 71 187.431640625 -9 188.282226562 -5 c 1
 156.1328125 -1 130.344726562 0 104.344726562 0 c 3
 74.3447265625 0 43.919921875 -2 10.4951171875 -4 c 1
 10.4951171875 -4 14.4609375 57 15.2236328125 70 c 1
 34.01171875 69 69.13671875 79 69.13671875 79 c 0
 90.4169921875 165 106.271484375 249 125.401367188 339 c 0
 135.81640625 388 143.95703125 431 143.657226562 439 c 0
 143.294921875 442 126.5078125 443 99.5078125 443 c 1
 118.536132812 509 l 1
EndSplineSet
EndChar
StartChar: q.pcap
Encoding: 57363 57363 659
Width: 594
Flags: HW
HStem: -148 72<526.94 751.048> -12 76<224.496 338.513> 437 75<205.101 366.292>
VStem: 24 104<162.557 356.363> 455 101<147.735 344.348>
AnchorPoint: "Middle" 311.757 252.853 basechar 0
AnchorPoint: "Top" 372.458 537 basechar 0
AnchorPoint: "Bottom" 204.126 -15 basechar 0
LayerCount: 2
Back
SplineSet
278.26953125 424.44921875 m 0
 192.315009308 424.44921875 120.462890625 354.602933629 120.462890625 266.526367188 c 0
 120.462890625 115.205180728 229.593944644 68.83984375 306.5 68.83984375 c 0
 391.596975741 68.83984375 462.23828125 138.358464156 462.23828125 233.704101562 c 0
 462.23828125 374.547310364 372.23235289 424.44921875 278.26953125 424.44921875 c 0
426.169052752 25.1149999277 m 1
 443.94099915 -11.3629387146 483.967432697 -33.7724609375 512.845703125 -33.7724609375 c 0
 527.877333688 -33.7724609375 539.498387454 -33.3295692769 546.469190099 -36.5088947178 c 0
 549.671952285 -37.7133983983 l 1
 569.336335727 -95.1687236534 l 1
 569.422469429 -98.1600414953 l 0
 570.623518032 -108.271820049 545.219887824 -115.217773438 522.291015625 -115.217773438 c 0
 440.287703263 -115.217773438 371.611501601 -72.7248850655 315.323565341 -11.4945365086 c 1
 126.980958866 -9.95571888723 23.1630859375 90.9813023736 23.1630859375 249.712890625 c 0
 23.1630859375 391.175394954 137.516853449 504.330078125 286.188476562 504.330078125 c 0
 435.114146472 504.330078125 556.529296875 397.781298481 556.529296875 258.98828125 c 0
 556.529296875 155.000649328 504.016090936 60.1905181121 426.169052752 25.1149999277 c 1
EndSplineSet
Fore
SplineSet
332.202148438 437 m 3
 250.202148438 437 166.685546875 364 146.91796875 271 c 0
 113.545898438 114 206.91796875 64 280.91796875 64 c 3
 361.91796875 64 445.647460938 138 466.903320312 238 c 0
 497.936523438 384 422.202148438 437 332.202148438 437 c 3
393.840820312 26 m 1
 414.663085938 -36 501.16015625 -76 572.16015625 -76 c 3
 629.16015625 -76 682.435546875 -70 747.237304688 -38 c 1
 759.333984375 -94 l 1
 733.083007812 -114 639.856445312 -148 545.856445312 -148 c 3
 428.856445312 -148 342.333984375 -94 277.763671875 -12 c 1
 87.763671875 -12 4.6572265625 91 39.3037109375 254 c 0
 69.912109375 398 207.143554688 512 356.143554688 512 c 3
 505.143554688 512 603.1875 404 573.216796875 263 c 0
 550.473632812 156 477.642578125 58 393.840820312 26 c 1
EndSplineSet
EndChar
StartChar: iogonek.pcap
Encoding: 57426 57426 1672
Width: 377
UnlinkRmOvrlpSave: 1
Flags: HW
HStem: -266 60.1279<161.947 224.414> -8 66<247.449 314.53> 438 71<69.5139 135.452 252.508 318.493>
VStem: 79.5615 69.21<-194.855 -87.4226> 140 104<63.5768 428.84>
LayerCount: 2
Fore
SplineSet
222.630859375 15.54296875 m 1xf0
 158.447679199 -46.1188656603 148.771484375 -75.4471425755 148.771484375 -132 c 3
 148.771484375 -178.376408535 170.134509604 -205.872070312 197.166015625 -205.872070312 c 3
 212.840568725 -205.872070312 231.660571522 -195.18359375 250.97265625 -171.599609375 c 1
 250.97265625 -171.599609375 262.081054688 -181.926757812 264.771484375 -190 c 1
 241.083847314 -242.788085938 201.174993147 -266 164.771484375 -266 c 3
 119.572780919 -266 79.5615234375 -226.657902331 79.5615234375 -160.834960938 c 3
 79.5615234375 -116.866708126 114.894177668 -31.8124401555 215.931640625 36.76171875 c 1
 222.630859375 15.54296875 l 1xf0
EndSplineSet
Refer: 651 57355 N 1 0 0 1 0 0 3
EndChar
StartChar: exclam.pcap
Encoding: 57473 57473 1744
Width: 291
Flags: HW
HStem: -29.3744 156.666<113.72 153.965>
VStem: 61.0348 146.152<26.7616 68.3718> 108 38<144 265.33>
LayerCount: 2
Fore
SplineSet
107.615234375 199.900390625 m 1xa0
 125.724609375 285.099609375 130.384765625 332.0390625 135.90625 395.099609375 c 0
 139.268554688 433.5 116.94921875 452.700195312 128.021484375 493.5 c 1
 196.23046875 500.69921875 288.866210938 536.698242188 287.241210938 498.299804688 c 1
 261.987304688 469.5 264.359375 449.8046875 240.706054688 395.099609375 c 0
 210.528320312 313.5 182.580078125 286.299804688 163.959960938 198.700195312 c 1
 107.615234375 199.900390625 l 1xa0
EndSplineSet
Refer: 48 46 N 1 0 0.212557 1 -15.0659 0 2
EndChar
StartChar: question.pcap
Encoding: 57474 57474 1745
Width: 330
Flags: HW
HStem: -30.3744 156.666<121.767 161.977> 327 81<75.291 215.291>
VStem: 69.1276 146.025<25.7616 67.3718> 126 18<140 159.072> 249 27<266.214 305.949>
LayerCount: 2
Fore
SplineSet
77.357421875 411.5 m 1xd8
 83.072265625 427.099609375 87.078125 440.299804688 89.62890625 452.299804688 c 0
 100.596679688 503.900390625 86.93359375 524.30078125 88.9736328125 533.900390625 c 0
 90.2490234375 539.900390625 104.21484375 543.5 148.979492188 547.099609375 c 1
 156.603515625 508.700195312 161.866210938 508.700195312 184.41796875 508.700195312 c 3
 274.41796875 508.700195312 353.450195312 457.100585938 336.616210938 377.900390625 c 0
 308.948242188 247.733398438 227.1796875 239.666992188 215.83203125 235.900390625 c 0
 190.7734375 227.583007812 175.919921875 213.838867188 167.872070312 188.099609375 c 1
 167.872070312 188.099609375 127.461914062 186.900390625 112.017578125 186.900390625 c 1
 113.8984375 214.146484375 115.642578125 239.651367188 120.237304688 261.270507812 c 0
 126.834960938 292.309570312 140.770507812 312.3515625 171.452148438 323.5 c 0
 191.153320312 330.658203125 266.9453125 315.467773438 277.919921875 367.099609375 c 0
 284.029296875 395.842773438 221.421875 412.30859375 118.53125 412.30859375 c 0
 105.439453125 412.30859375 91.6953125 412.041992188 77.357421875 411.5 c 1xd8
EndSplineSet
Refer: 48 46 N 1 0 0.212557 1 -6.40056 0 2
EndChar
StartChar: ampersand.pcap
Encoding: 57477 57477 1748
Width: 642
Flags: HMW
LayerCount: 2
Back
SplineSet
202 275 m 1
 153 257 124 224 124 191 c 3
 124 110 172 60 251 60 c 3
 297 60 328 104 346 133 c 1
 291 238 232 264 202 275 c 1
204 451 m 0
 183 451 150 434 150 405 c 3
 150 366 197 350 227 334 c 1
 262 349 279 363 279 377 c 3
 279 413 248 451 204 451 c 0
578 340 m 1
 535 340 507 320 490 283 c 0
 470 239 450 203 427 161 c 1
 456 77 487 51 510 51 c 3
 541 51 562 103 574 136 c 1
 613 120 l 1
 580 43 555 -6 466 -6 c 3
 425 -6 392 35 371 86 c 1
 349 62 309 -11 197 -11 c 3
 91 -11 35 66 35 136 c 3
 35 216 94 272 161 298 c 1
 129 315 103 344 103 382 c 3
 103 466 175 497 246 523 c 1
 324 496 356 453 356 384 c 3
 356 373 312 335 271 314 c 1
 316 300 374 254 402 205 c 1
 420 236 440 287 445 317 c 0
 450 345 418 363 401 371 c 1
 414 412 l 1
 457 396 531 382 582 383 c 1
 578 340 l 1
EndSplineSet
Fore
SplineSet
204.850585938 260 m 1
 155.975585938 242.857421875 122.526367188 211.428710938 115.845703125 180 c 0
 102.176757812 115.694335938 132.291015625 76 195.740234375 76 c 3
 243.192382812 76 285.1640625 123.013671875 310.319335938 154 c 1
 278.090820312 232.379882812 229.771484375 251.7890625 204.850585938 260 c 1
245.0234375 449 m 0
 225.190429688 449 190.567382812 432.739257812 184.670898438 405 c 0
 176.614257812 367.098632812 216.647460938 351.548828125 241.004882812 336 c 1
 282.1015625 355.186523438 303.888671875 373.092773438 307.6953125 391 c 0
 313.692382812 419.215820312 289.0234375 449 245.0234375 449 c 0
590.666015625 325 m 1
 551.575195312 325 521.754882812 311.17578125 501.739257812 283 c 0
 470.481445312 239 440.924804688 203 406.806640625 161 c 1
 416.518554688 89.9814453125 438.364257812 68 458.0390625 68 c 3
 487.1015625 68 516.412109375 113.270507812 533.768554688 142 c 1
 584.092773438 120 l 1
 534.725585938 43 499.310546875 -6 410.310546875 -6 c 3
 369.310546875 -6 345.025390625 35 334.865234375 86 c 1
 307.763671875 62 252.247070312 -11 140.247070312 -11 c 3
 34.2470703125 -11 -5.3857421875 66 9.4931640625 136 c 0
 25.658203125 212.049804688 88.94921875 265.284179688 153.2265625 290 c 1
 121.959960938 309.0234375 100.168945312 341.4765625 109.20703125 384 c 0
 132.166992188 492.018554688 220.840820312 499 302.752929688 523 c 1
 344.163085938 492 404.038085938 482 386.182617188 398 c 0
 383.209960938 384.014648438 336.1875 335.700195312 296.265625 309 c 1
 329.380859375 298.33984375 367.5390625 263.311523438 381.623046875 226 c 1
 405.395507812 251.1875 435.181640625 292.415039062 444.965820312 317 c 0
 453.014648438 337.22265625 431.77734375 350.22265625 420.255859375 356 c 1
 447.159179688 412 l 1
 486.7578125 396 557.782226562 382 608.995117188 383 c 1
 590.666015625 325 l 1
EndSplineSet
EndChar
StartChar: thinrule
Encoding: 58113 58113 1961
Width: 1000
Flags: HW
LayerCount: 2
Fore
SplineSet
0 -34 m 1
 0 34 l 1
 1000 34 l 1
 1000 -34 l 1
 0 -34 l 1
EndSplineSet
EndChar
StartChar: mediumrule
Encoding: 58114 58114 1962
Width: 1000
Flags: HW
LayerCount: 2
Fore
SplineSet
0 -48 m 1
 0 48 l 1
 1000 48 l 1
 1000 -48 l 1
 0 -48 l 1
EndSplineSet
EndChar
StartChar: thickrule
Encoding: 58115 58115 1963
Width: 1000
Flags: HW
LayerCount: 2
Fore
SplineSet
0 -64 m 1
 0 64 l 1
 1000 64 l 1
 1000 -64 l 1
 0 -64 l 1
EndSplineSet
EndChar
StartChar: f.alt
Encoding: 58119 58119 1189
Width: 396
VWidth: 1159
UnlinkRmOvrlpSave: 1
Flags: HW
LayerCount: 2
Fore
SplineSet
67.00390625 459.580078124 m 1
 293.852310704 462.204273544 208.228931148 456.551828958 440.407226562 481.240234376 c 1
 427.133789064 402 l 1
 205.624234924 388.774788212 285.182530149 412.379130426 72.8466796875 379.6796875 c 1
 67.00390625 459.580078124 l 1
444.422851562 754 m 3
 456.224817416 754 495.104453082 755.15853968 505.5390625 756.138671876 c 1
 494.43819147 698.926348974 474.4541833 684.09337926 359.001953124 629 c 1
 349.299411815 635.207308066 339.057694197 653.140625 329.0859375 653.140625 c 3
 316.368653503 653.140625 321.689184753 593.520221895 289.966796876 494.0390625 c 0
 280.908381478 502.155513232 175.461399587 7.0002360667 167.015625 -53 c 0
 154.771129075 -102.792492012 133.858398438 -130.634765626 111.708007812 -171 c 1
 88.1904296875 -169.33984375 90.5419921875 -167.6796875 -8.234375 -167.6796875 c 3
 -38.826171875 -167.6796875 -85.4423828125 -172.736328125 -102.923828125 -174 c 1
 -108.741210938 -105.720703124 l 1
 -56.2568359375 -96.493164062 -6.517441748 -75.7442220294 1.3505859375 -60 c 0
 74.3832706017 62.2757108876 141.367664493 480.827888403 142.688476562 492.33984375 c 0
 173.537012765 654.552047473 193.190463948 680.862344143 264.883789062 710.359375 c 0
 311.977529113 734.720703125 368.618613855 754 444.422851562 754 c 3
EndSplineSet
EndChar
